{"glyphs":{"0":{"ha":581,"x_min":40,"x_max":540,"o":"m 286 -12 q 94 90 149 -12 q 40 411 40 193 q 101 728 40 622 q 293 833 161 833 q 483 738 425 833 q 540 444 540 643 q 483 99 540 210 q 286 -12 426 -12 m 289 89 q 392 173 361 89 q 424 446 424 257 q 396 665 424 594 q 299 735 368 735 q 192 651 222 735 q 161 403 161 568 q 173 218 161 286 q 213 119 185 150 q 289 89 240 89 z "},"1":{"ha":581,"x_min":39,"x_max":540,"o":"m 42 0 q 39 78 39 44 q 100 99 39 93 q 240 106 161 106 l 256 718 q 171 707 226 717 q 97 693 115 697 q 81 767 81 721 q 135 791 81 775 q 254 820 189 807 q 343 833 319 833 q 375 826 365 833 l 357 106 l 460 106 q 512 107 490 106 q 540 110 533 108 q 537 22 540 44 q 518 0 533 0 l 42 0 z "},"2":{"ha":581,"x_min":40,"x_max":540,"o":"m 46 0 q 40 35 40 15 q 47 78 40 63 q 75 133 53 94 q 142 233 106 185 q 232 343 179 281 q 354 503 315 440 q 393 631 393 565 q 286 726 393 726 q 174 713 231 726 q 82 678 117 699 q 68 760 68 710 q 102 794 68 776 q 193 822 136 811 q 314 833 250 833 q 474 787 429 833 q 519 644 519 740 q 474 485 519 560 q 338 301 429 410 q 189 106 238 182 l 376 106 q 474 110 422 106 q 540 115 525 114 q 536 24 540 47 q 517 0 532 0 l 46 0 z "},"3":{"ha":581,"x_min":60,"x_max":525,"o":"m 211 -139 q 99 -119 138 -139 q 61 -71 61 -100 q 68 -15 61 -37 q 76 13 75 8 q 213 -32 125 -32 q 353 35 303 -32 q 404 208 404 101 q 344 322 404 290 q 183 353 283 353 l 181 424 q 317 522 269 467 q 365 636 365 578 q 344 701 365 675 q 265 726 324 726 q 74 676 154 726 q 60 758 60 704 q 90 794 60 776 q 174 822 119 811 q 300 833 229 833 q 448 788 403 833 q 493 669 493 743 q 340 418 493 528 q 474 360 424 410 q 525 211 525 310 q 485 20 525 99 q 374 -99 444 -58 q 211 -139 303 -139 z "},"4":{"ha":581,"x_min":39,"x_max":547,"o":"m 326 182 l 75 182 q 39 281 39 218 q 91 432 39 315 q 211 664 143 549 q 329 822 279 779 q 379 842 353 842 q 443 826 413 842 l 439 286 q 506 288 478 286 q 542 290 533 289 q 545 281 543 289 q 547 258 547 272 q 538 203 547 225 q 510 182 529 182 l 439 182 l 439 36 q 434 10 439 17 q 409 1 429 3 q 326 0 389 0 l 326 182 m 326 286 l 343 688 q 224 501 289 625 q 136 286 158 378 l 326 286 z "},"5":{"ha":581,"x_min":47,"x_max":528,"o":"m 206 -139 q 118 -129 154 -139 q 65 -106 82 -119 q 47 -82 47 -93 q 60 10 47 -26 q 196 -35 108 -35 q 356 47 303 -35 q 408 247 408 128 q 354 401 408 360 q 193 443 300 443 q 58 425 139 443 l 99 833 l 524 833 q 520 769 524 789 q 504 741 517 749 q 465 733 492 733 q 317 735 404 733 q 194 739 231 738 l 172 529 q 260 536 221 536 q 528 269 528 536 q 447 -31 528 78 q 206 -139 367 -139 z "},"6":{"ha":581,"x_min":43,"x_max":543,"o":"m 342 610 q 489 544 435 610 q 543 340 543 479 q 281 -11 543 -11 q 126 40 178 -11 q 59 183 75 92 q 43 428 43 275 q 360 975 43 975 q 467 964 425 975 q 510 928 510 953 q 499 849 510 883 q 368 869 440 869 q 150 510 165 869 q 230 585 183 560 q 342 610 276 610 m 285 89 q 394 153 354 89 q 433 317 433 217 q 401 458 433 410 q 310 507 369 507 q 150 403 218 507 l 150 394 q 180 162 147 235 q 285 89 213 89 z "},"7":{"ha":581,"x_min":63,"x_max":563,"o":"m 226 -122 q 135 -117 160 -122 q 111 -92 111 -111 q 178 208 129 49 q 290 508 228 367 q 408 738 351 649 q 93 732 306 732 q 63 833 63 732 l 563 833 q 336 330 421 560 q 226 -122 251 100 z "},"8":{"ha":581,"x_min":44,"x_max":544,"o":"m 463 449 q 524 360 503 407 q 544 253 544 313 q 482 63 544 138 q 303 -11 419 -11 q 108 63 171 -11 q 44 254 44 136 q 88 410 44 340 q 203 522 132 481 q 113 596 140 565 q 69 660 83 622 q 54 742 54 699 q 122 919 54 857 q 292 981 189 981 q 538 756 538 981 q 497 617 538 674 q 388 513 456 560 q 463 449 440 471 m 306 875 q 205 844 244 875 q 165 749 165 813 q 221 635 165 679 q 304 571 250 608 q 435 751 435 651 q 397 844 435 813 q 306 875 360 875 m 296 96 q 397 139 360 96 q 435 254 435 182 q 419 338 435 306 q 372 397 403 369 q 292 463 344 426 q 188 378 226 429 q 149 261 149 326 q 188 140 149 185 q 296 96 228 96 z "},"9":{"ha":581,"x_min":39,"x_max":540,"o":"m 301 846 q 450 806 400 846 q 519 675 500 765 q 540 413 538 585 q 454 -8 538 128 q 192 -144 371 -144 q 102 -133 136 -144 q 68 -99 68 -122 q 71 -59 68 -81 q 78 -24 74 -37 q 179 -37 124 -37 q 363 55 306 -37 q 431 318 419 147 q 352 243 397 268 q 242 218 307 218 q 95 291 151 218 q 39 497 39 364 q 105 760 39 674 q 301 846 171 846 m 275 321 q 433 425 365 321 l 433 431 q 424 610 433 544 q 385 711 414 676 q 303 746 357 746 q 189 687 229 746 q 149 511 149 628 q 182 370 149 419 q 275 321 215 321 z "},"\u0000":{"ha":0,"x_min":0,"x_max":0,"o":""},"\r":{"ha":219,"x_min":0,"x_max":0,"o":""}," ":{"ha":219,"x_min":0,"x_max":0,"o":""},"A":{"ha":607,"x_min":7,"x_max":601,"o":"m 599 21 q 592 3 601 8 q 550 -3 582 -3 q 483 0 513 -3 l 425 247 l 183 247 l 129 19 q 116 2 125 7 q 76 -3 107 -3 q 7 1 47 -3 l 256 957 q 297 976 260 976 q 350 972 329 976 l 599 21 m 400 349 l 353 549 q 304 817 313 718 q 254 549 289 693 l 207 349 l 400 349 z "},"Á":{"ha":607,"x_min":7,"x_max":599,"o":"m 599 21 q 592 3 601 8 q 550 -3 582 -3 q 483 0 513 -3 l 425 247 l 183 247 l 129 19 q 116 2 125 7 q 76 -3 107 -3 q 7 1 47 -3 l 256 957 q 297 976 260 976 q 350 972 329 976 l 599 21 m 400 349 l 353 549 q 304 817 313 718 q 254 549 289 693 l 207 349 l 400 349 m 238 1056 q 217 1069 226 1056 q 201 1099 207 1083 q 194 1118 196 1114 q 305 1224 239 1168 q 381 1281 371 1281 q 413 1253 399 1281 q 432 1196 426 1226 q 344 1126 415 1178 q 238 1056 274 1075 z "},"Ă":{"ha":607,"x_min":7,"x_max":599,"o":"m 599 21 q 592 3 601 8 q 550 -3 582 -3 q 483 0 513 -3 l 425 247 l 183 247 l 129 19 q 116 2 125 7 q 76 -3 107 -3 q 7 1 47 -3 l 256 957 q 297 976 260 976 q 350 972 329 976 l 599 21 m 400 349 l 353 549 q 304 817 313 718 q 254 549 289 693 l 207 349 l 400 349 m 299 1051 q 213 1077 253 1051 q 148 1139 172 1103 q 124 1206 124 1175 q 138 1242 124 1228 q 185 1268 151 1257 q 228 1192 200 1225 q 300 1158 257 1158 q 364 1183 342 1158 q 407 1250 386 1207 q 429 1264 415 1264 q 463 1246 446 1264 q 483 1207 479 1228 q 415 1094 460 1138 q 299 1051 369 1051 z "},"Ắ":{"ha":607,"x_min":7,"x_max":601,"o":"m 304 1244 q 286 1257 294 1244 q 273 1283 278 1269 q 267 1300 268 1296 q 364 1394 306 1344 q 431 1444 422 1444 q 460 1420 447 1444 q 476 1369 472 1396 q 400 1308 463 1353 q 304 1244 338 1263 m 299 1043 q 222 1065 258 1043 q 165 1120 186 1088 q 143 1179 143 1153 q 156 1212 143 1200 q 199 1235 168 1224 q 237 1167 211 1197 q 300 1138 263 1138 q 356 1159 336 1138 q 396 1219 376 1181 q 414 1232 403 1232 q 444 1216 429 1232 q 463 1181 460 1200 q 402 1081 443 1119 q 299 1043 361 1043 m 599 21 q 592 3 601 8 q 550 -3 582 -3 q 483 0 513 -3 l 425 247 l 183 247 l 129 19 q 116 2 125 7 q 76 -3 107 -3 q 7 1 47 -3 l 256 957 q 297 976 260 976 q 350 972 329 976 l 599 21 m 400 349 l 353 549 q 304 817 313 718 q 254 549 289 693 l 207 349 l 400 349 z "},"Ặ":{"ha":607,"x_min":7,"x_max":599,"o":"m 599 21 q 592 3 601 8 q 550 -3 582 -3 q 483 0 513 -3 l 425 247 l 183 247 l 129 19 q 116 2 125 7 q 76 -3 107 -3 q 7 1 47 -3 l 256 957 q 297 976 260 976 q 350 972 329 976 l 599 21 m 400 349 l 353 549 q 304 817 313 718 q 254 549 289 693 l 207 349 l 400 349 m 301 -246 q 265 -230 278 -246 q 253 -175 253 -214 q 310 -96 253 -96 q 347 -112 336 -96 q 358 -167 358 -128 q 344 -225 358 -204 q 301 -246 329 -246 m 299 1051 q 213 1077 253 1051 q 148 1139 172 1103 q 124 1206 124 1175 q 138 1242 124 1228 q 185 1268 151 1257 q 228 1192 200 1225 q 300 1158 257 1158 q 364 1183 342 1158 q 407 1250 386 1207 q 429 1264 415 1264 q 463 1246 446 1264 q 483 1207 479 1228 q 415 1094 460 1138 q 299 1051 369 1051 z "},"Ằ":{"ha":607,"x_min":7,"x_max":601,"o":"m 307 1250 q 211 1315 274 1269 q 135 1376 149 1360 q 151 1427 139 1403 q 179 1451 163 1451 q 247 1401 188 1451 q 344 1306 307 1350 q 339 1288 343 1301 q 326 1263 335 1275 q 307 1250 318 1250 m 199 1235 q 237 1167 211 1197 q 300 1138 263 1138 q 356 1159 336 1138 q 396 1219 376 1181 q 414 1232 403 1232 q 444 1216 429 1232 q 463 1181 460 1200 q 402 1081 443 1119 q 299 1043 361 1043 q 222 1065 258 1043 q 165 1120 186 1088 q 143 1179 143 1153 q 156 1212 143 1200 q 199 1235 168 1224 m 599 21 q 592 3 601 8 q 550 -3 582 -3 q 483 0 513 -3 l 425 247 l 183 247 l 129 19 q 116 2 125 7 q 76 -3 107 -3 q 7 1 47 -3 l 256 957 q 297 976 260 976 q 350 972 329 976 l 599 21 m 400 349 l 353 549 q 304 817 313 718 q 254 549 289 693 l 207 349 l 400 349 z "},"Ẳ":{"ha":607,"x_min":7,"x_max":601,"o":"m 325 1351 q 275 1403 325 1403 q 226 1388 246 1403 l 226 1453 q 241 1465 226 1458 q 274 1471 256 1471 q 372 1440 342 1471 q 401 1363 401 1410 q 389 1314 401 1331 q 362 1287 376 1297 q 342 1272 347 1276 q 335 1258 336 1268 q 333 1244 333 1247 q 297 1242 331 1242 l 274 1243 q 273 1248 274 1244 q 272 1257 272 1251 q 276 1278 272 1268 q 299 1301 282 1288 q 319 1324 313 1314 q 325 1351 325 1333 m 299 1043 q 222 1065 258 1043 q 165 1120 186 1088 q 143 1179 143 1153 q 156 1212 143 1200 q 199 1235 168 1224 q 237 1167 211 1197 q 300 1138 263 1138 q 356 1159 336 1138 q 396 1219 376 1181 q 414 1232 403 1232 q 444 1216 429 1232 q 463 1181 460 1200 q 402 1081 443 1119 q 299 1043 361 1043 m 599 21 q 592 3 601 8 q 550 -3 582 -3 q 483 0 513 -3 l 425 247 l 183 247 l 129 19 q 116 2 125 7 q 76 -3 107 -3 q 7 1 47 -3 l 256 957 q 297 976 260 976 q 350 972 329 976 l 599 21 m 400 349 l 353 549 q 304 817 313 718 q 254 549 289 693 l 207 349 l 400 349 z "},"Ẵ":{"ha":607,"x_min":7,"x_max":601,"o":"m 171 1294 q 148 1306 158 1294 q 131 1328 138 1317 q 122 1343 124 1339 q 190 1414 153 1392 q 263 1436 226 1436 q 292 1428 281 1436 q 318 1406 304 1421 q 342 1383 332 1390 q 369 1376 353 1376 q 407 1385 394 1376 q 431 1410 419 1394 q 450 1425 443 1425 q 467 1413 460 1425 q 479 1387 475 1400 q 485 1369 483 1374 q 462 1339 481 1360 q 414 1301 443 1318 q 351 1283 385 1283 q 314 1292 328 1283 q 286 1317 300 1300 q 266 1335 275 1329 q 243 1342 257 1342 q 214 1333 225 1342 q 190 1310 203 1325 q 171 1294 178 1294 m 396 1219 q 414 1232 403 1232 q 444 1216 429 1232 q 463 1181 460 1200 q 402 1081 443 1119 q 299 1043 361 1043 q 222 1065 258 1043 q 165 1120 186 1088 q 143 1179 143 1153 q 156 1212 143 1200 q 199 1235 168 1224 q 237 1167 211 1197 q 300 1138 263 1138 q 356 1159 336 1138 q 396 1219 376 1181 m 599 21 q 592 3 601 8 q 550 -3 582 -3 q 483 0 513 -3 l 425 247 l 183 247 l 129 19 q 116 2 125 7 q 76 -3 107 -3 q 7 1 47 -3 l 256 957 q 297 976 260 976 q 350 972 329 976 l 599 21 m 400 349 l 353 549 q 304 817 313 718 q 254 549 289 693 l 207 349 l 400 349 z "},"Â":{"ha":607,"x_min":7,"x_max":599,"o":"m 599 21 q 592 3 601 8 q 550 -3 582 -3 q 483 0 513 -3 l 425 247 l 183 247 l 129 19 q 116 2 125 7 q 76 -3 107 -3 q 7 1 47 -3 l 256 957 q 297 976 260 976 q 350 972 329 976 l 599 21 m 400 349 l 353 549 q 304 817 313 718 q 254 549 289 693 l 207 349 l 400 349 m 400 1057 q 353 1106 388 1069 q 308 1164 319 1143 q 282 1131 303 1156 q 238 1082 261 1106 q 204 1058 215 1058 q 128 1090 154 1058 l 286 1261 q 310 1265 297 1265 q 344 1249 329 1265 q 387 1204 354 1239 q 449 1134 419 1169 q 479 1089 479 1099 q 456 1066 479 1075 q 400 1057 432 1057 z "},"Ấ":{"ha":607,"x_min":7,"x_max":643,"o":"m 597 1358 q 626 1334 614 1358 q 643 1283 639 1310 q 567 1222 629 1267 q 471 1158 504 1176 q 453 1171 461 1158 q 440 1197 444 1183 q 433 1214 435 1210 q 531 1308 472 1258 q 597 1358 589 1358 m 215 1049 q 147 1076 172 1049 l 288 1229 q 308 1232 301 1232 q 340 1218 326 1232 q 410 1144 360 1199 q 460 1076 460 1089 q 439 1056 460 1064 q 389 1047 418 1047 q 348 1091 378 1058 q 308 1142 318 1124 q 285 1113 303 1135 q 246 1069 267 1090 q 215 1049 225 1049 m 599 21 q 592 3 601 8 q 550 -3 582 -3 q 483 0 513 -3 l 425 247 l 183 247 l 129 19 q 116 2 125 7 q 76 -3 107 -3 q 7 1 47 -3 l 256 957 q 297 976 260 976 q 350 972 329 976 l 599 21 m 400 349 l 353 549 q 304 817 313 718 q 254 549 289 693 l 207 349 l 400 349 z "},"Ậ":{"ha":607,"x_min":7,"x_max":599,"o":"m 599 21 q 592 3 601 8 q 550 -3 582 -3 q 483 0 513 -3 l 425 247 l 183 247 l 129 19 q 116 2 125 7 q 76 -3 107 -3 q 7 1 47 -3 l 256 957 q 297 976 260 976 q 350 972 329 976 l 599 21 m 400 349 l 353 549 q 304 817 313 718 q 254 549 289 693 l 207 349 l 400 349 m 301 -246 q 265 -230 278 -246 q 253 -175 253 -214 q 310 -96 253 -96 q 347 -112 336 -96 q 358 -167 358 -128 q 344 -225 358 -204 q 301 -246 329 -246 m 400 1057 q 353 1106 388 1069 q 308 1164 319 1143 q 282 1131 303 1156 q 238 1082 261 1106 q 204 1058 215 1058 q 128 1090 154 1058 l 286 1261 q 310 1265 297 1265 q 344 1249 329 1265 q 387 1204 354 1239 q 449 1134 419 1169 q 479 1089 479 1099 q 456 1066 479 1075 q 400 1057 432 1057 z "},"Ầ":{"ha":607,"x_min":7,"x_max":601,"o":"m 439 1211 q 343 1276 406 1231 q 267 1338 281 1321 q 283 1388 271 1364 q 311 1413 294 1413 q 379 1362 319 1413 q 476 1267 439 1311 q 471 1249 475 1263 q 458 1224 467 1236 q 439 1211 450 1211 m 215 1049 q 147 1076 172 1049 l 288 1229 q 308 1232 301 1232 q 340 1218 326 1232 q 410 1144 360 1199 q 460 1076 460 1089 q 439 1056 460 1064 q 389 1047 418 1047 q 348 1091 378 1058 q 308 1142 318 1124 q 285 1113 303 1135 q 246 1069 267 1090 q 215 1049 225 1049 m 599 21 q 592 3 601 8 q 550 -3 582 -3 q 483 0 513 -3 l 425 247 l 183 247 l 129 19 q 116 2 125 7 q 76 -3 107 -3 q 7 1 47 -3 l 256 957 q 297 976 260 976 q 350 972 329 976 l 599 21 m 400 349 l 353 549 q 304 817 313 718 q 254 549 289 693 l 207 349 l 400 349 z "},"Ẩ":{"ha":607,"x_min":7,"x_max":601,"o":"m 500 1283 q 450 1335 500 1335 q 401 1319 421 1335 l 401 1385 q 416 1397 401 1390 q 449 1403 431 1403 q 547 1372 517 1403 q 576 1294 576 1342 q 564 1246 576 1263 q 537 1219 551 1229 q 517 1204 522 1208 q 510 1190 511 1200 q 508 1176 508 1179 q 472 1174 506 1174 l 449 1175 q 448 1180 449 1176 q 447 1189 447 1183 q 451 1210 447 1200 q 474 1233 457 1219 q 494 1256 488 1246 q 500 1283 500 1265 m 215 1049 q 147 1076 172 1049 l 288 1229 q 308 1232 301 1232 q 340 1218 326 1232 q 410 1144 360 1199 q 460 1076 460 1089 q 439 1056 460 1064 q 389 1047 418 1047 q 348 1091 378 1058 q 308 1142 318 1124 q 285 1113 303 1135 q 246 1069 267 1090 q 215 1049 225 1049 m 599 21 q 592 3 601 8 q 550 -3 582 -3 q 483 0 513 -3 l 425 247 l 183 247 l 129 19 q 116 2 125 7 q 76 -3 107 -3 q 7 1 47 -3 l 256 957 q 297 976 260 976 q 350 972 329 976 l 599 21 m 400 349 l 353 549 q 304 817 313 718 q 254 549 289 693 l 207 349 l 400 349 z "},"Ẫ":{"ha":607,"x_min":7,"x_max":601,"o":"m 204 1268 q 181 1279 192 1268 q 164 1301 171 1290 q 156 1317 157 1313 q 223 1388 186 1365 q 296 1410 260 1410 q 326 1402 314 1410 q 351 1379 338 1394 q 376 1357 365 1364 q 403 1350 386 1350 q 440 1359 428 1350 q 465 1383 453 1368 q 483 1399 476 1399 q 501 1386 493 1399 q 513 1360 508 1374 q 518 1343 517 1347 q 495 1313 514 1333 q 447 1274 476 1292 q 385 1257 418 1257 q 347 1265 361 1257 q 319 1290 333 1274 q 299 1309 308 1303 q 276 1315 290 1315 q 247 1307 258 1315 q 224 1283 236 1299 q 204 1268 211 1268 m 215 1049 q 147 1076 172 1049 l 288 1229 q 308 1232 301 1232 q 340 1218 326 1232 q 410 1144 360 1199 q 460 1076 460 1089 q 439 1056 460 1064 q 389 1047 418 1047 q 348 1091 378 1058 q 308 1142 318 1124 q 285 1113 303 1135 q 246 1069 267 1090 q 215 1049 225 1049 m 599 21 q 592 3 601 8 q 550 -3 582 -3 q 483 0 513 -3 l 425 247 l 183 247 l 129 19 q 116 2 125 7 q 76 -3 107 -3 q 7 1 47 -3 l 256 957 q 297 976 260 976 q 350 972 329 976 l 599 21 m 400 349 l 353 549 q 304 817 313 718 q 254 549 289 693 l 207 349 l 400 349 z "},"Ä":{"ha":607,"x_min":7,"x_max":599,"o":"m 599 21 q 592 3 601 8 q 550 -3 582 -3 q 483 0 513 -3 l 425 247 l 183 247 l 129 19 q 116 2 125 7 q 76 -3 107 -3 q 7 1 47 -3 l 256 957 q 297 976 260 976 q 350 972 329 976 l 599 21 m 400 349 l 353 549 q 304 817 313 718 q 254 549 289 693 l 207 349 l 400 349 m 218 1072 q 177 1092 190 1074 q 164 1156 164 1111 q 179 1214 164 1193 q 225 1235 194 1235 q 267 1217 256 1235 q 279 1158 279 1200 q 264 1094 279 1117 q 218 1072 249 1072 m 383 1072 q 343 1091 357 1074 q 329 1150 329 1108 q 390 1235 329 1235 q 433 1217 421 1235 q 444 1158 444 1200 q 383 1072 442 1072 z "},"Ạ":{"ha":607,"x_min":7,"x_max":599,"o":"m 599 21 q 592 3 601 8 q 550 -3 582 -3 q 483 0 513 -3 l 425 247 l 183 247 l 129 19 q 116 2 125 7 q 76 -3 107 -3 q 7 1 47 -3 l 256 957 q 297 976 260 976 q 350 972 329 976 l 599 21 m 400 349 l 353 549 q 304 817 313 718 q 254 549 289 693 l 207 349 l 400 349 m 301 -246 q 265 -230 278 -246 q 253 -175 253 -214 q 310 -96 253 -96 q 347 -112 336 -96 q 358 -167 358 -128 q 344 -225 358 -204 q 301 -246 329 -246 z "},"À":{"ha":607,"x_min":7,"x_max":599,"o":"m 599 21 q 592 3 601 8 q 550 -3 582 -3 q 483 0 513 -3 l 425 247 l 183 247 l 129 19 q 116 2 125 7 q 76 -3 107 -3 q 7 1 47 -3 l 256 957 q 297 976 260 976 q 350 972 329 976 l 599 21 m 400 349 l 353 549 q 304 817 313 718 q 254 549 289 693 l 207 349 l 400 349 m 389 1046 q 281 1117 351 1067 q 194 1188 210 1168 q 214 1245 200 1218 q 246 1272 228 1272 q 322 1215 256 1272 q 432 1108 389 1158 q 425 1089 431 1104 q 410 1060 419 1074 q 389 1046 400 1046 z "},"Ả":{"ha":607,"x_min":7,"x_max":599,"o":"m 599 21 q 592 3 601 8 q 550 -3 582 -3 q 483 0 513 -3 l 425 247 l 183 247 l 129 19 q 116 2 125 7 q 76 -3 107 -3 q 7 1 47 -3 l 256 957 q 297 976 260 976 q 350 972 329 976 l 599 21 m 400 349 l 353 549 q 304 817 313 718 q 254 549 289 693 l 207 349 l 400 349 m 258 1025 q 258 1031 258 1026 q 257 1042 257 1035 q 261 1064 257 1057 q 275 1083 265 1075 q 286 1092 285 1090 q 308 1116 301 1106 q 315 1147 315 1126 q 260 1206 315 1206 q 206 1189 229 1206 l 206 1263 q 222 1275 206 1268 q 258 1282 238 1282 q 369 1247 335 1282 q 403 1158 403 1213 q 389 1106 403 1125 q 358 1076 375 1088 q 335 1058 342 1064 q 327 1042 329 1053 q 325 1026 325 1031 q 285 1024 322 1024 l 258 1025 z "},"Ā":{"ha":607,"x_min":7,"x_max":599,"o":"m 599 21 q 592 3 601 8 q 550 -3 582 -3 q 483 0 513 -3 l 425 247 l 183 247 l 129 19 q 116 2 125 7 q 76 -3 107 -3 q 7 1 47 -3 l 256 957 q 297 976 260 976 q 350 972 329 976 l 599 21 m 400 349 l 353 549 q 304 817 313 718 q 254 549 289 693 l 207 349 l 400 349 m 125 1093 q 118 1144 118 1113 q 131 1184 118 1169 q 164 1199 143 1199 l 479 1199 q 489 1151 489 1175 q 478 1110 489 1126 q 447 1093 467 1093 l 125 1093 z "},"Ą":{"ha":607,"x_min":7,"x_max":597,"o":"m 511 -271 q 428 -243 460 -271 q 397 -153 397 -215 q 422 -65 397 -107 q 482 7 446 -24 l 425 247 l 183 247 l 129 19 q 116 2 125 7 q 76 -3 107 -3 q 7 1 47 -3 l 256 957 q 297 976 260 976 q 350 972 329 976 l 596 33 q 597 22 597 29 q 583 -3 597 10 q 522 -67 547 -32 q 497 -139 497 -103 q 508 -178 497 -165 q 543 -190 518 -190 q 582 -179 567 -190 q 594 -226 594 -203 q 572 -260 594 -249 q 511 -271 549 -271 m 403 349 l 353 549 q 304 817 313 718 q 254 549 289 693 l 206 349 l 403 349 z "},"Å":{"ha":607,"x_min":7,"x_max":599,"o":"m 599 21 q 592 3 601 8 q 550 -3 582 -3 q 483 0 513 -3 l 425 247 l 183 247 l 129 19 q 116 2 125 7 q 76 -3 107 -3 q 7 1 47 -3 l 256 957 q 297 976 260 976 q 350 972 329 976 l 599 21 m 400 349 l 353 549 q 304 817 313 718 q 254 549 289 693 l 207 349 l 400 349 m 300 1032 q 203 1062 235 1032 q 171 1165 171 1092 q 207 1267 171 1233 q 310 1301 243 1301 q 407 1272 376 1301 q 438 1167 438 1242 q 402 1066 438 1100 q 300 1032 367 1032 m 303 1107 q 360 1167 360 1107 q 347 1210 360 1197 q 310 1224 335 1224 q 250 1164 250 1224 q 263 1122 250 1136 q 303 1107 276 1107 z "},"Ã":{"ha":607,"x_min":7,"x_max":599,"o":"m 599 21 q 592 3 601 8 q 550 -3 582 -3 q 483 0 513 -3 l 425 247 l 183 247 l 129 19 q 116 2 125 7 q 76 -3 107 -3 q 7 1 47 -3 l 256 957 q 297 976 260 976 q 350 972 329 976 l 599 21 m 400 349 l 353 549 q 304 817 313 718 q 254 549 289 693 l 207 349 l 400 349 m 358 1060 q 315 1069 331 1060 q 285 1097 300 1079 q 261 1119 271 1113 q 236 1126 251 1126 q 203 1117 217 1126 q 176 1090 190 1107 q 154 1072 161 1072 q 128 1085 140 1072 q 109 1110 117 1097 q 100 1128 101 1124 q 174 1207 133 1182 q 257 1232 215 1232 q 290 1224 278 1232 q 319 1199 303 1215 q 347 1174 335 1182 q 378 1165 360 1165 q 420 1176 406 1165 q 448 1203 435 1186 q 468 1219 461 1219 q 488 1206 479 1219 q 501 1176 496 1192 q 508 1157 507 1161 q 482 1122 503 1144 q 428 1079 461 1099 q 358 1060 396 1060 z "},"Æ":{"ha":854,"x_min":24,"x_max":828,"o":"m 583 101 l 822 101 q 822 36 822 61 q 816 6 821 11 q 800 0 811 0 l 472 0 l 472 247 l 242 247 l 146 19 q 131 2 142 7 q 94 -3 121 -3 q 24 1 63 -3 l 432 953 q 468 972 440 972 l 828 972 q 827 908 828 933 q 822 877 826 883 q 807 871 818 871 l 583 871 l 583 581 l 793 581 q 792 518 793 543 q 788 485 792 493 q 772 478 783 478 l 583 478 l 583 101 m 472 349 l 472 854 q 367 544 422 681 l 285 349 l 472 349 z "},"B":{"ha":524,"x_min":61,"x_max":500,"o":"m 61 946 q 69 966 61 960 q 97 972 76 972 l 235 972 q 468 758 468 972 q 428 597 468 653 q 336 533 388 540 q 451 485 401 529 q 500 331 500 442 q 426 82 500 164 q 236 0 351 0 l 61 0 l 61 946 m 243 575 q 318 615 290 575 q 346 736 346 656 q 243 874 346 874 l 174 874 l 174 575 l 243 575 m 238 99 q 331 153 294 99 q 368 321 368 208 q 352 424 368 389 q 309 469 336 458 q 239 479 282 479 l 174 479 l 174 99 l 238 99 z "},"C":{"ha":474,"x_min":42,"x_max":446,"o":"m 272 -14 q 148 19 197 -14 q 70 152 99 51 q 42 446 42 253 q 82 786 42 667 q 181 946 122 906 q 315 986 240 986 q 415 964 385 986 q 446 910 446 942 q 428 842 446 872 q 338 876 385 876 q 247 844 286 876 q 184 718 208 811 q 160 451 160 625 q 176 240 160 315 q 224 138 193 165 q 299 110 254 110 q 372 123 338 110 q 428 154 407 136 q 444 86 444 118 q 396 15 444 44 q 272 -14 347 -14 z "},"Ć":{"ha":474,"x_min":42,"x_max":446,"o":"m 272 -14 q 148 19 197 -14 q 70 152 99 51 q 42 446 42 253 q 82 786 42 667 q 181 946 122 906 q 315 986 240 986 q 415 964 385 986 q 446 910 446 942 q 428 842 446 872 q 338 876 385 876 q 247 844 286 876 q 184 718 208 811 q 160 451 160 625 q 176 240 160 315 q 224 138 193 165 q 299 110 254 110 q 372 123 338 110 q 428 154 407 136 q 444 86 444 118 q 396 15 444 44 q 272 -14 347 -14 m 213 1056 q 192 1069 201 1056 q 176 1099 182 1083 q 169 1118 171 1114 q 280 1224 214 1168 q 356 1281 346 1281 q 388 1253 374 1281 q 407 1196 401 1226 q 319 1126 390 1178 q 213 1056 249 1075 z "},"Č":{"ha":474,"x_min":42,"x_max":446,"o":"m 272 -14 q 148 19 197 -14 q 70 152 99 51 q 42 446 42 253 q 82 786 42 667 q 181 946 122 906 q 315 986 240 986 q 415 964 385 986 q 446 910 446 942 q 428 842 446 872 q 338 876 385 876 q 247 844 286 876 q 184 718 208 811 q 160 451 160 625 q 176 240 160 315 q 224 138 193 165 q 299 110 254 110 q 372 123 338 110 q 428 154 407 136 q 444 86 444 118 q 396 15 444 44 q 272 -14 347 -14 m 288 1051 q 202 1115 269 1051 q 117 1206 135 1179 q 140 1253 125 1231 q 168 1276 156 1276 q 207 1250 179 1276 q 260 1194 235 1224 q 292 1157 285 1165 q 338 1215 314 1189 q 377 1255 361 1240 q 397 1274 393 1269 q 442 1222 442 1247 q 408 1168 442 1210 q 336 1089 374 1126 q 288 1051 299 1051 z "},"Ç":{"ha":474,"x_min":42,"x_max":446,"o":"m 299 110 q 372 123 338 110 q 428 154 407 136 q 444 86 444 118 q 406 21 444 49 q 306 -12 368 -7 l 292 -82 q 315 -81 293 -81 q 363 -103 343 -81 q 383 -169 383 -125 q 352 -254 383 -222 q 272 -286 321 -286 q 220 -278 246 -286 q 194 -268 194 -269 q 201 -239 196 -261 q 213 -211 207 -217 q 238 -217 217 -207 q 275 -226 260 -226 q 318 -179 318 -226 q 276 -132 318 -132 q 239 -135 254 -132 q 219 -140 224 -139 l 243 -12 q 135 30 178 -8 q 67 167 92 68 q 42 446 42 267 q 82 786 42 667 q 181 946 122 906 q 315 986 240 986 q 415 964 385 986 q 446 910 446 942 q 428 842 446 872 q 338 876 385 876 q 247 844 286 876 q 184 718 208 811 q 160 451 160 625 q 176 240 160 315 q 224 138 193 165 q 299 110 254 110 z "},"D":{"ha":539,"x_min":61,"x_max":506,"o":"m 61 946 q 69 966 61 960 q 99 972 78 972 l 235 972 q 388 933 329 972 q 476 798 446 893 q 506 536 506 703 q 474 219 506 336 q 383 51 443 101 q 235 0 324 0 l 61 0 l 61 946 m 238 107 q 310 140 279 107 q 360 269 340 172 q 379 547 379 365 q 364 744 379 674 q 318 842 349 814 q 238 869 288 869 l 174 869 l 174 107 l 238 107 z "},"Ð":{"ha":539,"x_min":7,"x_max":506,"o":"m 235 972 q 388 933 329 972 q 476 801 446 894 q 506 547 506 708 q 474 222 506 343 q 383 51 443 101 q 235 0 324 0 l 61 0 l 61 460 l 7 460 q 10 538 7 519 q 29 557 14 557 l 61 557 l 61 946 q 69 966 61 960 q 99 972 78 972 l 235 972 m 238 107 q 310 140 279 107 q 360 269 340 172 q 379 547 379 365 q 364 744 379 674 q 318 842 349 814 q 238 869 288 869 l 174 869 l 174 557 l 285 557 q 281 479 285 499 q 261 460 278 460 l 174 460 l 174 107 l 238 107 z "},"Ď":{"ha":539,"x_min":61,"x_max":506,"o":"m 61 946 q 69 966 61 960 q 99 972 78 972 l 235 972 q 388 933 329 972 q 476 798 446 893 q 506 536 506 703 q 474 219 506 336 q 383 51 443 101 q 235 0 324 0 l 61 0 l 61 946 m 238 107 q 310 140 279 107 q 360 269 340 172 q 379 547 379 365 q 364 744 379 674 q 318 842 349 814 q 238 869 288 869 l 174 869 l 174 107 l 238 107 m 256 1051 q 170 1115 238 1051 q 85 1206 103 1179 q 108 1253 93 1231 q 136 1276 124 1276 q 175 1250 147 1276 q 228 1194 203 1224 q 260 1157 253 1165 q 306 1215 282 1189 q 345 1255 329 1240 q 365 1274 361 1269 q 410 1222 410 1247 q 376 1168 410 1210 q 304 1089 342 1126 q 256 1051 267 1051 z "},"Đ":{"ha":539,"x_min":-29,"x_max":506,"o":"m 235 972 q 388 933 329 972 q 476 798 446 893 q 506 536 506 703 q 474 219 506 336 q 383 51 443 101 q 235 0 324 0 l 61 0 l 61 415 l -24 415 q -29 461 -29 433 q -18 496 -29 482 q 11 510 -7 510 l 61 510 l 61 946 q 69 966 61 960 q 99 972 78 972 l 235 972 m 238 107 q 310 140 279 107 q 360 269 340 172 q 379 547 379 365 q 364 744 379 674 q 318 842 349 814 q 238 869 288 869 l 174 869 l 174 510 l 292 510 q 300 467 300 488 q 290 430 300 444 q 263 415 279 415 l 174 415 l 174 107 l 238 107 z "},"E":{"ha":444,"x_min":63,"x_max":418,"o":"m 174 101 l 413 101 q 412 36 413 61 q 406 6 411 11 q 390 0 401 0 l 63 0 l 63 950 q 67 964 63 956 q 85 972 71 972 l 418 972 q 417 908 418 933 q 413 877 417 883 q 397 871 408 871 l 174 871 l 174 581 l 383 581 q 383 518 383 543 q 378 485 382 493 q 363 478 374 478 l 174 478 l 174 101 z "},"É":{"ha":444,"x_min":63,"x_max":418,"o":"m 174 101 l 413 101 q 412 36 413 61 q 406 6 411 11 q 390 0 401 0 l 63 0 l 63 950 q 67 964 63 956 q 85 972 71 972 l 418 972 q 417 908 418 933 q 413 877 417 883 q 397 871 408 871 l 174 871 l 174 581 l 383 581 q 383 518 383 543 q 378 485 382 493 q 363 478 374 478 l 174 478 l 174 101 m 169 1056 q 149 1069 158 1056 q 133 1099 139 1083 q 126 1118 128 1114 q 237 1224 171 1168 q 313 1281 303 1281 q 344 1253 331 1281 q 364 1196 358 1226 q 276 1126 347 1178 q 169 1056 206 1075 z "},"Ě":{"ha":444,"x_min":63,"x_max":418,"o":"m 174 101 l 413 101 q 412 36 413 61 q 406 6 411 11 q 390 0 401 0 l 63 0 l 63 950 q 67 964 63 956 q 85 972 71 972 l 418 972 q 417 908 418 933 q 413 877 417 883 q 397 871 408 871 l 174 871 l 174 581 l 383 581 q 383 518 383 543 q 378 485 382 493 q 363 478 374 478 l 174 478 l 174 101 m 244 1051 q 159 1115 226 1051 q 74 1206 92 1179 q 97 1253 82 1231 q 125 1276 113 1276 q 164 1250 136 1276 q 217 1194 192 1224 q 249 1157 242 1165 q 294 1215 271 1189 q 334 1255 318 1240 q 354 1274 350 1269 q 399 1222 399 1247 q 365 1168 399 1210 q 293 1089 331 1126 q 244 1051 256 1051 z "},"Ê":{"ha":444,"x_min":60,"x_max":418,"o":"m 174 101 l 413 101 q 412 36 413 61 q 406 6 411 11 q 390 0 401 0 l 63 0 l 63 950 q 67 964 63 956 q 85 972 71 972 l 418 972 q 417 908 418 933 q 413 877 417 883 q 397 871 408 871 l 174 871 l 174 581 l 383 581 q 383 518 383 543 q 378 485 382 493 q 363 478 374 478 l 174 478 l 174 101 m 332 1057 q 285 1106 319 1069 q 240 1164 251 1143 q 214 1131 235 1156 q 170 1082 193 1106 q 136 1058 147 1058 q 60 1090 86 1058 l 218 1261 q 242 1265 229 1265 q 276 1249 261 1265 q 319 1204 286 1239 q 381 1134 351 1169 q 411 1089 411 1099 q 388 1066 411 1075 q 332 1057 364 1057 z "},"Ế":{"ha":444,"x_min":63,"x_max":575,"o":"m 529 1358 q 558 1334 546 1358 q 575 1283 571 1310 q 499 1222 561 1267 q 403 1158 436 1176 q 385 1171 393 1158 q 372 1197 376 1183 q 365 1214 367 1210 q 463 1308 404 1258 q 529 1358 521 1358 m 147 1049 q 79 1076 104 1049 l 219 1229 q 240 1232 233 1232 q 272 1218 258 1232 q 342 1144 292 1199 q 392 1076 392 1089 q 371 1056 392 1064 q 321 1047 350 1047 q 280 1091 310 1058 q 240 1142 250 1124 q 217 1113 235 1135 q 178 1069 199 1090 q 147 1049 157 1049 m 174 871 l 174 581 l 383 581 q 383 518 383 543 q 378 485 382 493 q 363 478 374 478 l 174 478 l 174 101 l 413 101 q 412 36 413 61 q 406 6 411 11 q 390 0 401 0 l 63 0 l 63 950 q 67 964 63 956 q 85 972 71 972 l 418 972 q 417 908 418 933 q 413 877 417 883 q 397 871 408 871 l 174 871 z "},"Ệ":{"ha":444,"x_min":60,"x_max":418,"o":"m 174 101 l 413 101 q 412 36 413 61 q 406 6 411 11 q 390 0 401 0 l 63 0 l 63 950 q 67 964 63 956 q 85 972 71 972 l 418 972 q 417 908 418 933 q 413 877 417 883 q 397 871 408 871 l 174 871 l 174 581 l 383 581 q 383 518 383 543 q 378 485 382 493 q 363 478 374 478 l 174 478 l 174 101 m 219 -246 q 183 -230 196 -246 q 171 -175 171 -214 q 228 -96 171 -96 q 265 -112 254 -96 q 276 -167 276 -128 q 262 -225 276 -204 q 219 -246 247 -246 m 332 1057 q 285 1106 319 1069 q 240 1164 251 1143 q 214 1131 235 1156 q 170 1082 193 1106 q 136 1058 147 1058 q 60 1090 86 1058 l 218 1261 q 242 1265 229 1265 q 276 1249 261 1265 q 319 1204 286 1239 q 381 1134 351 1169 q 411 1089 411 1099 q 388 1066 411 1075 q 332 1057 364 1057 z "},"Ề":{"ha":444,"x_min":63,"x_max":418,"o":"m 371 1211 q 275 1276 338 1231 q 199 1338 213 1321 q 215 1388 203 1364 q 243 1413 226 1413 q 311 1362 251 1413 q 408 1267 371 1311 q 403 1249 407 1263 q 390 1224 399 1236 q 371 1211 382 1211 m 147 1049 q 79 1076 104 1049 l 219 1229 q 240 1232 233 1232 q 272 1218 258 1232 q 342 1144 292 1199 q 392 1076 392 1089 q 371 1056 392 1064 q 321 1047 350 1047 q 280 1091 310 1058 q 240 1142 250 1124 q 217 1113 235 1135 q 178 1069 199 1090 q 147 1049 157 1049 m 174 101 l 413 101 q 412 36 413 61 q 406 6 411 11 q 390 0 401 0 l 63 0 l 63 950 q 67 964 63 956 q 85 972 71 972 l 418 972 q 417 908 418 933 q 413 877 417 883 q 397 871 408 871 l 174 871 l 174 581 l 383 581 q 383 518 383 543 q 378 485 382 493 q 363 478 374 478 l 174 478 l 174 101 z "},"Ể":{"ha":444,"x_min":63,"x_max":508,"o":"m 381 1403 q 478 1372 449 1403 q 508 1294 508 1342 q 496 1246 508 1263 q 469 1219 483 1229 q 449 1204 454 1208 q 442 1190 443 1200 q 440 1176 440 1179 q 404 1174 438 1174 l 381 1175 q 380 1180 381 1176 q 379 1189 379 1183 q 383 1210 379 1200 q 406 1233 389 1219 q 426 1256 419 1246 q 432 1283 432 1265 q 382 1335 432 1335 q 333 1319 353 1335 l 333 1385 q 348 1397 333 1390 q 381 1403 363 1403 m 147 1049 q 79 1076 104 1049 l 219 1229 q 240 1232 233 1232 q 272 1218 258 1232 q 342 1144 292 1199 q 392 1076 392 1089 q 371 1056 392 1064 q 321 1047 350 1047 q 280 1091 310 1058 q 240 1142 250 1124 q 217 1113 235 1135 q 178 1069 199 1090 q 147 1049 157 1049 m 174 871 l 174 581 l 383 581 q 383 518 383 543 q 378 485 382 493 q 363 478 374 478 l 174 478 l 174 101 l 413 101 q 412 36 413 61 q 406 6 411 11 q 390 0 401 0 l 63 0 l 63 950 q 67 964 63 956 q 85 972 71 972 l 418 972 q 417 908 418 933 q 413 877 417 883 q 397 871 408 871 l 174 871 z "},"Ễ":{"ha":444,"x_min":63,"x_max":450,"o":"m 415 1399 q 433 1386 425 1399 q 444 1360 440 1374 q 450 1343 449 1347 q 427 1313 446 1333 q 379 1274 408 1292 q 317 1257 350 1257 q 279 1265 293 1257 q 251 1290 265 1274 q 231 1309 240 1303 q 208 1315 222 1315 q 179 1307 190 1315 q 156 1283 168 1299 q 136 1268 143 1268 q 113 1279 124 1268 q 96 1301 103 1290 q 88 1317 89 1313 q 155 1388 118 1365 q 228 1410 192 1410 q 258 1402 246 1410 q 283 1379 269 1394 q 308 1357 297 1364 q 335 1350 318 1350 q 372 1359 360 1350 q 397 1383 385 1368 q 415 1399 408 1399 m 240 1142 q 217 1113 235 1135 q 178 1069 199 1090 q 147 1049 157 1049 q 79 1076 104 1049 l 219 1229 q 240 1232 233 1232 q 272 1218 258 1232 q 342 1144 292 1199 q 392 1076 392 1089 q 371 1056 392 1064 q 321 1047 350 1047 q 280 1091 310 1058 q 240 1142 250 1124 m 174 871 l 174 581 l 383 581 q 383 518 383 543 q 378 485 382 493 q 363 478 374 478 l 174 478 l 174 101 l 413 101 q 412 36 413 61 q 406 6 411 11 q 390 0 401 0 l 63 0 l 63 950 q 67 964 63 956 q 85 972 71 972 l 418 972 q 417 908 418 933 q 413 877 417 883 q 397 871 408 871 l 174 871 z "},"Ë":{"ha":444,"x_min":63,"x_max":418,"o":"m 174 101 l 413 101 q 412 36 413 61 q 406 6 411 11 q 390 0 401 0 l 63 0 l 63 950 q 67 964 63 956 q 85 972 71 972 l 418 972 q 417 908 418 933 q 413 877 417 883 q 397 871 408 871 l 174 871 l 174 581 l 383 581 q 383 518 383 543 q 378 485 382 493 q 363 478 374 478 l 174 478 l 174 101 m 150 1072 q 109 1092 122 1074 q 96 1156 96 1111 q 111 1214 96 1193 q 157 1235 126 1235 q 199 1217 188 1235 q 211 1158 211 1200 q 196 1094 211 1117 q 150 1072 181 1072 m 315 1072 q 275 1091 289 1074 q 261 1150 261 1108 q 322 1235 261 1235 q 365 1217 353 1235 q 376 1158 376 1200 q 315 1072 374 1072 z "},"Ė":{"ha":444,"x_min":63,"x_max":418,"o":"m 174 101 l 413 101 q 412 36 413 61 q 406 6 411 11 q 390 0 401 0 l 63 0 l 63 950 q 67 964 63 956 q 85 972 71 972 l 418 972 q 417 908 418 933 q 413 877 417 883 q 397 871 408 871 l 174 871 l 174 581 l 383 581 q 383 518 383 543 q 378 485 382 493 q 363 478 374 478 l 174 478 l 174 101 m 232 1069 q 176 1150 176 1069 q 240 1239 176 1239 q 283 1221 271 1239 q 296 1158 296 1203 q 279 1093 296 1117 q 232 1069 263 1069 z "},"Ẹ":{"ha":444,"x_min":63,"x_max":418,"o":"m 174 101 l 413 101 q 412 36 413 61 q 406 6 411 11 q 390 0 401 0 l 63 0 l 63 950 q 67 964 63 956 q 85 972 71 972 l 418 972 q 417 908 418 933 q 413 877 417 883 q 397 871 408 871 l 174 871 l 174 581 l 383 581 q 383 518 383 543 q 378 485 382 493 q 363 478 374 478 l 174 478 l 174 101 m 219 -246 q 183 -230 196 -246 q 171 -175 171 -214 q 228 -96 171 -96 q 265 -112 254 -96 q 276 -167 276 -128 q 262 -225 276 -204 q 219 -246 247 -246 z "},"È":{"ha":444,"x_min":63,"x_max":418,"o":"m 174 101 l 413 101 q 412 36 413 61 q 406 6 411 11 q 390 0 401 0 l 63 0 l 63 950 q 67 964 63 956 q 85 972 71 972 l 418 972 q 417 908 418 933 q 413 877 417 883 q 397 871 408 871 l 174 871 l 174 581 l 383 581 q 383 518 383 543 q 378 485 382 493 q 363 478 374 478 l 174 478 l 174 101 m 321 1046 q 213 1117 283 1067 q 126 1188 142 1168 q 146 1245 132 1218 q 178 1272 160 1272 q 254 1215 188 1272 q 364 1108 321 1158 q 357 1089 363 1104 q 342 1060 351 1074 q 321 1046 332 1046 z "},"Ẻ":{"ha":444,"x_min":63,"x_max":418,"o":"m 174 101 l 413 101 q 412 36 413 61 q 406 6 411 11 q 390 0 401 0 l 63 0 l 63 950 q 67 964 63 956 q 85 972 71 972 l 418 972 q 417 908 418 933 q 413 877 417 883 q 397 871 408 871 l 174 871 l 174 581 l 383 581 q 383 518 383 543 q 378 485 382 493 q 363 478 374 478 l 174 478 l 174 101 m 190 1025 q 190 1031 190 1026 q 189 1042 189 1035 q 193 1064 189 1057 q 207 1083 197 1075 q 218 1092 217 1090 q 240 1116 233 1106 q 247 1147 247 1126 q 192 1206 247 1206 q 138 1189 161 1206 l 138 1263 q 153 1275 138 1268 q 190 1282 169 1282 q 301 1247 267 1282 q 335 1158 335 1213 q 321 1106 335 1125 q 290 1076 307 1088 q 267 1058 274 1064 q 259 1042 261 1053 q 257 1026 257 1031 q 217 1024 254 1024 l 190 1025 z "},"Ē":{"ha":444,"x_min":50,"x_max":421,"o":"m 174 101 l 413 101 q 412 36 413 61 q 406 6 411 11 q 390 0 401 0 l 63 0 l 63 950 q 67 964 63 956 q 85 972 71 972 l 418 972 q 417 908 418 933 q 413 877 417 883 q 397 871 408 871 l 174 871 l 174 581 l 383 581 q 383 518 383 543 q 378 485 382 493 q 363 478 374 478 l 174 478 l 174 101 m 57 1093 q 50 1144 50 1113 q 63 1184 50 1169 q 96 1199 75 1199 l 411 1199 q 421 1151 421 1175 q 410 1110 421 1126 q 379 1093 399 1093 l 57 1093 z "},"Ę":{"ha":444,"x_min":63,"x_max":418,"o":"m 321 -271 q 238 -243 269 -271 q 207 -154 207 -215 q 228 -69 207 -110 q 285 0 250 -29 l 63 0 l 63 950 q 67 964 63 956 q 85 972 71 972 l 418 972 q 417 908 418 933 q 413 877 417 883 q 397 871 408 871 l 174 871 l 174 581 l 383 581 q 383 518 383 543 q 378 485 382 493 q 363 478 374 478 l 174 478 l 174 101 l 413 101 q 411 40 413 63 q 406 10 410 17 q 393 -6 403 3 q 333 -67 358 -32 q 307 -139 307 -103 q 353 -190 307 -190 q 393 -179 374 -190 q 406 -226 406 -207 q 382 -260 406 -249 q 321 -271 358 -271 z "},"Ẽ":{"ha":444,"x_min":32,"x_max":440,"o":"m 174 101 l 413 101 q 412 36 413 61 q 406 6 411 11 q 390 0 401 0 l 63 0 l 63 950 q 67 964 63 956 q 85 972 71 972 l 418 972 q 417 908 418 933 q 413 877 417 883 q 397 871 408 871 l 174 871 l 174 581 l 383 581 q 383 518 383 543 q 378 485 382 493 q 363 478 374 478 l 174 478 l 174 101 m 290 1060 q 247 1069 263 1060 q 217 1097 232 1079 q 193 1119 203 1113 q 168 1126 183 1126 q 135 1117 149 1126 q 108 1090 122 1107 q 86 1072 93 1072 q 60 1085 72 1072 q 41 1110 49 1097 q 32 1128 33 1124 q 106 1207 65 1182 q 189 1232 147 1232 q 222 1224 210 1232 q 251 1199 235 1215 q 279 1174 267 1182 q 310 1165 292 1165 q 352 1176 338 1165 q 380 1203 367 1186 q 400 1219 393 1219 q 419 1206 411 1219 q 433 1176 428 1192 q 440 1157 439 1161 q 414 1122 435 1144 q 360 1079 393 1099 q 290 1060 328 1060 z "},"F":{"ha":435,"x_min":63,"x_max":418,"o":"m 418 972 q 417 910 418 933 q 413 882 417 888 q 397 876 408 876 l 174 876 l 174 581 l 383 581 q 383 518 383 543 q 378 485 382 493 q 363 478 374 478 l 174 478 l 174 22 q 170 8 174 15 q 153 0 167 0 l 63 0 l 63 950 q 67 964 63 956 q 85 972 71 972 l 418 972 z "},"G":{"ha":536,"x_min":42,"x_max":493,"o":"m 303 -14 q 150 26 206 -14 q 68 168 94 65 q 42 464 42 271 q 77 788 42 674 q 176 944 113 901 q 340 986 240 986 q 448 965 407 986 q 489 915 489 943 q 474 843 489 882 q 425 867 454 858 q 363 876 396 876 q 246 840 289 876 q 182 715 203 803 q 161 472 161 628 q 178 231 161 313 q 225 123 194 150 q 306 96 256 96 q 360 107 339 96 q 389 131 382 118 l 389 476 l 285 476 l 285 547 q 311 569 285 569 l 493 569 l 493 49 q 303 -14 418 -14 z "},"Ğ":{"ha":536,"x_min":42,"x_max":493,"o":"m 303 -14 q 150 26 206 -14 q 68 168 94 65 q 42 464 42 271 q 77 788 42 674 q 176 944 113 901 q 340 986 240 986 q 448 965 407 986 q 489 915 489 943 q 474 843 489 882 q 425 867 454 858 q 363 876 396 876 q 246 840 289 876 q 182 715 203 803 q 161 472 161 628 q 178 231 161 313 q 225 123 194 150 q 306 96 256 96 q 360 107 339 96 q 389 131 382 118 l 389 476 l 285 476 l 285 547 q 311 569 285 569 l 493 569 l 493 49 q 303 -14 418 -14 m 301 1051 q 215 1077 256 1051 q 151 1139 175 1103 q 126 1206 126 1175 q 140 1242 126 1228 q 188 1268 154 1257 q 231 1192 203 1225 q 303 1158 260 1158 q 367 1183 344 1158 q 410 1250 389 1207 q 432 1264 418 1264 q 465 1246 449 1264 q 486 1207 482 1228 q 417 1094 463 1138 q 301 1051 372 1051 z "},"Ģ":{"ha":536,"x_min":42,"x_max":493,"o":"m 303 -14 q 150 26 206 -14 q 68 168 94 65 q 42 464 42 271 q 77 788 42 674 q 176 944 113 901 q 340 986 240 986 q 448 965 407 986 q 489 915 489 943 q 474 843 489 882 q 425 867 454 858 q 363 876 396 876 q 246 840 289 876 q 182 715 203 803 q 161 472 161 628 q 178 231 161 313 q 225 123 194 150 q 306 96 256 96 q 360 107 339 96 q 389 131 382 118 l 389 476 l 285 476 l 285 547 q 311 569 285 569 l 493 569 l 493 49 q 303 -14 418 -14 m 263 -365 q 218 -333 225 -365 q 248 -272 240 -296 q 258 -215 256 -247 q 225 -147 225 -193 q 245 -95 225 -115 q 296 -75 265 -75 q 371 -157 371 -75 q 350 -252 371 -204 q 303 -333 329 -300 q 263 -365 276 -365 z "},"H":{"ha":569,"x_min":61,"x_max":507,"o":"m 507 22 q 502 6 507 10 q 470 1 497 1 q 396 0 443 0 l 396 471 l 174 471 l 174 22 q 169 6 174 10 q 136 1 164 1 q 61 0 108 0 l 61 950 q 66 967 61 963 q 99 972 71 971 q 174 972 126 972 l 174 576 l 396 576 l 396 950 q 401 967 396 963 q 433 972 406 971 q 507 972 460 972 l 507 22 z "},"I":{"ha":235,"x_min":61,"x_max":175,"o":"m 61 921 q 67 958 61 949 q 92 970 72 968 q 175 972 113 972 l 175 22 q 169 6 175 10 q 136 1 164 1 q 61 0 108 0 l 61 921 z "},"Ĳ":{"ha":651,"x_min":61,"x_max":590,"o":"m 61 921 q 67 958 61 949 q 92 970 72 968 q 175 972 113 972 l 175 22 q 169 6 175 10 q 136 1 164 1 q 61 0 108 0 l 61 921 m 400 -12 q 288 11 322 -12 q 254 69 254 35 q 258 102 254 89 q 271 133 263 115 q 322 101 292 114 q 386 88 353 88 q 445 106 426 88 q 470 158 464 124 q 476 254 476 193 l 476 921 q 481 959 476 950 q 506 970 486 968 q 590 972 526 972 l 590 229 q 549 51 590 114 q 400 -12 507 -12 z "},"Í":{"ha":235,"x_min":8,"x_max":246,"o":"m 61 921 q 67 958 61 949 q 92 970 72 968 q 175 972 113 972 l 175 22 q 169 6 175 10 q 136 1 164 1 q 61 0 108 0 l 61 921 m 51 1056 q 31 1069 40 1056 q 15 1099 21 1083 q 8 1118 10 1114 q 119 1224 53 1168 q 194 1281 185 1281 q 226 1253 213 1281 q 246 1196 240 1226 q 158 1126 229 1178 q 51 1056 88 1075 z "},"Î":{"ha":235,"x_min":-58,"x_max":293,"o":"m 61 921 q 67 958 61 949 q 92 970 72 968 q 175 972 113 972 l 175 22 q 169 6 175 10 q 136 1 164 1 q 61 0 108 0 l 61 921 m 214 1057 q 167 1106 201 1069 q 122 1164 133 1143 q 96 1131 117 1156 q 52 1082 75 1106 q 18 1058 29 1058 q -58 1090 -32 1058 l 100 1261 q 124 1265 111 1265 q 158 1249 143 1265 q 201 1204 168 1239 q 263 1134 233 1169 q 293 1089 293 1099 q 269 1066 293 1075 q 214 1057 246 1057 z "},"Ï":{"ha":235,"x_min":-22,"x_max":258,"o":"m 61 921 q 67 958 61 949 q 92 970 72 968 q 175 972 113 972 l 175 22 q 169 6 175 10 q 136 1 164 1 q 61 0 108 0 l 61 921 m 32 1072 q -9 1092 4 1074 q -22 1156 -22 1111 q -7 1214 -22 1193 q 39 1235 8 1235 q 81 1217 69 1235 q 93 1158 93 1200 q 78 1094 93 1117 q 32 1072 63 1072 m 197 1072 q 157 1091 171 1074 q 143 1150 143 1108 q 204 1235 143 1235 q 247 1217 235 1235 q 258 1158 258 1200 q 197 1072 256 1072 z "},"İ":{"ha":235,"x_min":58,"x_max":178,"o":"m 61 921 q 67 958 61 949 q 92 970 72 968 q 175 972 113 972 l 175 22 q 169 6 175 10 q 136 1 164 1 q 61 0 108 0 l 61 921 m 114 1069 q 58 1150 58 1069 q 122 1239 58 1239 q 165 1221 153 1239 q 178 1158 178 1203 q 161 1093 178 1117 q 114 1069 144 1069 z "},"Ị":{"ha":235,"x_min":61,"x_max":175,"o":"m 61 921 q 67 958 61 949 q 92 970 72 968 q 175 972 113 972 l 175 22 q 169 6 175 10 q 136 1 164 1 q 61 0 108 0 l 61 921 m 115 -246 q 79 -230 92 -246 q 67 -175 67 -214 q 124 -96 67 -96 q 161 -112 150 -96 q 172 -167 172 -128 q 158 -225 172 -204 q 115 -246 143 -246 z "},"Ì":{"ha":235,"x_min":8,"x_max":246,"o":"m 61 921 q 67 958 61 949 q 92 970 72 968 q 175 972 113 972 l 175 22 q 169 6 175 10 q 136 1 164 1 q 61 0 108 0 l 61 921 m 203 1046 q 94 1117 165 1067 q 8 1188 24 1168 q 28 1245 14 1218 q 60 1272 42 1272 q 136 1215 69 1272 q 246 1108 203 1158 q 239 1089 244 1104 q 224 1060 233 1074 q 203 1046 214 1046 z "},"Ỉ":{"ha":235,"x_min":19,"x_max":217,"o":"m 61 921 q 67 958 61 949 q 92 970 72 968 q 175 972 113 972 l 175 22 q 169 6 175 10 q 136 1 164 1 q 61 0 108 0 l 61 921 m 72 1025 q 72 1031 72 1026 q 71 1042 71 1035 q 75 1064 71 1057 q 89 1083 79 1075 q 100 1092 99 1090 q 122 1116 115 1106 q 129 1147 129 1126 q 74 1206 129 1206 q 19 1189 43 1206 l 19 1263 q 35 1275 19 1268 q 72 1282 51 1282 q 183 1247 149 1282 q 217 1158 217 1213 q 203 1106 217 1125 q 172 1076 189 1088 q 149 1058 156 1064 q 141 1042 143 1053 q 139 1026 139 1031 q 99 1024 136 1024 l 72 1025 z "},"Ī":{"ha":235,"x_min":-68,"x_max":303,"o":"m 61 921 q 67 958 61 949 q 92 970 72 968 q 175 972 113 972 l 175 22 q 169 6 175 10 q 136 1 164 1 q 61 0 108 0 l 61 921 m -61 1093 q -68 1144 -68 1113 q -56 1184 -68 1169 q -22 1199 -43 1199 l 293 1199 q 303 1151 303 1175 q 292 1110 303 1126 q 261 1093 281 1093 l -61 1093 z "},"Į":{"ha":235,"x_min":-15,"x_max":183,"o":"m 103 -271 q 17 -244 49 -271 q -15 -158 -15 -217 q 5 -72 -15 -110 q 61 6 25 -35 l 61 921 q 67 958 61 949 q 92 970 72 968 q 174 972 111 972 l 174 22 q 158 -6 174 8 q 107 -68 129 -32 q 85 -142 85 -104 q 132 -189 85 -189 q 169 -179 154 -189 q 179 -203 175 -189 q 183 -225 183 -217 q 161 -259 183 -247 q 103 -271 139 -271 z "},"Ĩ":{"ha":235,"x_min":-86,"x_max":322,"o":"m 61 921 q 67 958 61 949 q 92 970 72 968 q 175 972 113 972 l 175 22 q 169 6 175 10 q 136 1 164 1 q 61 0 108 0 l 61 921 m 172 1060 q 129 1069 144 1060 q 99 1097 114 1079 q 75 1119 85 1113 q 50 1126 65 1126 q 17 1117 31 1126 q -10 1090 4 1107 q -32 1072 -25 1072 q -58 1085 -46 1072 q -77 1110 -69 1097 q -86 1128 -85 1124 q -12 1207 -53 1182 q 71 1232 29 1232 q 104 1224 92 1232 q 133 1199 117 1215 q 161 1174 149 1182 q 192 1165 174 1165 q 234 1176 219 1165 q 262 1203 249 1186 q 282 1219 275 1219 q 301 1206 293 1219 q 315 1176 310 1192 q 322 1157 321 1161 q 296 1122 317 1144 q 242 1079 275 1099 q 172 1060 210 1060 z "},"J":{"ha":417,"x_min":19,"x_max":356,"o":"m 165 -12 q 53 11 88 -12 q 19 69 19 35 q 24 102 19 89 q 36 133 28 115 q 88 101 57 114 q 151 88 118 88 q 210 106 192 88 q 235 158 229 124 q 242 254 242 193 l 242 921 q 247 959 242 950 q 272 970 251 968 q 356 972 292 972 l 356 229 q 314 51 356 114 q 165 -12 272 -12 z "},"K":{"ha":540,"x_min":58,"x_max":515,"o":"m 465 974 q 515 953 515 974 q 511 940 515 947 l 286 553 q 510 25 453 426 q 502 3 511 8 q 464 -3 493 -3 q 386 1 428 -3 q 318 280 353 178 q 228 442 283 382 q 172 479 210 463 l 172 22 q 167 6 172 10 q 135 1 163 1 q 58 0 107 0 l 58 950 q 63 967 58 963 q 96 972 68 971 q 172 972 124 972 l 172 553 l 394 965 q 465 974 435 974 z "},"Ķ":{"ha":540,"x_min":58,"x_max":515,"o":"m 465 974 q 515 953 515 974 q 511 940 515 947 l 286 553 q 510 25 453 426 q 502 3 511 8 q 464 -3 493 -3 q 386 1 428 -3 q 318 280 353 178 q 228 442 283 382 q 172 479 210 463 l 172 22 q 167 6 172 10 q 135 1 163 1 q 58 0 107 0 l 58 950 q 63 967 58 963 q 96 972 68 971 q 172 972 124 972 l 172 553 l 394 965 q 465 974 435 974 m 239 -365 q 194 -333 201 -365 q 224 -272 217 -296 q 235 -215 232 -247 q 201 -147 201 -193 q 222 -95 201 -115 q 272 -75 242 -75 q 347 -157 347 -75 q 326 -252 347 -204 q 279 -333 306 -300 q 239 -365 253 -365 z "},"L":{"ha":436,"x_min":61,"x_max":413,"o":"m 61 940 q 67 964 61 958 q 92 971 72 969 q 174 972 111 972 l 174 106 l 413 106 l 413 22 q 407 5 413 10 q 390 0 401 0 l 61 0 l 61 940 z "},"Ĺ":{"ha":436,"x_min":56,"x_max":413,"o":"m 61 940 q 67 964 61 958 q 92 971 72 969 q 174 972 111 972 l 174 106 l 413 106 l 413 22 q 407 5 413 10 q 390 0 401 0 l 61 0 l 61 940 m 99 1056 q 78 1069 88 1056 q 63 1099 68 1083 q 56 1118 57 1114 q 166 1224 100 1168 q 242 1281 232 1281 q 274 1253 260 1281 q 293 1196 288 1226 q 206 1126 276 1178 q 99 1056 135 1075 z "},"Ľ":{"ha":460,"x_min":61,"x_max":438,"o":"m 61 940 q 67 964 61 958 q 92 971 72 969 q 174 972 111 972 l 174 106 l 413 106 l 413 22 q 407 5 413 10 q 390 0 401 0 l 61 0 l 61 940 m 333 631 q 289 663 299 631 q 315 728 308 699 q 324 797 321 757 q 292 864 292 817 q 311 916 292 896 q 361 936 331 936 q 438 854 438 936 q 417 755 438 807 q 372 667 397 703 q 333 631 346 631 z "},"Ļ":{"ha":436,"x_min":61,"x_max":413,"o":"m 61 940 q 67 964 61 958 q 92 971 72 969 q 174 972 111 972 l 174 106 l 413 106 l 413 22 q 407 5 413 10 q 390 0 401 0 l 61 0 l 61 940 m 186 -365 q 142 -333 149 -365 q 172 -272 164 -296 q 182 -215 179 -247 q 149 -147 149 -193 q 169 -95 149 -115 q 219 -75 189 -75 q 294 -157 294 -75 q 274 -252 294 -204 q 226 -333 253 -300 q 186 -365 200 -365 z "},"Ŀ":{"ha":465,"x_min":61,"x_max":413,"o":"m 61 940 q 67 964 61 958 q 92 971 72 969 q 174 972 111 972 l 174 106 l 413 106 l 413 22 q 407 5 413 10 q 390 0 401 0 l 61 0 l 61 940 m 321 372 q 261 392 279 372 q 243 451 243 413 q 265 508 243 485 q 321 531 286 531 q 399 451 399 531 q 378 394 399 417 q 321 372 357 372 z "},"Ł":{"ha":454,"x_min":6,"x_max":431,"o":"m 431 106 l 431 22 q 426 8 431 17 q 408 0 422 0 l 78 0 l 78 438 l 19 421 q 6 499 6 481 q 19 522 6 518 l 78 538 l 78 940 q 83 964 78 958 q 109 971 89 969 q 192 972 129 972 l 192 569 l 317 603 q 331 526 331 543 q 317 503 331 507 l 192 468 l 192 106 l 431 106 z "},"M":{"ha":679,"x_min":61,"x_max":618,"o":"m 618 972 l 618 22 q 613 6 618 10 q 581 1 608 1 q 504 0 553 0 l 508 340 q 521 569 511 431 q 535 758 531 708 l 511 675 q 443 438 457 475 l 369 224 q 354 213 365 213 l 306 213 l 233 438 q 144 751 215 492 l 143 750 q 157 572 147 707 q 168 346 167 438 l 171 22 q 165 6 171 10 q 132 1 158 1 q 61 0 106 0 l 61 950 q 67 968 61 964 q 83 972 72 972 l 164 972 l 297 550 q 325 458 313 503 q 342 396 338 413 q 358 457 346 413 q 382 546 369 501 l 506 950 q 514 967 510 963 q 528 972 518 972 l 618 972 z "},"N":{"ha":617,"x_min":61,"x_max":557,"o":"m 444 950 q 450 967 444 963 q 483 972 456 971 q 557 972 511 972 l 557 22 q 533 0 557 0 l 450 0 l 290 382 q 158 778 257 471 q 168 578 164 718 q 172 360 172 438 l 172 22 q 167 6 172 10 q 135 1 163 1 q 61 0 107 0 l 61 950 q 83 972 61 972 l 168 972 l 325 597 q 428 293 343 549 q 458 203 433 276 l 458 207 q 448 403 451 261 q 444 622 444 546 l 444 950 z "},"Ń":{"ha":617,"x_min":61,"x_max":557,"o":"m 444 950 q 450 967 444 963 q 483 972 456 971 q 557 972 511 972 l 557 22 q 533 0 557 0 l 450 0 l 290 382 q 158 778 257 471 q 168 578 164 718 q 172 360 172 438 l 172 22 q 167 6 172 10 q 135 1 163 1 q 61 0 107 0 l 61 950 q 83 972 61 972 l 168 972 l 325 597 q 428 293 343 549 q 458 203 433 276 l 458 207 q 448 403 451 261 q 444 622 444 546 l 444 950 m 242 1056 q 221 1069 231 1056 q 206 1099 211 1083 q 199 1118 200 1114 q 309 1224 243 1168 q 385 1281 375 1281 q 417 1253 403 1281 q 436 1196 431 1226 q 349 1126 419 1178 q 242 1056 278 1075 z "},"Ň":{"ha":617,"x_min":61,"x_max":557,"o":"m 444 950 q 450 967 444 963 q 483 972 456 971 q 557 972 511 972 l 557 22 q 533 0 557 0 l 450 0 l 290 382 q 158 778 257 471 q 168 578 164 718 q 172 360 172 438 l 172 22 q 167 6 172 10 q 135 1 163 1 q 61 0 107 0 l 61 950 q 83 972 61 972 l 168 972 l 325 597 q 428 293 343 549 q 458 203 433 276 l 458 207 q 448 403 451 261 q 444 622 444 546 l 444 950 m 317 1051 q 231 1115 299 1051 q 146 1206 164 1179 q 169 1253 154 1231 q 197 1276 185 1276 q 236 1250 208 1276 q 289 1194 264 1224 q 321 1157 314 1165 q 367 1215 343 1189 q 406 1255 390 1240 q 426 1274 422 1269 q 471 1222 471 1247 q 437 1168 471 1210 q 365 1089 403 1126 q 317 1051 328 1051 z "},"Ņ":{"ha":617,"x_min":61,"x_max":557,"o":"m 444 950 q 450 967 444 963 q 483 972 456 971 q 557 972 511 972 l 557 22 q 533 0 557 0 l 450 0 l 290 382 q 158 778 257 471 q 168 578 164 718 q 172 360 172 438 l 172 22 q 167 6 172 10 q 135 1 163 1 q 61 0 107 0 l 61 950 q 83 972 61 972 l 168 972 l 325 597 q 428 293 343 549 q 458 203 433 276 l 458 207 q 448 403 451 261 q 444 622 444 546 l 444 950 m 276 -365 q 232 -333 239 -365 q 262 -272 254 -296 q 272 -215 269 -247 q 239 -147 239 -193 q 259 -95 239 -115 q 310 -75 279 -75 q 385 -157 385 -75 q 364 -252 385 -204 q 317 -333 343 -300 q 276 -365 290 -365 z "},"Ñ":{"ha":617,"x_min":61,"x_max":557,"o":"m 444 950 q 450 967 444 963 q 483 972 456 971 q 557 972 511 972 l 557 22 q 533 0 557 0 l 450 0 l 290 382 q 158 778 257 471 q 168 578 164 718 q 172 360 172 438 l 172 22 q 167 6 172 10 q 135 1 163 1 q 61 0 107 0 l 61 950 q 83 972 61 972 l 168 972 l 325 597 q 428 293 343 549 q 458 203 433 276 l 458 207 q 448 403 451 261 q 444 622 444 546 l 444 950 m 363 1060 q 319 1069 335 1060 q 289 1097 304 1079 q 265 1119 275 1113 q 240 1126 256 1126 q 208 1117 221 1126 q 180 1090 194 1107 q 158 1072 165 1072 q 133 1085 144 1072 q 113 1110 121 1097 q 104 1128 106 1124 q 178 1207 138 1182 q 261 1232 219 1232 q 294 1224 282 1232 q 324 1199 307 1215 q 351 1174 339 1182 q 382 1165 364 1165 q 424 1176 410 1165 q 452 1203 439 1186 q 472 1219 465 1219 q 492 1206 483 1219 q 506 1176 500 1192 q 513 1157 511 1161 q 486 1122 507 1144 q 433 1079 465 1099 q 363 1060 400 1060 z "},"O":{"ha":596,"x_min":42,"x_max":554,"o":"m 293 -14 q 145 30 199 -14 q 67 183 92 74 q 42 492 42 292 q 70 783 42 675 q 157 939 99 892 q 308 986 215 986 q 453 941 400 986 q 530 790 506 896 q 554 496 554 685 q 527 194 554 306 q 443 35 500 83 q 293 -14 386 -14 m 297 101 q 378 140 349 101 q 420 264 407 179 q 433 493 433 349 q 422 718 433 638 q 383 835 411 799 q 306 871 356 871 q 226 831 256 871 q 182 703 196 792 q 168 464 168 615 q 180 252 168 331 q 219 138 192 174 q 297 101 247 101 z "},"Ó":{"ha":596,"x_min":42,"x_max":554,"o":"m 293 -14 q 145 30 199 -14 q 67 183 92 74 q 42 492 42 292 q 70 783 42 675 q 157 939 99 892 q 308 986 215 986 q 453 941 400 986 q 530 790 506 896 q 554 496 554 685 q 527 194 554 306 q 443 35 500 83 q 293 -14 386 -14 m 297 101 q 378 140 349 101 q 420 264 407 179 q 433 493 433 349 q 422 718 433 638 q 383 835 411 799 q 306 871 356 871 q 226 831 256 871 q 182 703 196 792 q 168 464 168 615 q 180 252 168 331 q 219 138 192 174 q 297 101 247 101 m 232 1056 q 211 1069 221 1056 q 196 1099 201 1083 q 189 1118 190 1114 q 299 1224 233 1168 q 375 1281 365 1281 q 407 1253 393 1281 q 426 1196 421 1226 q 339 1126 410 1178 q 232 1056 268 1075 z "},"Ô":{"ha":596,"x_min":42,"x_max":554,"o":"m 293 -14 q 145 30 199 -14 q 67 183 92 74 q 42 492 42 292 q 70 783 42 675 q 157 939 99 892 q 308 986 215 986 q 453 941 400 986 q 530 790 506 896 q 554 496 554 685 q 527 194 554 306 q 443 35 500 83 q 293 -14 386 -14 m 297 101 q 378 140 349 101 q 420 264 407 179 q 433 493 433 349 q 422 718 433 638 q 383 835 411 799 q 306 871 356 871 q 226 831 256 871 q 182 703 196 792 q 168 464 168 615 q 180 252 168 331 q 219 138 192 174 q 297 101 247 101 m 394 1057 q 348 1106 382 1069 q 303 1164 314 1143 q 276 1131 297 1156 q 233 1082 256 1106 q 199 1058 210 1058 q 122 1090 149 1058 l 281 1261 q 304 1265 292 1265 q 339 1249 324 1265 q 381 1204 349 1239 q 444 1134 414 1169 q 474 1089 474 1099 q 450 1066 474 1075 q 394 1057 426 1057 z "},"Ố":{"ha":596,"x_min":42,"x_max":638,"o":"m 465 1158 q 447 1171 456 1158 q 434 1197 439 1183 q 428 1214 429 1210 q 525 1308 467 1258 q 592 1358 583 1358 q 621 1334 608 1358 q 638 1283 633 1310 q 561 1222 624 1267 q 465 1158 499 1176 m 383 1047 q 342 1091 372 1058 q 303 1142 313 1124 q 279 1113 297 1135 q 240 1069 261 1090 q 210 1049 219 1049 q 142 1076 167 1049 l 282 1229 q 303 1232 296 1232 q 335 1218 321 1232 q 404 1144 354 1199 q 454 1076 454 1089 q 433 1056 454 1064 q 383 1047 413 1047 m 293 -14 q 145 30 199 -14 q 67 183 92 74 q 42 492 42 292 q 70 783 42 675 q 157 939 99 892 q 308 986 215 986 q 453 941 400 986 q 530 790 506 896 q 554 496 554 685 q 527 194 554 306 q 443 35 500 83 q 293 -14 386 -14 m 297 101 q 378 140 349 101 q 420 264 407 179 q 433 493 433 349 q 422 718 433 638 q 383 835 411 799 q 306 871 356 871 q 226 831 256 871 q 182 703 196 792 q 168 464 168 615 q 180 252 168 331 q 219 138 192 174 q 297 101 247 101 z "},"Ộ":{"ha":596,"x_min":42,"x_max":554,"o":"m 293 -14 q 145 30 199 -14 q 67 183 92 74 q 42 492 42 292 q 70 783 42 675 q 157 939 99 892 q 308 986 215 986 q 453 941 400 986 q 530 790 506 896 q 554 496 554 685 q 527 194 554 306 q 443 35 500 83 q 293 -14 386 -14 m 297 101 q 378 140 349 101 q 420 264 407 179 q 433 493 433 349 q 422 718 433 638 q 383 835 411 799 q 306 871 356 871 q 226 831 256 871 q 182 703 196 792 q 168 464 168 615 q 180 252 168 331 q 219 138 192 174 q 297 101 247 101 m 296 -246 q 260 -230 272 -246 q 247 -175 247 -214 q 304 -96 247 -96 q 342 -112 331 -96 q 353 -167 353 -128 q 338 -225 353 -204 q 296 -246 324 -246 m 394 1057 q 348 1106 382 1069 q 303 1164 314 1143 q 276 1131 297 1156 q 233 1082 256 1106 q 199 1058 210 1058 q 122 1090 149 1058 l 281 1261 q 304 1265 292 1265 q 339 1249 324 1265 q 381 1204 349 1239 q 444 1134 414 1169 q 474 1089 474 1099 q 450 1066 474 1075 q 394 1057 426 1057 z "},"Ồ":{"ha":596,"x_min":42,"x_max":554,"o":"m 433 1211 q 338 1276 400 1231 q 261 1338 275 1321 q 277 1388 265 1364 q 306 1413 289 1413 q 374 1362 314 1413 q 471 1267 433 1311 q 465 1249 469 1263 q 453 1224 461 1236 q 433 1211 444 1211 m 383 1047 q 342 1091 372 1058 q 303 1142 313 1124 q 279 1113 297 1135 q 240 1069 261 1090 q 210 1049 219 1049 q 142 1076 167 1049 l 282 1229 q 303 1232 296 1232 q 335 1218 321 1232 q 404 1144 354 1199 q 454 1076 454 1089 q 433 1056 454 1064 q 383 1047 413 1047 m 293 -14 q 145 30 199 -14 q 67 183 92 74 q 42 492 42 292 q 70 783 42 675 q 157 939 99 892 q 308 986 215 986 q 453 941 400 986 q 530 790 506 896 q 554 496 554 685 q 527 194 554 306 q 443 35 500 83 q 293 -14 386 -14 m 297 101 q 378 140 349 101 q 420 264 407 179 q 433 493 433 349 q 422 718 433 638 q 383 835 411 799 q 306 871 356 871 q 226 831 256 871 q 182 703 196 792 q 168 464 168 615 q 180 252 168 331 q 219 138 192 174 q 297 101 247 101 z "},"Ổ":{"ha":596,"x_min":42,"x_max":571,"o":"m 443 1175 q 442 1180 443 1176 q 442 1189 442 1183 q 446 1210 442 1200 q 468 1233 451 1219 q 488 1256 482 1246 q 494 1283 494 1265 q 444 1335 494 1335 q 396 1319 415 1335 l 396 1385 q 410 1397 396 1390 q 443 1403 425 1403 q 541 1372 511 1403 q 571 1294 571 1342 q 558 1246 571 1263 q 531 1219 546 1229 q 511 1204 517 1208 q 504 1190 506 1200 q 503 1176 503 1179 q 467 1174 500 1174 l 443 1175 m 383 1047 q 342 1091 372 1058 q 303 1142 313 1124 q 279 1113 297 1135 q 240 1069 261 1090 q 210 1049 219 1049 q 142 1076 167 1049 l 282 1229 q 303 1232 296 1232 q 335 1218 321 1232 q 404 1144 354 1199 q 454 1076 454 1089 q 433 1056 454 1064 q 383 1047 413 1047 m 293 -14 q 145 30 199 -14 q 67 183 92 74 q 42 492 42 292 q 70 783 42 675 q 157 939 99 892 q 308 986 215 986 q 453 941 400 986 q 530 790 506 896 q 554 496 554 685 q 527 194 554 306 q 443 35 500 83 q 293 -14 386 -14 m 297 101 q 378 140 349 101 q 420 264 407 179 q 433 493 433 349 q 422 718 433 638 q 383 835 411 799 q 306 871 356 871 q 226 831 256 871 q 182 703 196 792 q 168 464 168 615 q 180 252 168 331 q 219 138 192 174 q 297 101 247 101 z "},"Ỗ":{"ha":596,"x_min":42,"x_max":554,"o":"m 379 1257 q 342 1265 356 1257 q 314 1290 328 1274 q 294 1309 303 1303 q 271 1315 285 1315 q 242 1307 253 1315 q 218 1283 231 1299 q 199 1268 206 1268 q 176 1279 186 1268 q 158 1301 165 1290 q 150 1317 151 1313 q 217 1388 181 1365 q 290 1410 254 1410 q 320 1402 308 1410 q 346 1379 332 1394 q 370 1357 360 1364 q 397 1350 381 1350 q 435 1359 422 1350 q 459 1383 447 1368 q 478 1399 471 1399 q 495 1386 488 1399 q 507 1360 503 1374 q 513 1343 511 1347 q 490 1313 508 1333 q 442 1274 471 1292 q 379 1257 413 1257 m 383 1047 q 342 1091 372 1058 q 303 1142 313 1124 q 279 1113 297 1135 q 240 1069 261 1090 q 210 1049 219 1049 q 142 1076 167 1049 l 282 1229 q 303 1232 296 1232 q 335 1218 321 1232 q 404 1144 354 1199 q 454 1076 454 1089 q 433 1056 454 1064 q 383 1047 413 1047 m 293 -14 q 145 30 199 -14 q 67 183 92 74 q 42 492 42 292 q 70 783 42 675 q 157 939 99 892 q 308 986 215 986 q 453 941 400 986 q 530 790 506 896 q 554 496 554 685 q 527 194 554 306 q 443 35 500 83 q 293 -14 386 -14 m 297 101 q 378 140 349 101 q 420 264 407 179 q 433 493 433 349 q 422 718 433 638 q 383 835 411 799 q 306 871 356 871 q 226 831 256 871 q 182 703 196 792 q 168 464 168 615 q 180 252 168 331 q 219 138 192 174 q 297 101 247 101 z "},"Ö":{"ha":596,"x_min":42,"x_max":554,"o":"m 293 -14 q 145 30 199 -14 q 67 183 92 74 q 42 492 42 292 q 70 783 42 675 q 157 939 99 892 q 308 986 215 986 q 453 941 400 986 q 530 790 506 896 q 554 496 554 685 q 527 194 554 306 q 443 35 500 83 q 293 -14 386 -14 m 297 101 q 378 140 349 101 q 420 264 407 179 q 433 493 433 349 q 422 718 433 638 q 383 835 411 799 q 306 871 356 871 q 226 831 256 871 q 182 703 196 792 q 168 464 168 615 q 180 252 168 331 q 219 138 192 174 q 297 101 247 101 m 213 1072 q 172 1092 185 1074 q 158 1156 158 1111 q 174 1214 158 1193 q 219 1235 189 1235 q 262 1217 250 1235 q 274 1158 274 1200 q 258 1094 274 1117 q 213 1072 243 1072 m 378 1072 q 338 1091 351 1074 q 324 1150 324 1108 q 385 1235 324 1235 q 427 1217 415 1235 q 439 1158 439 1200 q 378 1072 436 1072 z "},"Ọ":{"ha":596,"x_min":42,"x_max":554,"o":"m 293 -14 q 145 30 199 -14 q 67 183 92 74 q 42 492 42 292 q 70 783 42 675 q 157 939 99 892 q 308 986 215 986 q 453 941 400 986 q 530 790 506 896 q 554 496 554 685 q 527 194 554 306 q 443 35 500 83 q 293 -14 386 -14 m 297 101 q 378 140 349 101 q 420 264 407 179 q 433 493 433 349 q 422 718 433 638 q 383 835 411 799 q 306 871 356 871 q 226 831 256 871 q 182 703 196 792 q 168 464 168 615 q 180 252 168 331 q 219 138 192 174 q 297 101 247 101 m 296 -246 q 260 -230 272 -246 q 247 -175 247 -214 q 304 -96 247 -96 q 342 -112 331 -96 q 353 -167 353 -128 q 338 -225 353 -204 q 296 -246 324 -246 z "},"Ò":{"ha":596,"x_min":42,"x_max":554,"o":"m 293 -14 q 145 30 199 -14 q 67 183 92 74 q 42 492 42 292 q 70 783 42 675 q 157 939 99 892 q 308 986 215 986 q 453 941 400 986 q 530 790 506 896 q 554 496 554 685 q 527 194 554 306 q 443 35 500 83 q 293 -14 386 -14 m 297 101 q 378 140 349 101 q 420 264 407 179 q 433 493 433 349 q 422 718 433 638 q 383 835 411 799 q 306 871 356 871 q 226 831 256 871 q 182 703 196 792 q 168 464 168 615 q 180 252 168 331 q 219 138 192 174 q 297 101 247 101 m 383 1046 q 275 1117 346 1067 q 189 1188 204 1168 q 208 1245 194 1218 q 240 1272 222 1272 q 317 1215 250 1272 q 426 1108 383 1158 q 419 1089 425 1104 q 404 1060 414 1074 q 383 1046 394 1046 z "},"Ỏ":{"ha":596,"x_min":42,"x_max":554,"o":"m 293 -14 q 145 30 199 -14 q 67 183 92 74 q 42 492 42 292 q 70 783 42 675 q 157 939 99 892 q 308 986 215 986 q 453 941 400 986 q 530 790 506 896 q 554 496 554 685 q 527 194 554 306 q 443 35 500 83 q 293 -14 386 -14 m 297 101 q 378 140 349 101 q 420 264 407 179 q 433 493 433 349 q 422 718 433 638 q 383 835 411 799 q 306 871 356 871 q 226 831 256 871 q 182 703 196 792 q 168 464 168 615 q 180 252 168 331 q 219 138 192 174 q 297 101 247 101 m 253 1025 q 252 1031 253 1026 q 251 1042 251 1035 q 256 1064 251 1057 q 269 1083 260 1075 q 281 1092 279 1090 q 303 1116 296 1106 q 310 1147 310 1126 q 254 1206 310 1206 q 200 1189 224 1206 l 200 1263 q 216 1275 200 1268 q 253 1282 232 1282 q 363 1247 329 1282 q 397 1158 397 1213 q 383 1106 397 1125 q 353 1076 369 1088 q 329 1058 336 1064 q 322 1042 324 1053 q 319 1026 319 1031 q 279 1024 317 1024 l 253 1025 z "},"Ơ":{"ha":596,"x_min":42,"x_max":557,"o":"m 556 1054 q 538 978 557 1017 q 475 918 518 940 q 535 765 517 867 q 554 496 554 663 q 527 194 554 306 q 443 35 500 83 q 293 -14 386 -14 q 145 30 199 -14 q 67 183 92 74 q 42 492 42 292 q 70 783 42 675 q 157 939 99 892 q 308 986 215 986 q 401 972 361 986 q 450 999 436 978 q 464 1060 464 1021 q 474 1069 464 1065 q 500 1072 485 1072 q 538 1067 521 1072 q 556 1054 556 1063 m 297 101 q 378 140 349 101 q 420 264 407 179 q 433 493 433 349 q 422 718 433 638 q 383 835 411 799 q 306 871 356 871 q 226 831 256 871 q 182 703 196 792 q 168 464 168 615 q 180 252 168 331 q 219 138 192 174 q 297 101 247 101 z "},"Ớ":{"ha":596,"x_min":42,"x_max":556,"o":"m 556 1054 q 538 978 557 1017 q 475 918 518 940 q 535 765 517 867 q 554 496 554 663 q 527 194 554 306 q 443 35 500 83 q 293 -14 386 -14 q 145 30 199 -14 q 67 183 92 74 q 42 492 42 292 q 70 783 42 675 q 157 939 99 892 q 308 986 215 986 q 401 972 361 986 q 450 999 436 978 q 464 1060 464 1021 q 474 1069 464 1065 q 500 1072 485 1072 q 538 1067 521 1072 q 556 1054 556 1063 m 297 101 q 378 140 349 101 q 420 264 407 179 q 433 493 433 349 q 422 718 433 638 q 383 835 411 799 q 306 871 356 871 q 226 831 256 871 q 182 703 196 792 q 168 464 168 615 q 180 252 168 331 q 219 138 192 174 q 297 101 247 101 m 222 1056 q 201 1069 211 1056 q 186 1099 192 1083 q 179 1118 181 1114 q 290 1224 224 1168 q 365 1281 356 1281 q 397 1253 383 1281 q 417 1196 411 1226 q 329 1126 400 1178 q 222 1056 258 1075 z "},"Ợ":{"ha":596,"x_min":42,"x_max":556,"o":"m 556 1054 q 538 978 557 1017 q 475 918 518 940 q 535 765 517 867 q 554 496 554 663 q 527 194 554 306 q 443 35 500 83 q 293 -14 386 -14 q 145 30 199 -14 q 67 183 92 74 q 42 492 42 292 q 70 783 42 675 q 157 939 99 892 q 308 986 215 986 q 401 972 361 986 q 450 999 436 978 q 464 1060 464 1021 q 474 1069 464 1065 q 500 1072 485 1072 q 538 1067 521 1072 q 556 1054 556 1063 m 297 101 q 378 140 349 101 q 420 264 407 179 q 433 493 433 349 q 422 718 433 638 q 383 835 411 799 q 306 871 356 871 q 226 831 256 871 q 182 703 196 792 q 168 464 168 615 q 180 252 168 331 q 219 138 192 174 q 297 101 247 101 m 296 -246 q 260 -230 272 -246 q 247 -175 247 -214 q 304 -96 247 -96 q 342 -112 331 -96 q 353 -167 353 -128 q 338 -225 353 -204 q 296 -246 324 -246 z "},"Ờ":{"ha":596,"x_min":42,"x_max":556,"o":"m 556 1054 q 538 978 557 1017 q 475 918 518 940 q 535 765 517 867 q 554 496 554 663 q 527 194 554 306 q 443 35 500 83 q 293 -14 386 -14 q 145 30 199 -14 q 67 183 92 74 q 42 492 42 292 q 70 783 42 675 q 157 939 99 892 q 308 986 215 986 q 401 972 361 986 q 450 999 436 978 q 464 1060 464 1021 q 474 1069 464 1065 q 500 1072 485 1072 q 538 1067 521 1072 q 556 1054 556 1063 m 297 101 q 378 140 349 101 q 420 264 407 179 q 433 493 433 349 q 422 718 433 638 q 383 835 411 799 q 306 871 356 871 q 226 831 256 871 q 182 703 196 792 q 168 464 168 615 q 180 252 168 331 q 219 138 192 174 q 297 101 247 101 m 374 1046 q 265 1117 336 1067 q 179 1188 194 1168 q 199 1245 185 1218 q 231 1272 213 1272 q 307 1215 240 1272 q 417 1108 374 1158 q 410 1089 415 1104 q 394 1060 404 1074 q 374 1046 385 1046 z "},"Ở":{"ha":596,"x_min":42,"x_max":556,"o":"m 556 1054 q 538 978 557 1017 q 475 918 518 940 q 535 765 517 867 q 554 496 554 663 q 527 194 554 306 q 443 35 500 83 q 293 -14 386 -14 q 145 30 199 -14 q 67 183 92 74 q 42 492 42 292 q 70 783 42 675 q 157 939 99 892 q 308 986 215 986 q 401 972 361 986 q 450 999 436 978 q 464 1060 464 1021 q 474 1069 464 1065 q 500 1072 485 1072 q 538 1067 521 1072 q 556 1054 556 1063 m 297 101 q 378 140 349 101 q 420 264 407 179 q 433 493 433 349 q 422 718 433 638 q 383 835 411 799 q 306 871 356 871 q 226 831 256 871 q 182 703 196 792 q 168 464 168 615 q 180 252 168 331 q 219 138 192 174 q 297 101 247 101 m 253 1025 q 252 1031 253 1026 q 251 1042 251 1035 q 256 1064 251 1057 q 269 1083 260 1075 q 281 1092 279 1090 q 303 1116 296 1106 q 310 1147 310 1126 q 254 1206 310 1206 q 200 1189 224 1206 l 200 1263 q 216 1275 200 1268 q 253 1282 232 1282 q 363 1247 329 1282 q 397 1158 397 1213 q 383 1106 397 1125 q 353 1076 369 1088 q 329 1058 336 1064 q 322 1042 324 1053 q 319 1026 319 1031 q 279 1024 317 1024 l 253 1025 z "},"Ỡ":{"ha":596,"x_min":42,"x_max":556,"o":"m 556 1054 q 538 978 557 1017 q 475 918 518 940 q 535 765 517 867 q 554 496 554 663 q 527 194 554 306 q 443 35 500 83 q 293 -14 386 -14 q 145 30 199 -14 q 67 183 92 74 q 42 492 42 292 q 70 783 42 675 q 157 939 99 892 q 308 986 215 986 q 401 972 361 986 q 450 999 436 978 q 464 1060 464 1021 q 474 1069 464 1065 q 500 1072 485 1072 q 538 1067 521 1072 q 556 1054 556 1063 m 297 101 q 378 140 349 101 q 420 264 407 179 q 433 493 433 349 q 422 718 433 638 q 383 835 411 799 q 306 871 356 871 q 226 831 256 871 q 182 703 196 792 q 168 464 168 615 q 180 252 168 331 q 219 138 192 174 q 297 101 247 101 m 353 1060 q 310 1069 325 1060 q 279 1097 294 1079 q 256 1119 265 1113 q 231 1126 246 1126 q 198 1117 211 1126 q 170 1090 185 1107 q 149 1072 156 1072 q 123 1085 135 1072 q 103 1110 111 1097 q 94 1128 96 1124 q 169 1207 128 1182 q 251 1232 210 1232 q 285 1224 272 1232 q 314 1199 297 1215 q 342 1174 329 1182 q 372 1165 354 1165 q 415 1176 400 1165 q 442 1203 429 1186 q 463 1219 456 1219 q 482 1206 474 1219 q 496 1176 490 1192 q 503 1157 501 1161 q 476 1122 497 1144 q 423 1079 456 1099 q 353 1060 390 1060 z "},"Ő":{"ha":596,"x_min":42,"x_max":554,"o":"m 293 -14 q 145 30 199 -14 q 67 183 92 74 q 42 492 42 292 q 70 783 42 675 q 157 939 99 892 q 308 986 215 986 q 453 941 400 986 q 530 790 506 896 q 554 496 554 685 q 527 194 554 306 q 443 35 500 83 q 293 -14 386 -14 m 297 101 q 378 140 349 101 q 420 264 407 179 q 433 493 433 349 q 422 718 433 638 q 383 835 411 799 q 306 871 356 871 q 226 831 256 871 q 182 703 196 792 q 168 464 168 615 q 180 252 168 331 q 219 138 192 174 q 297 101 247 101 m 197 1046 q 173 1053 186 1043 q 150 1076 160 1064 q 138 1093 140 1089 q 210 1210 164 1146 q 265 1278 256 1274 q 303 1260 282 1282 q 336 1211 324 1238 q 276 1131 326 1190 q 197 1046 226 1072 m 372 1046 q 348 1053 361 1043 q 326 1076 335 1064 q 314 1093 317 1089 q 385 1209 339 1144 q 439 1278 431 1274 q 478 1260 457 1282 q 511 1211 499 1239 q 451 1131 501 1190 q 372 1046 400 1072 z "},"Ō":{"ha":596,"x_min":42,"x_max":554,"o":"m 293 -14 q 145 30 199 -14 q 67 183 92 74 q 42 492 42 292 q 70 783 42 675 q 157 939 99 892 q 308 986 215 986 q 453 941 400 986 q 530 790 506 896 q 554 496 554 685 q 527 194 554 306 q 443 35 500 83 q 293 -14 386 -14 m 297 101 q 378 140 349 101 q 420 264 407 179 q 433 493 433 349 q 422 718 433 638 q 383 835 411 799 q 306 871 356 871 q 226 831 256 871 q 182 703 196 792 q 168 464 168 615 q 180 252 168 331 q 219 138 192 174 q 297 101 247 101 m 119 1093 q 113 1144 113 1113 q 125 1184 113 1169 q 158 1199 138 1199 l 474 1199 q 483 1151 483 1175 q 472 1110 483 1126 q 442 1093 461 1093 l 119 1093 z "},"Ø":{"ha":606,"x_min":32,"x_max":576,"o":"m 575 964 q 529 813 576 951 q 560 496 560 703 q 532 194 560 306 q 447 35 504 83 q 297 -14 390 -14 q 201 1 242 -14 q 131 49 160 15 q 101 -22 113 -1 q 59 -12 82 -22 q 33 13 36 -3 q 49 61 32 17 q 82 142 67 106 q 46 492 46 254 q 74 783 46 675 q 159 939 101 892 q 308 986 217 986 q 404 971 364 986 q 474 922 444 956 q 504 999 499 989 q 526 995 510 999 q 557 984 542 992 q 575 964 572 976 m 308 872 q 229 833 258 872 q 186 704 200 793 q 172 464 172 615 q 183 244 172 317 l 390 832 q 308 872 363 872 m 293 101 q 374 132 343 101 q 421 247 404 163 q 438 493 438 332 q 426 717 438 643 q 218 136 346 485 q 293 101 244 101 z "},"Õ":{"ha":596,"x_min":42,"x_max":554,"o":"m 293 -14 q 145 30 199 -14 q 67 183 92 74 q 42 492 42 292 q 70 783 42 675 q 157 939 99 892 q 308 986 215 986 q 453 941 400 986 q 530 790 506 896 q 554 496 554 685 q 527 194 554 306 q 443 35 500 83 q 293 -14 386 -14 m 297 101 q 378 140 349 101 q 420 264 407 179 q 433 493 433 349 q 422 718 433 638 q 383 835 411 799 q 306 871 356 871 q 226 831 256 871 q 182 703 196 792 q 168 464 168 615 q 180 252 168 331 q 219 138 192 174 q 297 101 247 101 m 353 1060 q 310 1069 325 1060 q 279 1097 294 1079 q 256 1119 265 1113 q 231 1126 246 1126 q 198 1117 211 1126 q 170 1090 185 1107 q 149 1072 156 1072 q 123 1085 135 1072 q 103 1110 111 1097 q 94 1128 96 1124 q 169 1207 128 1182 q 251 1232 210 1232 q 285 1224 272 1232 q 314 1199 297 1215 q 342 1174 329 1182 q 372 1165 354 1165 q 415 1176 400 1165 q 442 1203 429 1186 q 463 1219 456 1219 q 482 1206 474 1219 q 496 1176 490 1192 q 503 1157 501 1161 q 476 1122 497 1144 q 423 1079 456 1099 q 353 1060 390 1060 z "},"Œ":{"ha":822,"x_min":38,"x_max":794,"o":"m 550 101 l 789 101 q 788 36 789 61 q 783 6 788 11 q 768 0 779 0 l 457 0 l 457 57 q 289 -12 400 -12 q 142 32 196 -12 q 63 185 88 76 q 38 490 38 293 q 65 779 38 671 q 151 936 93 888 q 300 985 208 985 q 457 928 404 985 l 457 950 q 462 964 457 956 q 479 972 467 972 l 794 972 q 794 908 794 933 q 789 877 793 883 q 774 871 785 871 l 550 871 l 550 581 l 761 581 q 760 518 761 543 q 756 485 760 493 q 740 478 751 478 l 550 478 l 550 101 m 293 97 q 372 137 343 97 q 412 262 400 176 q 424 493 424 347 q 414 722 424 640 q 377 841 404 803 q 300 879 350 879 q 221 838 251 879 q 176 706 190 797 q 163 464 163 615 q 174 251 163 331 q 215 135 186 172 q 293 97 243 97 z "},"P":{"ha":501,"x_min":61,"x_max":476,"o":"m 221 972 q 415 907 353 972 q 476 699 476 842 q 406 466 476 538 q 222 394 336 394 l 172 394 l 172 22 q 167 6 172 10 q 135 1 163 1 q 61 0 107 0 l 61 950 q 66 967 61 963 q 83 972 71 972 l 221 972 m 233 499 q 324 548 294 499 q 353 711 353 597 q 327 832 353 790 q 242 874 301 874 l 172 874 l 172 499 l 233 499 z "},"Þ":{"ha":501,"x_min":61,"x_max":476,"o":"m 61 944 q 75 967 61 963 q 136 972 89 972 l 172 972 l 172 786 l 221 786 q 415 721 353 786 q 476 513 476 656 q 406 280 476 351 q 222 208 336 208 l 172 208 l 172 22 q 166 6 172 10 q 133 1 160 1 q 61 0 106 0 l 61 944 m 233 313 q 324 362 294 313 q 353 525 353 411 q 327 646 353 604 q 242 688 301 688 q 172 685 193 688 l 172 317 q 200 315 182 317 q 233 313 218 313 z "},"Q":{"ha":596,"x_min":42,"x_max":569,"o":"m 553 -74 q 565 -103 561 -85 q 569 -135 569 -121 q 530 -177 569 -164 q 444 -190 490 -190 q 331 -149 374 -190 q 264 -12 289 -107 q 134 41 182 -7 q 64 196 86 89 q 42 492 42 303 q 70 783 42 675 q 157 939 99 892 q 308 986 215 986 q 453 941 400 986 q 530 790 506 896 q 554 496 554 685 q 515 153 554 269 q 392 3 476 38 q 417 -74 400 -51 q 465 -97 433 -97 q 553 -74 517 -97 m 168 464 q 180 252 168 331 q 219 138 192 174 q 297 101 247 101 q 378 140 349 101 q 420 264 407 179 q 433 493 433 349 q 422 718 433 638 q 383 835 411 799 q 306 871 356 871 q 226 831 256 871 q 182 703 196 792 q 168 464 168 615 z "},"R":{"ha":517,"x_min":61,"x_max":486,"o":"m 356 425 q 438 267 400 367 q 486 25 476 167 q 476 3 486 8 q 429 -3 467 -3 q 364 0 414 -3 q 320 249 354 153 q 250 396 286 346 q 222 394 240 394 l 172 394 l 172 22 q 167 6 172 10 q 135 1 163 1 q 61 0 107 0 l 61 950 q 65 964 61 956 q 83 972 69 972 l 221 972 q 415 907 353 972 q 476 699 476 842 q 356 425 476 494 m 233 499 q 324 547 294 499 q 353 703 353 594 q 327 831 353 788 q 242 874 301 874 l 172 874 l 172 499 l 233 499 z "},"Ŕ":{"ha":517,"x_min":61,"x_max":486,"o":"m 356 425 q 438 267 400 367 q 486 25 476 167 q 476 3 486 8 q 429 -3 467 -3 q 364 0 414 -3 q 320 249 354 153 q 250 396 286 346 q 222 394 240 394 l 172 394 l 172 22 q 167 6 172 10 q 135 1 163 1 q 61 0 107 0 l 61 950 q 65 964 61 956 q 83 972 69 972 l 221 972 q 415 907 353 972 q 476 699 476 842 q 356 425 476 494 m 233 499 q 324 547 294 499 q 353 703 353 594 q 327 831 353 788 q 242 874 301 874 l 172 874 l 172 499 l 233 499 m 165 1056 q 144 1069 154 1056 q 129 1099 135 1083 q 122 1118 124 1114 q 233 1224 167 1168 q 308 1281 299 1281 q 340 1253 326 1281 q 360 1196 354 1226 q 272 1126 343 1178 q 165 1056 201 1075 z "},"Ř":{"ha":517,"x_min":61,"x_max":486,"o":"m 356 425 q 438 267 400 367 q 486 25 476 167 q 476 3 486 8 q 429 -3 467 -3 q 364 0 414 -3 q 320 249 354 153 q 250 396 286 346 q 222 394 240 394 l 172 394 l 172 22 q 167 6 172 10 q 135 1 163 1 q 61 0 107 0 l 61 950 q 65 964 61 956 q 83 972 69 972 l 221 972 q 415 907 353 972 q 476 699 476 842 q 356 425 476 494 m 233 499 q 324 547 294 499 q 353 703 353 594 q 327 831 353 788 q 242 874 301 874 l 172 874 l 172 499 l 233 499 m 240 1051 q 155 1115 222 1051 q 69 1206 88 1179 q 93 1253 78 1231 q 121 1276 108 1276 q 160 1250 132 1276 q 213 1194 188 1224 q 244 1157 238 1165 q 290 1215 267 1189 q 330 1255 314 1240 q 350 1274 346 1269 q 394 1222 394 1247 q 360 1168 394 1210 q 289 1089 326 1126 q 240 1051 251 1051 z "},"Ŗ":{"ha":517,"x_min":61,"x_max":486,"o":"m 356 425 q 438 267 400 367 q 486 25 476 167 q 476 3 486 8 q 429 -3 467 -3 q 364 0 414 -3 q 320 249 354 153 q 250 396 286 346 q 222 394 240 394 l 172 394 l 172 22 q 167 6 172 10 q 135 1 163 1 q 61 0 107 0 l 61 950 q 65 964 61 956 q 83 972 69 972 l 221 972 q 415 907 353 972 q 476 699 476 842 q 356 425 476 494 m 233 499 q 324 547 294 499 q 353 703 353 594 q 327 831 353 788 q 242 874 301 874 l 172 874 l 172 499 l 233 499 m 228 -365 q 183 -333 190 -365 q 213 -272 206 -296 q 224 -215 221 -247 q 190 -147 190 -193 q 210 -95 190 -115 q 261 -75 231 -75 q 336 -157 336 -75 q 315 -252 336 -204 q 268 -333 294 -300 q 228 -365 242 -365 z "},"S":{"ha":497,"x_min":35,"x_max":465,"o":"m 218 -14 q 83 11 131 -14 q 35 68 35 36 q 42 108 35 86 q 64 149 50 131 q 207 100 118 100 q 344 242 344 100 q 326 331 344 292 q 263 425 308 371 l 124 588 q 56 691 76 644 q 36 788 36 738 q 99 932 36 878 q 275 986 163 986 q 413 967 368 986 q 457 917 457 949 q 429 853 457 882 q 376 876 414 865 q 293 886 338 886 q 194 861 231 886 q 157 790 157 836 q 172 724 157 754 q 221 653 188 694 l 372 482 q 445 367 425 419 q 465 247 465 314 q 408 58 465 129 q 218 -14 350 -14 z "},"Ś":{"ha":497,"x_min":35,"x_max":465,"o":"m 218 -14 q 83 11 131 -14 q 35 68 35 36 q 42 108 35 86 q 64 149 50 131 q 207 100 118 100 q 344 242 344 100 q 326 331 344 292 q 263 425 308 371 l 124 588 q 56 691 76 644 q 36 788 36 738 q 99 932 36 878 q 275 986 163 986 q 413 967 368 986 q 457 917 457 949 q 429 853 457 882 q 376 876 414 865 q 293 886 338 886 q 194 861 231 886 q 157 790 157 836 q 172 724 157 754 q 221 653 188 694 l 372 482 q 445 367 425 419 q 465 247 465 314 q 408 58 465 129 q 218 -14 350 -14 m 182 1056 q 161 1069 171 1056 q 146 1099 151 1083 q 139 1118 140 1114 q 249 1224 183 1168 q 325 1281 315 1281 q 357 1253 343 1281 q 376 1196 371 1226 q 289 1126 360 1178 q 182 1056 218 1075 z "},"Š":{"ha":497,"x_min":35,"x_max":465,"o":"m 218 -14 q 83 11 131 -14 q 35 68 35 36 q 42 108 35 86 q 64 149 50 131 q 207 100 118 100 q 344 242 344 100 q 326 331 344 292 q 263 425 308 371 l 124 588 q 56 691 76 644 q 36 788 36 738 q 99 932 36 878 q 275 986 163 986 q 413 967 368 986 q 457 917 457 949 q 429 853 457 882 q 376 876 414 865 q 293 886 338 886 q 194 861 231 886 q 157 790 157 836 q 172 724 157 754 q 221 653 188 694 l 372 482 q 445 367 425 419 q 465 247 465 314 q 408 58 465 129 q 218 -14 350 -14 m 257 1051 q 172 1115 239 1051 q 86 1206 104 1179 q 110 1253 94 1231 q 138 1276 125 1276 q 176 1250 149 1276 q 229 1194 204 1224 q 261 1157 254 1165 q 307 1215 283 1189 q 347 1255 331 1240 q 367 1274 363 1269 q 411 1222 411 1247 q 377 1168 411 1210 q 306 1089 343 1126 q 257 1051 268 1051 z "},"Ş":{"ha":497,"x_min":35,"x_max":465,"o":"m 465 247 q 419 73 465 142 q 269 -11 374 4 l 256 -82 q 279 -81 257 -81 q 327 -103 307 -81 q 347 -169 347 -125 q 316 -254 347 -222 q 236 -286 285 -286 q 184 -278 210 -286 q 158 -268 158 -269 q 165 -239 160 -261 q 176 -211 171 -217 q 202 -217 181 -207 q 239 -226 224 -226 q 282 -179 282 -226 q 240 -132 282 -132 q 203 -135 218 -132 q 183 -140 188 -139 l 207 -14 q 80 13 125 -12 q 35 68 35 38 q 42 108 35 86 q 64 149 50 131 q 207 100 118 100 q 344 242 344 100 q 326 331 344 292 q 263 425 308 371 l 124 588 q 56 691 76 644 q 36 788 36 738 q 99 932 36 878 q 275 986 163 986 q 413 967 368 986 q 457 917 457 949 q 429 853 457 882 q 376 876 414 865 q 293 886 338 886 q 194 861 231 886 q 157 790 157 836 q 172 724 157 754 q 221 653 188 694 l 372 482 q 445 367 425 419 q 465 247 465 314 z "},"Ș":{"ha":497,"x_min":35,"x_max":465,"o":"m 218 -14 q 83 11 131 -14 q 35 68 35 36 q 42 108 35 86 q 64 149 50 131 q 207 100 118 100 q 344 242 344 100 q 326 331 344 292 q 263 425 308 371 l 124 588 q 56 691 76 644 q 36 788 36 738 q 99 932 36 878 q 275 986 163 986 q 413 967 368 986 q 457 917 457 949 q 429 853 457 882 q 376 876 414 865 q 293 886 338 886 q 194 861 231 886 q 157 790 157 836 q 172 724 157 754 q 221 653 188 694 l 372 482 q 445 367 425 419 q 465 247 465 314 q 408 58 465 129 q 218 -14 350 -14 m 217 -365 q 172 -333 179 -365 q 202 -272 194 -296 q 213 -215 210 -247 q 179 -147 179 -193 q 199 -95 179 -115 q 250 -75 219 -75 q 325 -157 325 -75 q 304 -252 325 -204 q 257 -333 283 -300 q 217 -365 231 -365 z "},"T":{"ha":518,"x_min":11,"x_max":507,"o":"m 507 972 l 507 890 q 501 872 507 876 q 483 867 496 867 l 313 867 l 313 22 q 307 6 313 10 q 274 1 301 1 q 200 0 246 0 l 200 867 l 11 867 l 11 950 q 35 972 11 972 l 507 972 z "},"Ť":{"ha":518,"x_min":11,"x_max":507,"o":"m 507 972 l 507 890 q 501 872 507 876 q 483 867 496 867 l 313 867 l 313 22 q 307 6 313 10 q 274 1 301 1 q 200 0 246 0 l 200 867 l 11 867 l 11 950 q 35 972 11 972 l 507 972 m 267 1051 q 181 1115 249 1051 q 96 1206 114 1179 q 119 1253 104 1231 q 147 1276 135 1276 q 186 1250 158 1276 q 239 1194 214 1224 q 271 1157 264 1165 q 317 1215 293 1189 q 356 1255 340 1240 q 376 1274 372 1269 q 421 1222 421 1247 q 387 1168 421 1210 q 315 1089 353 1126 q 267 1051 278 1051 z "},"Ţ":{"ha":518,"x_min":11,"x_max":507,"o":"m 507 972 l 507 890 q 501 872 507 876 q 483 867 496 867 l 313 867 l 313 22 q 307 7 313 11 q 281 1 301 3 l 264 -82 q 288 -81 265 -81 q 335 -103 315 -81 q 356 -169 356 -125 q 324 -254 356 -222 q 244 -286 293 -286 q 192 -278 218 -286 q 167 -268 167 -269 q 174 -239 168 -261 q 185 -211 179 -217 q 210 -217 189 -207 q 247 -226 232 -226 q 290 -179 290 -226 q 249 -132 290 -132 q 211 -135 226 -132 q 192 -140 196 -139 l 218 0 l 200 0 l 200 867 l 11 867 l 11 950 q 35 972 11 972 l 507 972 z "},"Ț":{"ha":518,"x_min":11,"x_max":507,"o":"m 507 972 l 507 890 q 501 872 507 876 q 483 867 496 867 l 313 867 l 313 22 q 307 6 313 10 q 274 1 301 1 q 200 0 246 0 l 200 867 l 11 867 l 11 950 q 35 972 11 972 l 507 972 m 225 -365 q 181 -333 188 -365 q 210 -272 203 -296 q 221 -215 218 -247 q 188 -147 188 -193 q 208 -95 188 -115 q 258 -75 228 -75 q 333 -157 333 -75 q 313 -252 333 -204 q 265 -333 292 -300 q 225 -365 239 -365 z "},"U":{"ha":607,"x_min":61,"x_max":547,"o":"m 311 -14 q 151 25 206 -14 q 78 127 96 64 q 61 285 61 190 l 61 949 q 66 965 61 961 q 99 971 71 969 q 176 972 128 972 l 176 281 q 203 138 176 185 q 311 90 229 90 q 381 97 346 90 q 433 114 415 104 l 433 949 q 439 965 433 961 q 472 971 444 969 q 547 972 500 972 l 547 36 q 452 1 518 17 q 311 -14 386 -14 z "},"Ú":{"ha":607,"x_min":61,"x_max":547,"o":"m 311 -14 q 151 25 206 -14 q 78 127 96 64 q 61 285 61 190 l 61 949 q 66 965 61 961 q 99 971 71 969 q 176 972 128 972 l 176 281 q 203 138 176 185 q 311 90 229 90 q 381 97 346 90 q 433 114 415 104 l 433 949 q 439 965 433 961 q 472 971 444 969 q 547 972 500 972 l 547 36 q 452 1 518 17 q 311 -14 386 -14 m 238 1056 q 217 1069 226 1056 q 201 1099 207 1083 q 194 1118 196 1114 q 305 1224 239 1168 q 381 1281 371 1281 q 413 1253 399 1281 q 432 1196 426 1226 q 344 1126 415 1178 q 238 1056 274 1075 z "},"Û":{"ha":607,"x_min":61,"x_max":547,"o":"m 311 -14 q 151 25 206 -14 q 78 127 96 64 q 61 285 61 190 l 61 949 q 66 965 61 961 q 99 971 71 969 q 176 972 128 972 l 176 281 q 203 138 176 185 q 311 90 229 90 q 381 97 346 90 q 433 114 415 104 l 433 949 q 439 965 433 961 q 472 971 444 969 q 547 972 500 972 l 547 36 q 452 1 518 17 q 311 -14 386 -14 m 400 1057 q 353 1106 388 1069 q 308 1164 319 1143 q 282 1131 303 1156 q 238 1082 261 1106 q 204 1058 215 1058 q 128 1090 154 1058 l 286 1261 q 310 1265 297 1265 q 344 1249 329 1265 q 387 1204 354 1239 q 449 1134 419 1169 q 479 1089 479 1099 q 456 1066 479 1075 q 400 1057 432 1057 z "},"Ü":{"ha":607,"x_min":61,"x_max":547,"o":"m 311 -14 q 151 25 206 -14 q 78 127 96 64 q 61 285 61 190 l 61 949 q 66 965 61 961 q 99 971 71 969 q 176 972 128 972 l 176 281 q 203 138 176 185 q 311 90 229 90 q 381 97 346 90 q 433 114 415 104 l 433 949 q 439 965 433 961 q 472 971 444 969 q 547 972 500 972 l 547 36 q 452 1 518 17 q 311 -14 386 -14 m 218 1072 q 177 1092 190 1074 q 164 1156 164 1111 q 179 1214 164 1193 q 225 1235 194 1235 q 267 1217 256 1235 q 279 1158 279 1200 q 264 1094 279 1117 q 218 1072 249 1072 m 383 1072 q 343 1091 357 1074 q 329 1150 329 1108 q 390 1235 329 1235 q 433 1217 421 1235 q 444 1158 444 1200 q 383 1072 442 1072 z "},"Ụ":{"ha":607,"x_min":61,"x_max":547,"o":"m 311 -14 q 151 25 206 -14 q 78 127 96 64 q 61 285 61 190 l 61 949 q 66 965 61 961 q 99 971 71 969 q 176 972 128 972 l 176 281 q 203 138 176 185 q 311 90 229 90 q 381 97 346 90 q 433 114 415 104 l 433 949 q 439 965 433 961 q 472 971 444 969 q 547 972 500 972 l 547 36 q 452 1 518 17 q 311 -14 386 -14 m 301 -246 q 265 -230 278 -246 q 253 -175 253 -214 q 310 -96 253 -96 q 347 -112 336 -96 q 358 -167 358 -128 q 344 -225 358 -204 q 301 -246 329 -246 z "},"Ù":{"ha":607,"x_min":61,"x_max":547,"o":"m 311 -14 q 151 25 206 -14 q 78 127 96 64 q 61 285 61 190 l 61 949 q 66 965 61 961 q 99 971 71 969 q 176 972 128 972 l 176 281 q 203 138 176 185 q 311 90 229 90 q 381 97 346 90 q 433 114 415 104 l 433 949 q 439 965 433 961 q 472 971 444 969 q 547 972 500 972 l 547 36 q 452 1 518 17 q 311 -14 386 -14 m 389 1046 q 281 1117 351 1067 q 194 1188 210 1168 q 214 1245 200 1218 q 246 1272 228 1272 q 322 1215 256 1272 q 432 1108 389 1158 q 425 1089 431 1104 q 410 1060 419 1074 q 389 1046 400 1046 z "},"Ủ":{"ha":607,"x_min":61,"x_max":547,"o":"m 311 -14 q 151 25 206 -14 q 78 127 96 64 q 61 285 61 190 l 61 949 q 66 965 61 961 q 99 971 71 969 q 176 972 128 972 l 176 281 q 203 138 176 185 q 311 90 229 90 q 381 97 346 90 q 433 114 415 104 l 433 949 q 439 965 433 961 q 472 971 444 969 q 547 972 500 972 l 547 36 q 452 1 518 17 q 311 -14 386 -14 m 258 1025 q 258 1031 258 1026 q 257 1042 257 1035 q 261 1064 257 1057 q 275 1083 265 1075 q 286 1092 285 1090 q 308 1116 301 1106 q 315 1147 315 1126 q 260 1206 315 1206 q 206 1189 229 1206 l 206 1263 q 222 1275 206 1268 q 258 1282 238 1282 q 369 1247 335 1282 q 403 1158 403 1213 q 389 1106 403 1125 q 358 1076 375 1088 q 335 1058 342 1064 q 327 1042 329 1053 q 325 1026 325 1031 q 285 1024 322 1024 l 258 1025 z "},"Ư":{"ha":607,"x_min":61,"x_max":642,"o":"m 640 1054 q 620 974 642 1014 q 547 913 599 933 l 547 36 q 452 1 518 17 q 311 -14 386 -14 q 151 25 206 -14 q 78 127 96 64 q 61 285 61 190 l 61 949 q 66 965 61 961 q 99 971 71 969 q 176 972 128 972 l 176 281 q 203 138 176 185 q 311 90 229 90 q 381 97 346 90 q 433 114 415 104 l 433 949 q 442 967 433 963 q 486 972 450 971 q 535 999 521 978 q 549 1060 549 1021 q 559 1069 549 1065 q 585 1072 569 1072 q 623 1067 606 1072 q 640 1054 640 1063 z "},"Ứ":{"ha":607,"x_min":61,"x_max":640,"o":"m 640 1054 q 620 974 642 1014 q 547 913 599 933 l 547 36 q 452 1 518 17 q 311 -14 386 -14 q 151 25 206 -14 q 78 127 96 64 q 61 285 61 190 l 61 949 q 66 965 61 961 q 99 971 71 969 q 176 972 128 972 l 176 281 q 203 138 176 185 q 311 90 229 90 q 381 97 346 90 q 433 114 415 104 l 433 949 q 442 967 433 963 q 486 972 450 971 q 535 999 521 978 q 549 1060 549 1021 q 559 1069 549 1065 q 585 1072 569 1072 q 623 1067 606 1072 q 640 1054 640 1063 m 228 1056 q 207 1069 217 1056 q 192 1099 197 1083 q 185 1118 186 1114 q 295 1224 229 1168 q 371 1281 361 1281 q 403 1253 389 1281 q 422 1196 417 1226 q 335 1126 406 1178 q 228 1056 264 1075 z "},"Ự":{"ha":607,"x_min":61,"x_max":640,"o":"m 640 1054 q 620 974 642 1014 q 547 913 599 933 l 547 36 q 452 1 518 17 q 311 -14 386 -14 q 151 25 206 -14 q 78 127 96 64 q 61 285 61 190 l 61 949 q 66 965 61 961 q 99 971 71 969 q 176 972 128 972 l 176 281 q 203 138 176 185 q 311 90 229 90 q 381 97 346 90 q 433 114 415 104 l 433 949 q 442 967 433 963 q 486 972 450 971 q 535 999 521 978 q 549 1060 549 1021 q 559 1069 549 1065 q 585 1072 569 1072 q 623 1067 606 1072 q 640 1054 640 1063 m 301 -246 q 265 -230 278 -246 q 253 -175 253 -214 q 310 -96 253 -96 q 347 -112 336 -96 q 358 -167 358 -128 q 344 -225 358 -204 q 301 -246 329 -246 z "},"Ừ":{"ha":607,"x_min":61,"x_max":640,"o":"m 640 1054 q 620 974 642 1014 q 547 913 599 933 l 547 36 q 452 1 518 17 q 311 -14 386 -14 q 151 25 206 -14 q 78 127 96 64 q 61 285 61 190 l 61 949 q 66 965 61 961 q 99 971 71 969 q 176 972 128 972 l 176 281 q 203 138 176 185 q 311 90 229 90 q 381 97 346 90 q 433 114 415 104 l 433 949 q 442 967 433 963 q 486 972 450 971 q 535 999 521 978 q 549 1060 549 1021 q 559 1069 549 1065 q 585 1072 569 1072 q 623 1067 606 1072 q 640 1054 640 1063 m 379 1046 q 271 1117 342 1067 q 185 1188 200 1168 q 204 1245 190 1218 q 236 1272 218 1272 q 313 1215 246 1272 q 422 1108 379 1158 q 415 1089 421 1104 q 400 1060 410 1074 q 379 1046 390 1046 z "},"Ử":{"ha":607,"x_min":61,"x_max":640,"o":"m 640 1054 q 620 974 642 1014 q 547 913 599 933 l 547 36 q 452 1 518 17 q 311 -14 386 -14 q 151 25 206 -14 q 78 127 96 64 q 61 285 61 190 l 61 949 q 66 965 61 961 q 99 971 71 969 q 176 972 128 972 l 176 281 q 203 138 176 185 q 311 90 229 90 q 381 97 346 90 q 433 114 415 104 l 433 949 q 442 967 433 963 q 486 972 450 971 q 535 999 521 978 q 549 1060 549 1021 q 559 1069 549 1065 q 585 1072 569 1072 q 623 1067 606 1072 q 640 1054 640 1063 m 258 1025 q 258 1031 258 1026 q 257 1042 257 1035 q 261 1064 257 1057 q 275 1083 265 1075 q 286 1092 285 1090 q 308 1116 301 1106 q 315 1147 315 1126 q 260 1206 315 1206 q 206 1189 229 1206 l 206 1263 q 222 1275 206 1268 q 258 1282 238 1282 q 369 1247 335 1282 q 403 1158 403 1213 q 389 1106 403 1125 q 358 1076 375 1088 q 335 1058 342 1064 q 327 1042 329 1053 q 325 1026 325 1031 q 285 1024 322 1024 l 258 1025 z "},"Ữ":{"ha":607,"x_min":61,"x_max":640,"o":"m 640 1054 q 620 974 642 1014 q 547 913 599 933 l 547 36 q 452 1 518 17 q 311 -14 386 -14 q 151 25 206 -14 q 78 127 96 64 q 61 285 61 190 l 61 949 q 66 965 61 961 q 99 971 71 969 q 176 972 128 972 l 176 281 q 203 138 176 185 q 311 90 229 90 q 381 97 346 90 q 433 114 415 104 l 433 949 q 442 967 433 963 q 486 972 450 971 q 535 999 521 978 q 549 1060 549 1021 q 559 1069 549 1065 q 585 1072 569 1072 q 623 1067 606 1072 q 640 1054 640 1063 m 358 1060 q 315 1069 331 1060 q 285 1097 300 1079 q 261 1119 271 1113 q 236 1126 251 1126 q 203 1117 217 1126 q 176 1090 190 1107 q 154 1072 161 1072 q 128 1085 140 1072 q 109 1110 117 1097 q 100 1128 101 1124 q 174 1207 133 1182 q 257 1232 215 1232 q 290 1224 278 1232 q 319 1199 303 1215 q 347 1174 335 1182 q 378 1165 360 1165 q 420 1176 406 1165 q 448 1203 435 1186 q 468 1219 461 1219 q 488 1206 479 1219 q 501 1176 496 1192 q 508 1157 507 1161 q 482 1122 503 1144 q 428 1079 461 1099 q 358 1060 396 1060 z "},"Ű":{"ha":607,"x_min":61,"x_max":547,"o":"m 311 -14 q 151 25 206 -14 q 78 127 96 64 q 61 285 61 190 l 61 949 q 66 965 61 961 q 99 971 71 969 q 176 972 128 972 l 176 281 q 203 138 176 185 q 311 90 229 90 q 381 97 346 90 q 433 114 415 104 l 433 949 q 439 965 433 961 q 472 971 444 969 q 547 972 500 972 l 547 36 q 452 1 518 17 q 311 -14 386 -14 m 203 1046 q 178 1053 192 1043 q 156 1076 165 1064 q 143 1093 146 1089 q 215 1210 169 1146 q 271 1278 261 1274 q 308 1260 288 1282 q 342 1211 329 1238 q 282 1131 332 1190 q 203 1046 232 1072 m 378 1046 q 353 1053 367 1043 q 331 1076 340 1064 q 319 1093 322 1089 q 390 1209 344 1144 q 444 1278 436 1274 q 483 1260 463 1282 q 517 1211 504 1239 q 456 1131 507 1190 q 378 1046 406 1072 z "},"Ū":{"ha":607,"x_min":61,"x_max":547,"o":"m 311 -14 q 151 25 206 -14 q 78 127 96 64 q 61 285 61 190 l 61 949 q 66 965 61 961 q 99 971 71 969 q 176 972 128 972 l 176 281 q 203 138 176 185 q 311 90 229 90 q 381 97 346 90 q 433 114 415 104 l 433 949 q 439 965 433 961 q 472 971 444 969 q 547 972 500 972 l 547 36 q 452 1 518 17 q 311 -14 386 -14 m 125 1093 q 118 1144 118 1113 q 131 1184 118 1169 q 164 1199 143 1199 l 479 1199 q 489 1151 489 1175 q 478 1110 489 1126 q 447 1093 467 1093 l 125 1093 z "},"Ų":{"ha":607,"x_min":61,"x_max":547,"o":"m 457 -271 q 343 -153 343 -271 q 360 -79 343 -119 q 403 -6 376 -39 q 311 -14 364 -14 q 151 25 206 -14 q 78 127 96 64 q 61 285 61 190 l 61 949 q 66 965 61 961 q 99 971 71 969 q 176 972 128 972 l 176 281 q 203 138 176 185 q 311 90 229 90 q 381 97 346 90 q 433 114 415 104 l 433 949 q 439 965 433 961 q 472 971 444 969 q 547 972 500 972 l 547 36 q 474 -49 504 3 q 443 -139 443 -100 q 453 -178 443 -165 q 489 -190 464 -190 q 528 -179 510 -190 q 540 -226 540 -207 q 517 -260 540 -249 q 457 -271 494 -271 z "},"Ů":{"ha":607,"x_min":61,"x_max":547,"o":"m 311 -14 q 151 25 206 -14 q 78 127 96 64 q 61 285 61 190 l 61 949 q 66 965 61 961 q 99 971 71 969 q 176 972 128 972 l 176 281 q 203 138 176 185 q 311 90 229 90 q 381 97 346 90 q 433 114 415 104 l 433 949 q 439 965 433 961 q 472 971 444 969 q 547 972 500 972 l 547 36 q 452 1 518 17 q 311 -14 386 -14 m 300 1032 q 203 1062 235 1032 q 171 1165 171 1092 q 207 1267 171 1233 q 310 1301 243 1301 q 407 1272 376 1301 q 438 1167 438 1242 q 402 1066 438 1100 q 300 1032 367 1032 m 303 1107 q 360 1167 360 1107 q 347 1210 360 1197 q 310 1224 335 1224 q 250 1164 250 1224 q 263 1122 250 1136 q 303 1107 276 1107 z "},"Ũ":{"ha":607,"x_min":61,"x_max":547,"o":"m 311 -14 q 151 25 206 -14 q 78 127 96 64 q 61 285 61 190 l 61 949 q 66 965 61 961 q 99 971 71 969 q 176 972 128 972 l 176 281 q 203 138 176 185 q 311 90 229 90 q 381 97 346 90 q 433 114 415 104 l 433 949 q 439 965 433 961 q 472 971 444 969 q 547 972 500 972 l 547 36 q 452 1 518 17 q 311 -14 386 -14 m 358 1060 q 315 1069 331 1060 q 285 1097 300 1079 q 261 1119 271 1113 q 236 1126 251 1126 q 203 1117 217 1126 q 176 1090 190 1107 q 154 1072 161 1072 q 128 1085 140 1072 q 109 1110 117 1097 q 100 1128 101 1124 q 174 1207 133 1182 q 257 1232 215 1232 q 290 1224 278 1232 q 319 1199 303 1215 q 347 1174 335 1182 q 378 1165 360 1165 q 420 1176 406 1165 q 448 1203 435 1186 q 468 1219 461 1219 q 488 1206 479 1219 q 501 1176 496 1192 q 508 1157 507 1161 q 482 1122 503 1144 q 428 1079 461 1099 q 358 1060 396 1060 z "},"V":{"ha":583,"x_min":7,"x_max":578,"o":"m 269 -10 q 228 11 244 -10 q 203 71 213 32 q 101 524 169 213 q 10 939 32 835 q 7 957 7 953 q 13 969 7 965 q 33 972 18 972 l 125 972 l 242 433 q 288 163 260 342 l 297 96 q 347 433 322 299 l 451 939 q 461 965 456 957 q 481 972 467 972 l 578 972 l 364 -4 q 269 -10 324 -10 z "},"W":{"ha":908,"x_min":8,"x_max":903,"o":"m 903 972 l 719 -4 q 683 -8 707 -6 q 626 -11 660 -11 q 567 68 582 -11 l 494 383 q 451 699 479 464 q 411 385 425 474 l 335 -4 q 232 -10 289 -10 q 175 75 194 -10 q 88 528 146 219 q 10 939 29 836 q 8 954 8 944 q 14 968 8 964 q 33 972 19 972 l 125 972 l 226 432 q 268 122 247 306 l 275 122 q 311 432 282 260 l 397 892 q 406 918 401 911 q 426 925 411 925 l 506 925 l 604 432 q 642 164 625 322 l 646 122 l 654 122 q 689 432 669 306 l 779 939 q 787 965 782 957 q 807 972 792 972 l 903 972 z "},"Ẃ":{"ha":908,"x_min":8,"x_max":903,"o":"m 903 972 l 719 -4 q 683 -8 707 -6 q 626 -11 660 -11 q 567 68 582 -11 l 494 383 q 451 699 479 464 q 411 385 425 474 l 335 -4 q 232 -10 289 -10 q 175 75 194 -10 q 88 528 146 219 q 10 939 29 836 q 8 954 8 944 q 14 968 8 964 q 33 972 19 972 l 125 972 l 226 432 q 268 122 247 306 l 275 122 q 311 432 282 260 l 397 892 q 406 918 401 911 q 426 925 411 925 l 506 925 l 604 432 q 642 164 625 322 l 646 122 l 654 122 q 689 432 669 306 l 779 939 q 787 965 782 957 q 807 972 792 972 l 903 972 m 388 1056 q 367 1069 376 1056 q 351 1099 357 1083 q 344 1118 346 1114 q 455 1224 389 1168 q 531 1281 521 1281 q 563 1253 549 1281 q 582 1196 576 1226 q 494 1126 565 1178 q 388 1056 424 1075 z "},"Ŵ":{"ha":908,"x_min":8,"x_max":903,"o":"m 903 972 l 719 -4 q 683 -8 707 -6 q 626 -11 660 -11 q 567 68 582 -11 l 494 383 q 451 699 479 464 q 411 385 425 474 l 335 -4 q 232 -10 289 -10 q 175 75 194 -10 q 88 528 146 219 q 10 939 29 836 q 8 954 8 944 q 14 968 8 964 q 33 972 19 972 l 125 972 l 226 432 q 268 122 247 306 l 275 122 q 311 432 282 260 l 397 892 q 406 918 401 911 q 426 925 411 925 l 506 925 l 604 432 q 642 164 625 322 l 646 122 l 654 122 q 689 432 669 306 l 779 939 q 787 965 782 957 q 807 972 792 972 l 903 972 m 550 1057 q 503 1106 538 1069 q 458 1164 469 1143 q 432 1131 453 1156 q 388 1082 411 1106 q 354 1058 365 1058 q 278 1090 304 1058 l 436 1261 q 460 1265 447 1265 q 494 1249 479 1265 q 537 1204 504 1239 q 599 1134 569 1169 q 629 1089 629 1099 q 606 1066 629 1075 q 550 1057 582 1057 z "},"Ẅ":{"ha":908,"x_min":8,"x_max":903,"o":"m 903 972 l 719 -4 q 683 -8 707 -6 q 626 -11 660 -11 q 567 68 582 -11 l 494 383 q 451 699 479 464 q 411 385 425 474 l 335 -4 q 232 -10 289 -10 q 175 75 194 -10 q 88 528 146 219 q 10 939 29 836 q 8 954 8 944 q 14 968 8 964 q 33 972 19 972 l 125 972 l 226 432 q 268 122 247 306 l 275 122 q 311 432 282 260 l 397 892 q 406 918 401 911 q 426 925 411 925 l 506 925 l 604 432 q 642 164 625 322 l 646 122 l 654 122 q 689 432 669 306 l 779 939 q 787 965 782 957 q 807 972 792 972 l 903 972 m 368 1072 q 327 1092 340 1074 q 314 1156 314 1111 q 329 1214 314 1193 q 375 1235 344 1235 q 417 1217 406 1235 q 429 1158 429 1200 q 414 1094 429 1117 q 368 1072 399 1072 m 533 1072 q 493 1091 507 1074 q 479 1150 479 1108 q 540 1235 479 1235 q 583 1217 571 1235 q 594 1158 594 1200 q 533 1072 592 1072 z "},"Ẁ":{"ha":908,"x_min":8,"x_max":903,"o":"m 903 972 l 719 -4 q 683 -8 707 -6 q 626 -11 660 -11 q 567 68 582 -11 l 494 383 q 451 699 479 464 q 411 385 425 474 l 335 -4 q 232 -10 289 -10 q 175 75 194 -10 q 88 528 146 219 q 10 939 29 836 q 8 954 8 944 q 14 968 8 964 q 33 972 19 972 l 125 972 l 226 432 q 268 122 247 306 l 275 122 q 311 432 282 260 l 397 892 q 406 918 401 911 q 426 925 411 925 l 506 925 l 604 432 q 642 164 625 322 l 646 122 l 654 122 q 689 432 669 306 l 779 939 q 787 965 782 957 q 807 972 792 972 l 903 972 m 539 1046 q 431 1117 501 1067 q 344 1188 360 1168 q 364 1245 350 1218 q 396 1272 378 1272 q 472 1215 406 1272 q 582 1108 539 1158 q 575 1089 581 1104 q 560 1060 569 1074 q 539 1046 550 1046 z "},"X":{"ha":589,"x_min":13,"x_max":575,"o":"m 572 18 q 575 10 575 13 q 560 0 575 0 l 438 0 l 363 188 q 288 393 324 286 q 210 188 247 275 l 135 14 q 124 3 129 6 q 110 0 119 0 l 13 0 l 225 501 l 50 953 q 52 967 46 964 q 92 972 58 971 q 182 972 126 972 l 239 814 q 308 606 285 682 q 376 814 344 722 l 431 954 q 440 967 433 964 q 474 972 446 971 q 551 972 503 972 l 372 511 l 572 18 z "},"Y":{"ha":506,"x_min":6,"x_max":500,"o":"m 313 22 q 308 6 313 10 q 275 1 303 1 q 200 0 247 0 l 200 396 l 8 954 q 11 967 6 964 q 49 972 17 971 q 135 972 81 972 l 190 782 q 234 619 211 717 q 260 490 257 522 q 286 619 263 521 q 331 782 310 717 l 379 951 q 388 967 382 963 q 423 972 394 971 q 500 972 451 972 l 313 403 l 313 22 z "},"Ý":{"ha":506,"x_min":7,"x_max":500,"o":"m 313 22 q 308 6 313 10 q 275 1 303 1 q 200 0 247 0 l 200 396 l 8 954 q 11 967 6 964 q 49 972 17 971 q 135 972 81 972 l 190 782 q 234 619 211 717 q 260 490 257 522 q 286 619 263 521 q 331 782 310 717 l 379 951 q 388 967 382 963 q 423 972 394 971 q 500 972 451 972 l 313 403 l 313 22 m 186 1056 q 165 1069 175 1056 q 150 1099 156 1083 q 143 1118 144 1114 q 253 1224 188 1168 q 329 1281 319 1281 q 361 1253 347 1281 q 381 1196 375 1226 q 293 1126 364 1178 q 186 1056 222 1075 z "},"Ŷ":{"ha":506,"x_min":7,"x_max":500,"o":"m 313 22 q 308 6 313 10 q 275 1 303 1 q 200 0 247 0 l 200 396 l 8 954 q 11 967 6 964 q 49 972 17 971 q 135 972 81 972 l 190 782 q 234 619 211 717 q 260 490 257 522 q 286 619 263 521 q 331 782 310 717 l 379 951 q 388 967 382 963 q 423 972 394 971 q 500 972 451 972 l 313 403 l 313 22 m 349 1057 q 302 1106 336 1069 q 257 1164 268 1143 q 231 1131 251 1156 q 187 1082 210 1106 q 153 1058 164 1058 q 76 1090 103 1058 l 235 1261 q 258 1265 246 1265 q 293 1249 278 1265 q 335 1204 303 1239 q 398 1134 368 1169 q 428 1089 428 1099 q 404 1066 428 1075 q 349 1057 381 1057 z "},"Ÿ":{"ha":506,"x_min":7,"x_max":500,"o":"m 313 22 q 308 6 313 10 q 275 1 303 1 q 200 0 247 0 l 200 396 l 8 954 q 11 967 6 964 q 49 972 17 971 q 135 972 81 972 l 190 782 q 234 619 211 717 q 260 490 257 522 q 286 619 263 521 q 331 782 310 717 l 379 951 q 388 967 382 963 q 423 972 394 971 q 500 972 451 972 l 313 403 l 313 22 m 167 1072 q 126 1092 139 1074 q 113 1156 113 1111 q 128 1214 113 1193 q 174 1235 143 1235 q 216 1217 204 1235 q 228 1158 228 1200 q 213 1094 228 1117 q 167 1072 197 1072 m 332 1072 q 292 1091 306 1074 q 278 1150 278 1108 q 339 1235 278 1235 q 381 1217 369 1235 q 393 1158 393 1200 q 332 1072 390 1072 z "},"Ỵ":{"ha":506,"x_min":7,"x_max":500,"o":"m 313 22 q 308 6 313 10 q 275 1 303 1 q 200 0 247 0 l 200 396 l 8 954 q 11 967 6 964 q 49 972 17 971 q 135 972 81 972 l 190 782 q 234 619 211 717 q 260 490 257 522 q 286 619 263 521 q 331 782 310 717 l 379 951 q 388 967 382 963 q 423 972 394 971 q 500 972 451 972 l 313 403 l 313 22 m 250 -246 q 214 -230 226 -246 q 201 -175 201 -214 q 258 -96 201 -96 q 296 -112 285 -96 q 307 -167 307 -128 q 292 -225 307 -204 q 250 -246 278 -246 z "},"Ỳ":{"ha":506,"x_min":7,"x_max":500,"o":"m 313 22 q 308 6 313 10 q 275 1 303 1 q 200 0 247 0 l 200 396 l 8 954 q 11 967 6 964 q 49 972 17 971 q 135 972 81 972 l 190 782 q 234 619 211 717 q 260 490 257 522 q 286 619 263 521 q 331 782 310 717 l 379 951 q 388 967 382 963 q 423 972 394 971 q 500 972 451 972 l 313 403 l 313 22 m 338 1046 q 229 1117 300 1067 q 143 1188 158 1168 q 163 1245 149 1218 q 194 1272 176 1272 q 271 1215 204 1272 q 381 1108 338 1158 q 374 1089 379 1104 q 358 1060 368 1074 q 338 1046 349 1046 z "},"Ỷ":{"ha":506,"x_min":7,"x_max":500,"o":"m 313 22 q 308 6 313 10 q 275 1 303 1 q 200 0 247 0 l 200 396 l 8 954 q 11 967 6 964 q 49 972 17 971 q 135 972 81 972 l 190 782 q 234 619 211 717 q 260 490 257 522 q 286 619 263 521 q 331 782 310 717 l 379 951 q 388 967 382 963 q 423 972 394 971 q 500 972 451 972 l 313 403 l 313 22 m 207 1025 q 206 1031 207 1026 q 206 1042 206 1035 q 210 1064 206 1057 q 224 1083 214 1075 q 235 1092 233 1090 q 257 1116 250 1106 q 264 1147 264 1126 q 208 1206 264 1206 q 154 1189 178 1206 l 154 1263 q 170 1275 154 1268 q 207 1282 186 1282 q 317 1247 283 1282 q 351 1158 351 1213 q 338 1106 351 1125 q 307 1076 324 1088 q 283 1058 290 1064 q 276 1042 278 1053 q 274 1026 274 1031 q 233 1024 271 1024 l 207 1025 z "},"Ỹ":{"ha":506,"x_min":7,"x_max":500,"o":"m 313 22 q 308 6 313 10 q 275 1 303 1 q 200 0 247 0 l 200 396 l 8 954 q 11 967 6 964 q 49 972 17 971 q 135 972 81 972 l 190 782 q 234 619 211 717 q 260 490 257 522 q 286 619 263 521 q 331 782 310 717 l 379 951 q 388 967 382 963 q 423 972 394 971 q 500 972 451 972 l 313 403 l 313 22 m 307 1060 q 264 1069 279 1060 q 233 1097 249 1079 q 210 1119 219 1113 q 185 1126 200 1126 q 152 1117 165 1126 q 124 1090 139 1107 q 103 1072 110 1072 q 77 1085 89 1072 q 58 1110 65 1097 q 49 1128 50 1124 q 123 1207 82 1182 q 206 1232 164 1232 q 239 1224 226 1232 q 268 1199 251 1215 q 296 1174 283 1182 q 326 1165 308 1165 q 369 1176 354 1165 q 397 1203 383 1186 q 417 1219 410 1219 q 436 1206 428 1219 q 450 1176 444 1192 q 457 1157 456 1161 q 431 1122 451 1144 q 377 1079 410 1099 q 307 1060 344 1060 z "},"Z":{"ha":535,"x_min":26,"x_max":501,"o":"m 44 0 q 26 43 26 15 q 38 93 26 69 l 371 872 l 111 872 q 51 868 68 872 l 51 949 q 58 966 51 960 q 75 972 64 972 l 489 972 q 500 936 500 957 q 489 885 500 911 l 150 100 l 419 100 q 501 111 476 100 l 501 22 q 479 0 501 0 l 44 0 z "},"Ź":{"ha":535,"x_min":26,"x_max":501,"o":"m 44 0 q 26 43 26 15 q 38 93 26 69 l 371 872 l 111 872 q 51 868 68 872 l 51 949 q 58 966 51 960 q 75 972 64 972 l 489 972 q 500 936 500 957 q 489 885 500 911 l 150 100 l 419 100 q 501 111 476 100 l 501 22 q 479 0 501 0 l 44 0 m 201 1056 q 181 1069 190 1056 q 165 1099 171 1083 q 158 1118 160 1114 q 269 1224 203 1168 q 344 1281 335 1281 q 376 1253 363 1281 q 396 1196 390 1226 q 308 1126 379 1178 q 201 1056 238 1075 z "},"Ž":{"ha":535,"x_min":26,"x_max":501,"o":"m 44 0 q 26 43 26 15 q 38 93 26 69 l 371 872 l 111 872 q 51 868 68 872 l 51 949 q 58 966 51 960 q 75 972 64 972 l 489 972 q 500 936 500 957 q 489 885 500 911 l 150 100 l 419 100 q 501 111 476 100 l 501 22 q 479 0 501 0 l 44 0 m 276 1051 q 191 1115 258 1051 q 106 1206 124 1179 q 129 1253 114 1231 q 157 1276 144 1276 q 196 1250 168 1276 q 249 1194 224 1224 q 281 1157 274 1165 q 326 1215 303 1189 q 366 1255 350 1240 q 386 1274 382 1269 q 431 1222 431 1247 q 397 1168 431 1210 q 325 1089 363 1126 q 276 1051 288 1051 z "},"Ż":{"ha":535,"x_min":26,"x_max":501,"o":"m 44 0 q 26 43 26 15 q 38 93 26 69 l 371 872 l 111 872 q 51 868 68 872 l 51 949 q 58 966 51 960 q 75 972 64 972 l 489 972 q 500 936 500 957 q 489 885 500 911 l 150 100 l 419 100 q 501 111 476 100 l 501 22 q 479 0 501 0 l 44 0 m 264 1069 q 208 1150 208 1069 q 272 1239 208 1239 q 315 1221 303 1239 q 328 1158 328 1203 q 311 1093 328 1117 q 264 1069 294 1069 z "},"a":{"ha":492,"x_min":40,"x_max":440,"o":"m 231 -14 q 91 28 142 -14 q 40 197 40 71 q 91 377 40 329 q 226 425 142 425 q 328 407 292 425 l 328 517 q 307 582 328 564 q 242 600 286 600 q 140 591 192 600 q 57 568 89 582 q 42 633 42 597 q 57 671 42 661 q 138 697 78 685 q 269 708 197 708 q 400 669 360 708 q 440 539 440 631 l 440 465 q 432 33 440 160 q 347 -1 399 13 q 231 -14 296 -14 m 250 81 q 293 88 272 81 q 324 103 314 94 q 328 328 328 150 q 263 342 301 342 q 185 313 213 342 q 157 200 157 283 q 180 105 157 129 q 250 81 203 81 z "},"á":{"ha":492,"x_min":40,"x_max":440,"o":"m 231 -14 q 91 28 142 -14 q 40 197 40 71 q 91 377 40 329 q 226 425 142 425 q 328 407 292 425 l 328 517 q 307 582 328 564 q 242 600 286 600 q 140 591 192 600 q 57 568 89 582 q 42 633 42 597 q 57 671 42 661 q 138 697 78 685 q 269 708 197 708 q 400 669 360 708 q 440 539 440 631 l 440 465 q 432 33 440 160 q 347 -1 399 13 q 231 -14 296 -14 m 250 81 q 293 88 272 81 q 324 103 314 94 q 328 328 328 150 q 263 342 301 342 q 185 313 213 342 q 157 200 157 283 q 180 105 157 129 q 250 81 203 81 m 176 778 q 156 792 165 778 q 140 821 146 806 q 133 840 135 836 q 244 947 178 890 q 319 1003 310 1003 q 351 976 338 1003 q 371 918 365 949 q 283 849 354 900 q 176 778 213 797 z "},"ă":{"ha":492,"x_min":40,"x_max":440,"o":"m 231 -14 q 91 28 142 -14 q 40 197 40 71 q 91 377 40 329 q 226 425 142 425 q 328 407 292 425 l 328 517 q 307 582 328 564 q 242 600 286 600 q 140 591 192 600 q 57 568 89 582 q 42 633 42 597 q 57 671 42 661 q 138 697 78 685 q 269 708 197 708 q 400 669 360 708 q 440 539 440 631 l 440 465 q 432 33 440 160 q 347 -1 399 13 q 231 -14 296 -14 m 250 81 q 293 88 272 81 q 324 103 314 94 q 328 328 328 150 q 263 342 301 342 q 185 313 213 342 q 157 200 157 283 q 180 105 157 129 q 250 81 203 81 m 238 774 q 151 799 192 774 q 87 861 111 825 q 63 928 63 897 q 76 965 63 950 q 124 990 90 979 q 167 914 139 947 q 239 881 196 881 q 303 905 281 881 q 346 972 325 929 q 368 986 354 986 q 401 968 385 986 q 422 929 418 950 q 353 817 399 860 q 238 774 308 774 z "},"ắ":{"ha":492,"x_min":40,"x_max":440,"o":"m 243 967 q 225 979 233 967 q 212 1005 217 992 q 206 1022 207 1018 q 303 1117 244 1067 q 369 1167 361 1167 q 399 1142 386 1167 q 415 1092 411 1118 q 339 1030 401 1075 q 243 967 276 985 m 238 765 q 161 788 197 765 q 103 842 125 810 q 82 901 82 875 q 94 934 82 922 q 138 957 107 946 q 176 890 150 919 q 239 860 201 860 q 295 881 275 860 q 335 942 315 903 q 353 954 342 954 q 383 938 368 954 q 401 903 399 922 q 341 803 382 842 q 238 765 300 765 m 231 -14 q 91 28 142 -14 q 40 197 40 71 q 91 377 40 329 q 226 425 142 425 q 328 407 292 425 l 328 517 q 307 582 328 564 q 242 600 286 600 q 140 591 192 600 q 57 568 89 582 q 42 633 42 597 q 57 671 42 661 q 138 697 78 685 q 269 708 197 708 q 400 669 360 708 q 440 539 440 631 l 440 465 q 432 33 440 160 q 347 -1 399 13 q 231 -14 296 -14 m 250 81 q 293 88 272 81 q 324 103 314 94 q 328 328 328 150 q 263 342 301 342 q 185 313 213 342 q 157 200 157 283 q 180 105 157 129 q 250 81 203 81 z "},"ặ":{"ha":492,"x_min":40,"x_max":440,"o":"m 231 -14 q 91 28 142 -14 q 40 197 40 71 q 91 377 40 329 q 226 425 142 425 q 328 407 292 425 l 328 517 q 307 582 328 564 q 242 600 286 600 q 140 591 192 600 q 57 568 89 582 q 42 633 42 597 q 57 671 42 661 q 138 697 78 685 q 269 708 197 708 q 400 669 360 708 q 440 539 440 631 l 440 465 q 432 33 440 160 q 347 -1 399 13 q 231 -14 296 -14 m 250 81 q 293 88 272 81 q 324 103 314 94 q 328 328 328 150 q 263 342 301 342 q 185 313 213 342 q 157 200 157 283 q 180 105 157 129 q 250 81 203 81 m 243 -246 q 207 -230 219 -246 q 194 -175 194 -214 q 251 -96 194 -96 q 289 -112 278 -96 q 300 -167 300 -128 q 285 -225 300 -204 q 243 -246 271 -246 m 238 774 q 151 799 192 774 q 87 861 111 825 q 63 928 63 897 q 76 965 63 950 q 124 990 90 979 q 167 914 139 947 q 239 881 196 881 q 303 905 281 881 q 346 972 325 929 q 368 986 354 986 q 401 968 385 986 q 422 929 418 950 q 353 817 399 860 q 238 774 308 774 z "},"ằ":{"ha":492,"x_min":40,"x_max":440,"o":"m 246 972 q 150 1037 213 992 q 74 1099 88 1082 q 90 1149 78 1125 q 118 1174 101 1174 q 186 1123 126 1174 q 283 1028 246 1072 q 278 1010 282 1024 q 265 985 274 997 q 246 972 257 972 m 238 765 q 161 788 197 765 q 103 842 125 810 q 82 901 82 875 q 94 934 82 922 q 138 957 107 946 q 176 890 150 919 q 239 860 201 860 q 295 881 275 860 q 335 942 315 903 q 353 954 342 954 q 383 938 368 954 q 401 903 399 922 q 341 803 382 842 q 238 765 300 765 m 231 -14 q 91 28 142 -14 q 40 197 40 71 q 91 377 40 329 q 226 425 142 425 q 328 407 292 425 l 328 517 q 307 582 328 564 q 242 600 286 600 q 140 591 192 600 q 57 568 89 582 q 42 633 42 597 q 57 671 42 661 q 138 697 78 685 q 269 708 197 708 q 400 669 360 708 q 440 539 440 631 l 440 465 q 432 33 440 160 q 347 -1 399 13 q 231 -14 296 -14 m 250 81 q 293 88 272 81 q 324 103 314 94 q 328 328 328 150 q 263 342 301 342 q 185 313 213 342 q 157 200 157 283 q 180 105 157 129 q 250 81 203 81 z "},"ẳ":{"ha":492,"x_min":40,"x_max":440,"o":"m 213 965 q 212 970 213 967 q 211 979 211 974 q 215 1000 211 990 q 238 1024 221 1010 q 258 1046 251 1036 q 264 1074 264 1056 q 214 1125 264 1125 q 165 1110 185 1125 l 165 1175 q 180 1187 165 1181 q 213 1193 194 1193 q 310 1163 281 1193 q 340 1085 340 1132 q 328 1036 340 1053 q 301 1009 315 1019 q 281 994 286 999 q 274 980 275 990 q 272 967 272 969 q 236 964 269 964 l 213 965 m 238 765 q 161 788 197 765 q 103 842 125 810 q 82 901 82 875 q 94 934 82 922 q 138 957 107 946 q 176 890 150 919 q 239 860 201 860 q 295 881 275 860 q 335 942 315 903 q 353 954 342 954 q 383 938 368 954 q 401 903 399 922 q 341 803 382 842 q 238 765 300 765 m 231 -14 q 91 28 142 -14 q 40 197 40 71 q 91 377 40 329 q 226 425 142 425 q 328 407 292 425 l 328 517 q 307 582 328 564 q 242 600 286 600 q 140 591 192 600 q 57 568 89 582 q 42 633 42 597 q 57 671 42 661 q 138 697 78 685 q 269 708 197 708 q 400 669 360 708 q 440 539 440 631 l 440 465 q 432 33 440 160 q 347 -1 399 13 q 231 -14 296 -14 m 250 81 q 293 88 272 81 q 324 103 314 94 q 328 328 328 150 q 263 342 301 342 q 185 313 213 342 q 157 200 157 283 q 180 105 157 129 q 250 81 203 81 z "},"ẵ":{"ha":492,"x_min":40,"x_max":440,"o":"m 290 1006 q 253 1014 267 1006 q 225 1039 239 1022 q 205 1058 214 1051 q 182 1064 196 1064 q 153 1056 164 1064 q 129 1032 142 1047 q 110 1017 117 1017 q 87 1028 97 1017 q 69 1050 76 1039 q 61 1065 63 1061 q 128 1136 92 1114 q 201 1158 165 1158 q 231 1151 219 1158 q 257 1128 243 1143 q 281 1106 271 1113 q 308 1099 292 1099 q 346 1108 333 1099 q 370 1132 358 1117 q 389 1147 382 1147 q 406 1135 399 1147 q 418 1109 414 1122 q 424 1092 422 1096 q 401 1061 419 1082 q 353 1023 382 1040 q 290 1006 324 1006 m 238 765 q 161 788 197 765 q 103 842 125 810 q 82 901 82 875 q 94 934 82 922 q 138 957 107 946 q 176 890 150 919 q 239 860 201 860 q 295 881 275 860 q 335 942 315 903 q 353 954 342 954 q 383 938 368 954 q 401 903 399 922 q 341 803 382 842 q 238 765 300 765 m 231 -14 q 91 28 142 -14 q 40 197 40 71 q 91 377 40 329 q 226 425 142 425 q 328 407 292 425 l 328 517 q 307 582 328 564 q 242 600 286 600 q 140 591 192 600 q 57 568 89 582 q 42 633 42 597 q 57 671 42 661 q 138 697 78 685 q 269 708 197 708 q 400 669 360 708 q 440 539 440 631 l 440 465 q 432 33 440 160 q 347 -1 399 13 q 231 -14 296 -14 m 250 81 q 293 88 272 81 q 324 103 314 94 q 328 328 328 150 q 263 342 301 342 q 185 313 213 342 q 157 200 157 283 q 180 105 157 129 q 250 81 203 81 z "},"â":{"ha":492,"x_min":40,"x_max":440,"o":"m 231 -14 q 91 28 142 -14 q 40 197 40 71 q 91 377 40 329 q 226 425 142 425 q 328 407 292 425 l 328 517 q 307 582 328 564 q 242 600 286 600 q 140 591 192 600 q 57 568 89 582 q 42 633 42 597 q 57 671 42 661 q 138 697 78 685 q 269 708 197 708 q 400 669 360 708 q 440 539 440 631 l 440 465 q 432 33 440 160 q 347 -1 399 13 q 231 -14 296 -14 m 250 81 q 293 88 272 81 q 324 103 314 94 q 328 328 328 150 q 263 342 301 342 q 185 313 213 342 q 157 200 157 283 q 180 105 157 129 q 250 81 203 81 m 339 779 q 292 828 326 792 q 247 886 258 865 q 221 853 242 878 q 177 804 200 828 q 143 781 154 781 q 67 813 93 781 l 225 983 q 249 988 236 988 q 283 971 268 988 q 326 926 293 961 q 388 856 358 892 q 418 811 418 821 q 394 788 418 797 q 339 779 371 779 z "},"ấ":{"ha":492,"x_min":40,"x_max":582,"o":"m 410 881 q 392 893 400 881 q 378 919 383 906 q 372 936 374 932 q 469 1031 411 981 q 536 1081 528 1081 q 565 1056 553 1081 q 582 1006 578 1032 q 506 944 568 989 q 410 881 443 899 m 328 769 q 287 813 317 781 q 247 864 257 846 q 224 835 242 857 q 185 792 206 813 q 154 771 164 771 q 86 799 111 771 l 226 951 q 247 954 240 954 q 279 940 265 954 q 349 866 299 921 q 399 799 399 811 q 378 778 399 786 q 328 769 357 769 m 231 -14 q 91 28 142 -14 q 40 197 40 71 q 91 377 40 329 q 226 425 142 425 q 328 407 292 425 l 328 517 q 307 582 328 564 q 242 600 286 600 q 140 591 192 600 q 57 568 89 582 q 42 633 42 597 q 57 671 42 661 q 138 697 78 685 q 269 708 197 708 q 400 669 360 708 q 440 539 440 631 l 440 465 q 432 33 440 160 q 347 -1 399 13 q 231 -14 296 -14 m 250 81 q 293 88 272 81 q 324 103 314 94 q 328 328 328 150 q 263 342 301 342 q 185 313 213 342 q 157 200 157 283 q 180 105 157 129 q 250 81 203 81 z "},"ậ":{"ha":492,"x_min":40,"x_max":440,"o":"m 231 -14 q 91 28 142 -14 q 40 197 40 71 q 91 377 40 329 q 226 425 142 425 q 328 407 292 425 l 328 517 q 307 582 328 564 q 242 600 286 600 q 140 591 192 600 q 57 568 89 582 q 42 633 42 597 q 57 671 42 661 q 138 697 78 685 q 269 708 197 708 q 400 669 360 708 q 440 539 440 631 l 440 465 q 432 33 440 160 q 347 -1 399 13 q 231 -14 296 -14 m 250 81 q 293 88 272 81 q 324 103 314 94 q 328 328 328 150 q 263 342 301 342 q 185 313 213 342 q 157 200 157 283 q 180 105 157 129 q 250 81 203 81 m 243 -246 q 207 -230 219 -246 q 194 -175 194 -214 q 251 -96 194 -96 q 289 -112 278 -96 q 300 -167 300 -128 q 285 -225 300 -204 q 243 -246 271 -246 m 339 779 q 292 828 326 792 q 247 886 258 865 q 221 853 242 878 q 177 804 200 828 q 143 781 154 781 q 67 813 93 781 l 225 983 q 249 988 236 988 q 283 971 268 988 q 326 926 293 961 q 388 856 358 892 q 418 811 418 821 q 394 788 418 797 q 339 779 371 779 z "},"ầ":{"ha":492,"x_min":40,"x_max":440,"o":"m 378 933 q 282 998 344 953 q 206 1060 219 1043 q 222 1110 210 1086 q 250 1135 233 1135 q 318 1084 258 1135 q 415 989 378 1033 q 410 972 414 985 q 397 946 406 958 q 378 933 389 933 m 328 769 q 287 813 317 781 q 247 864 257 846 q 224 835 242 857 q 185 792 206 813 q 154 771 164 771 q 86 799 111 771 l 226 951 q 247 954 240 954 q 279 940 265 954 q 349 866 299 921 q 399 799 399 811 q 378 778 399 786 q 328 769 357 769 m 231 -14 q 91 28 142 -14 q 40 197 40 71 q 91 377 40 329 q 226 425 142 425 q 328 407 292 425 l 328 517 q 307 582 328 564 q 242 600 286 600 q 140 591 192 600 q 57 568 89 582 q 42 633 42 597 q 57 671 42 661 q 138 697 78 685 q 269 708 197 708 q 400 669 360 708 q 440 539 440 631 l 440 465 q 432 33 440 160 q 347 -1 399 13 q 231 -14 296 -14 m 250 81 q 293 88 272 81 q 324 103 314 94 q 328 328 328 150 q 263 342 301 342 q 185 313 213 342 q 157 200 157 283 q 180 105 157 129 q 250 81 203 81 z "},"ẩ":{"ha":492,"x_min":40,"x_max":515,"o":"m 388 897 q 387 902 388 899 q 386 911 386 906 q 390 932 386 922 q 413 956 396 942 q 433 978 426 968 q 439 1006 439 988 q 389 1057 439 1057 q 340 1042 360 1057 l 340 1107 q 355 1119 340 1113 q 388 1125 369 1125 q 485 1094 456 1125 q 515 1017 515 1064 q 503 968 515 985 q 476 941 490 951 q 456 926 461 931 q 449 912 450 922 q 447 899 447 901 q 411 896 444 896 l 388 897 m 328 769 q 287 813 317 781 q 247 864 257 846 q 224 835 242 857 q 185 792 206 813 q 154 771 164 771 q 86 799 111 771 l 226 951 q 247 954 240 954 q 279 940 265 954 q 349 866 299 921 q 399 799 399 811 q 378 778 399 786 q 328 769 357 769 m 231 -14 q 91 28 142 -14 q 40 197 40 71 q 91 377 40 329 q 226 425 142 425 q 328 407 292 425 l 328 517 q 307 582 328 564 q 242 600 286 600 q 140 591 192 600 q 57 568 89 582 q 42 633 42 597 q 57 671 42 661 q 138 697 78 685 q 269 708 197 708 q 400 669 360 708 q 440 539 440 631 l 440 465 q 432 33 440 160 q 347 -1 399 13 q 231 -14 296 -14 m 250 81 q 293 88 272 81 q 324 103 314 94 q 328 328 328 150 q 263 342 301 342 q 185 313 213 342 q 157 200 157 283 q 180 105 157 129 q 250 81 203 81 z "},"ẫ":{"ha":492,"x_min":40,"x_max":457,"o":"m 324 979 q 286 988 300 979 q 258 1013 272 996 q 238 1031 247 1025 q 215 1038 229 1038 q 186 1029 197 1038 q 163 1006 175 1021 q 143 990 150 990 q 120 1001 131 990 q 103 1024 110 1013 q 94 1039 96 1035 q 162 1110 125 1088 q 235 1132 199 1132 q 265 1124 253 1132 q 290 1101 276 1117 q 315 1079 304 1086 q 342 1072 325 1072 q 379 1081 367 1072 q 403 1106 392 1090 q 422 1121 415 1121 q 440 1108 432 1121 q 451 1083 447 1096 q 457 1065 456 1069 q 434 1035 453 1056 q 386 997 415 1014 q 324 979 357 979 m 328 769 q 287 813 317 781 q 247 864 257 846 q 224 835 242 857 q 185 792 206 813 q 154 771 164 771 q 86 799 111 771 l 226 951 q 247 954 240 954 q 279 940 265 954 q 349 866 299 921 q 399 799 399 811 q 378 778 399 786 q 328 769 357 769 m 231 -14 q 91 28 142 -14 q 40 197 40 71 q 91 377 40 329 q 226 425 142 425 q 328 407 292 425 l 328 517 q 307 582 328 564 q 242 600 286 600 q 140 591 192 600 q 57 568 89 582 q 42 633 42 597 q 57 671 42 661 q 138 697 78 685 q 269 708 197 708 q 400 669 360 708 q 440 539 440 631 l 440 465 q 432 33 440 160 q 347 -1 399 13 q 231 -14 296 -14 m 250 81 q 293 88 272 81 q 324 103 314 94 q 328 328 328 150 q 263 342 301 342 q 185 313 213 342 q 157 200 157 283 q 180 105 157 129 q 250 81 203 81 z "},"ä":{"ha":492,"x_min":40,"x_max":440,"o":"m 231 -14 q 91 28 142 -14 q 40 197 40 71 q 91 377 40 329 q 226 425 142 425 q 328 407 292 425 l 328 517 q 307 582 328 564 q 242 600 286 600 q 140 591 192 600 q 57 568 89 582 q 42 633 42 597 q 57 671 42 661 q 138 697 78 685 q 269 708 197 708 q 400 669 360 708 q 440 539 440 631 l 440 465 q 432 33 440 160 q 347 -1 399 13 q 231 -14 296 -14 m 250 81 q 293 88 272 81 q 324 103 314 94 q 328 328 328 150 q 263 342 301 342 q 185 313 213 342 q 157 200 157 283 q 180 105 157 129 q 250 81 203 81 m 157 794 q 116 815 129 796 q 103 878 103 833 q 118 936 103 915 q 164 957 133 957 q 206 940 194 957 q 218 881 218 922 q 203 817 218 839 q 157 794 188 794 m 322 794 q 282 813 296 796 q 268 872 268 831 q 329 957 268 957 q 372 940 360 957 q 383 881 383 922 q 322 794 381 794 z "},"ạ":{"ha":492,"x_min":40,"x_max":440,"o":"m 231 -14 q 91 28 142 -14 q 40 197 40 71 q 91 377 40 329 q 226 425 142 425 q 328 407 292 425 l 328 517 q 307 582 328 564 q 242 600 286 600 q 140 591 192 600 q 57 568 89 582 q 42 633 42 597 q 57 671 42 661 q 138 697 78 685 q 269 708 197 708 q 400 669 360 708 q 440 539 440 631 l 440 465 q 432 33 440 160 q 347 -1 399 13 q 231 -14 296 -14 m 250 81 q 293 88 272 81 q 324 103 314 94 q 328 328 328 150 q 263 342 301 342 q 185 313 213 342 q 157 200 157 283 q 180 105 157 129 q 250 81 203 81 m 243 -246 q 207 -230 219 -246 q 194 -175 194 -214 q 251 -96 194 -96 q 289 -112 278 -96 q 300 -167 300 -128 q 285 -225 300 -204 q 243 -246 271 -246 z "},"à":{"ha":492,"x_min":40,"x_max":440,"o":"m 231 -14 q 91 28 142 -14 q 40 197 40 71 q 91 377 40 329 q 226 425 142 425 q 328 407 292 425 l 328 517 q 307 582 328 564 q 242 600 286 600 q 140 591 192 600 q 57 568 89 582 q 42 633 42 597 q 57 671 42 661 q 138 697 78 685 q 269 708 197 708 q 400 669 360 708 q 440 539 440 631 l 440 465 q 432 33 440 160 q 347 -1 399 13 q 231 -14 296 -14 m 250 81 q 293 88 272 81 q 324 103 314 94 q 328 328 328 150 q 263 342 301 342 q 185 313 213 342 q 157 200 157 283 q 180 105 157 129 q 250 81 203 81 m 328 768 q 219 840 290 789 q 133 910 149 890 q 153 967 139 940 q 185 994 167 994 q 261 938 194 994 q 371 831 328 881 q 364 811 369 826 q 349 782 358 796 q 328 768 339 768 z "},"ả":{"ha":492,"x_min":40,"x_max":440,"o":"m 231 -14 q 91 28 142 -14 q 40 197 40 71 q 91 377 40 329 q 226 425 142 425 q 328 407 292 425 l 328 517 q 307 582 328 564 q 242 600 286 600 q 140 591 192 600 q 57 568 89 582 q 42 633 42 597 q 57 671 42 661 q 138 697 78 685 q 269 708 197 708 q 400 669 360 708 q 440 539 440 631 l 440 465 q 432 33 440 160 q 347 -1 399 13 q 231 -14 296 -14 m 250 81 q 293 88 272 81 q 324 103 314 94 q 328 328 328 150 q 263 342 301 342 q 185 313 213 342 q 157 200 157 283 q 180 105 157 129 q 250 81 203 81 m 197 747 q 197 753 197 749 q 196 764 196 757 q 200 786 196 779 q 214 805 204 797 q 225 814 224 813 q 247 838 240 828 q 254 869 254 849 q 199 928 254 928 q 144 911 168 928 l 144 985 q 160 997 144 990 q 197 1004 176 1004 q 308 969 274 1004 q 342 881 342 935 q 328 828 342 847 q 297 798 314 810 q 274 781 281 786 q 266 764 268 775 q 264 749 264 753 q 224 746 261 746 l 197 747 z "},"ā":{"ha":492,"x_min":40,"x_max":440,"o":"m 231 -14 q 91 28 142 -14 q 40 197 40 71 q 91 377 40 329 q 226 425 142 425 q 328 407 292 425 l 328 517 q 307 582 328 564 q 242 600 286 600 q 140 591 192 600 q 57 568 89 582 q 42 633 42 597 q 57 671 42 661 q 138 697 78 685 q 269 708 197 708 q 400 669 360 708 q 440 539 440 631 l 440 465 q 432 33 440 160 q 347 -1 399 13 q 231 -14 296 -14 m 250 81 q 293 88 272 81 q 324 103 314 94 q 328 328 328 150 q 263 342 301 342 q 185 313 213 342 q 157 200 157 283 q 180 105 157 129 q 250 81 203 81 m 64 815 q 57 867 57 835 q 69 906 57 892 q 103 921 82 921 l 418 921 q 428 874 428 897 q 417 832 428 849 q 386 815 406 815 l 64 815 z "},"ą":{"ha":492,"x_min":40,"x_max":440,"o":"m 349 -271 q 233 -149 233 -271 q 288 -10 233 -76 q 231 -14 263 -14 q 91 28 142 -14 q 40 197 40 71 q 91 377 40 329 q 226 425 142 425 q 328 407 292 425 l 328 517 q 307 582 328 564 q 242 600 286 600 q 140 591 192 600 q 57 568 89 582 q 42 633 42 597 q 57 671 42 661 q 138 697 78 685 q 269 708 197 708 q 400 669 360 708 q 440 539 440 631 l 440 465 q 432 33 440 160 q 362 -46 390 0 q 333 -133 333 -92 q 379 -189 333 -189 q 419 -179 403 -189 q 431 -221 431 -204 q 428 -242 431 -237 q 349 -271 414 -271 m 250 81 q 293 88 272 81 q 324 103 314 94 q 328 328 328 150 q 263 342 301 342 q 185 313 213 342 q 157 200 157 283 q 180 105 157 129 q 250 81 203 81 z "},"å":{"ha":492,"x_min":40,"x_max":440,"o":"m 231 -14 q 91 28 142 -14 q 40 197 40 71 q 91 377 40 329 q 226 425 142 425 q 328 407 292 425 l 328 517 q 307 582 328 564 q 242 600 286 600 q 140 591 192 600 q 57 568 89 582 q 42 633 42 597 q 57 671 42 661 q 138 697 78 685 q 269 708 197 708 q 400 669 360 708 q 440 539 440 631 l 440 465 q 432 33 440 160 q 347 -1 399 13 q 231 -14 296 -14 m 250 81 q 293 88 272 81 q 324 103 314 94 q 328 328 328 150 q 263 342 301 342 q 185 313 213 342 q 157 200 157 283 q 180 105 157 129 q 250 81 203 81 m 239 754 q 142 784 174 754 q 110 888 110 814 q 146 990 110 956 q 249 1024 182 1024 q 346 994 315 1024 q 376 889 376 964 q 341 788 376 822 q 239 754 306 754 m 242 829 q 299 889 299 829 q 286 933 299 919 q 249 946 274 946 q 189 886 189 946 q 202 844 189 858 q 242 829 215 829 z "},"ã":{"ha":492,"x_min":39,"x_max":447,"o":"m 231 -14 q 91 28 142 -14 q 40 197 40 71 q 91 377 40 329 q 226 425 142 425 q 328 407 292 425 l 328 517 q 307 582 328 564 q 242 600 286 600 q 140 591 192 600 q 57 568 89 582 q 42 633 42 597 q 57 671 42 661 q 138 697 78 685 q 269 708 197 708 q 400 669 360 708 q 440 539 440 631 l 440 465 q 432 33 440 160 q 347 -1 399 13 q 231 -14 296 -14 m 250 81 q 293 88 272 81 q 324 103 314 94 q 328 328 328 150 q 263 342 301 342 q 185 313 213 342 q 157 200 157 283 q 180 105 157 129 q 250 81 203 81 m 297 782 q 254 792 269 782 q 224 819 239 801 q 200 842 210 835 q 175 849 190 849 q 142 839 156 849 q 115 812 129 829 q 93 794 100 794 q 67 807 79 794 q 48 833 56 819 q 39 850 40 846 q 113 929 72 904 q 196 954 154 954 q 229 946 217 954 q 258 921 242 938 q 286 896 274 904 q 317 888 299 888 q 359 898 344 888 q 387 925 374 908 q 407 942 400 942 q 426 928 418 942 q 440 899 435 914 q 447 879 446 883 q 421 844 442 867 q 367 801 400 821 q 297 782 335 782 z "},"æ":{"ha":810,"x_min":40,"x_max":757,"o":"m 569 96 q 739 139 664 96 q 749 39 749 110 q 722 17 749 29 q 650 -3 694 6 q 557 -12 606 -12 q 477 -4 510 -12 q 419 28 444 4 q 228 -12 354 -12 q 130 2 169 -12 q 65 65 90 17 q 40 206 40 113 q 222 443 40 443 q 328 425 292 443 l 328 525 q 303 590 328 572 q 233 608 278 608 q 58 571 129 608 q 44 638 44 596 q 49 656 44 647 q 58 671 53 665 q 136 697 81 686 q 274 708 192 708 q 364 690 331 708 q 411 629 397 671 q 481 692 440 676 q 581 708 522 708 q 757 488 757 708 q 742 306 757 375 q 618 297 690 297 q 450 313 532 297 q 463 172 450 218 q 501 110 476 125 q 569 96 525 96 m 568 610 q 492 563 522 610 q 453 401 461 517 q 592 385 539 385 q 642 389 619 385 q 649 475 649 421 q 631 581 647 551 q 568 610 614 610 m 328 347 q 263 358 301 358 q 185 326 214 358 q 157 207 157 293 q 168 125 157 153 q 198 89 179 97 q 247 81 217 81 q 295 87 271 81 q 328 103 319 93 l 328 347 z "},"b":{"ha":535,"x_min":67,"x_max":497,"o":"m 228 -14 q 67 28 117 -14 l 67 969 q 75 1006 67 996 q 104 1019 83 1017 q 178 1021 125 1021 l 178 660 q 326 708 240 708 q 455 646 413 708 q 497 435 497 583 q 420 76 497 167 q 228 -14 343 -14 m 243 85 q 333 153 294 85 q 372 411 372 222 q 349 563 372 519 q 275 607 325 607 q 178 568 217 607 l 178 104 q 243 85 200 85 z "},"c":{"ha":435,"x_min":43,"x_max":408,"o":"m 250 -14 q 133 13 178 -14 q 66 115 89 40 q 43 332 43 190 q 113 632 43 556 q 292 708 182 708 q 375 690 342 708 q 408 646 408 672 q 396 583 408 614 q 297 610 349 610 q 197 553 236 610 q 158 331 158 497 q 172 181 158 235 q 212 107 185 128 q 283 86 239 86 q 345 95 315 86 q 394 118 375 104 q 406 57 406 78 q 361 7 406 28 q 250 -14 317 -14 z "},"ć":{"ha":435,"x_min":43,"x_max":408,"o":"m 250 -14 q 133 13 178 -14 q 66 115 89 40 q 43 332 43 190 q 113 632 43 556 q 292 708 182 708 q 375 690 342 708 q 408 646 408 672 q 396 583 408 614 q 297 610 349 610 q 197 553 236 610 q 158 331 158 497 q 172 181 158 235 q 212 107 185 128 q 283 86 239 86 q 345 95 315 86 q 394 118 375 104 q 406 57 406 78 q 361 7 406 28 q 250 -14 317 -14 m 164 778 q 143 792 153 778 q 128 821 133 806 q 121 840 122 836 q 231 947 165 890 q 307 1003 297 1003 q 339 976 325 1003 q 358 918 353 949 q 271 849 342 900 q 164 778 200 797 z "},"č":{"ha":435,"x_min":43,"x_max":408,"o":"m 250 -14 q 133 13 178 -14 q 66 115 89 40 q 43 332 43 190 q 113 632 43 556 q 292 708 182 708 q 375 690 342 708 q 408 646 408 672 q 396 583 408 614 q 297 610 349 610 q 197 553 236 610 q 158 331 158 497 q 172 181 158 235 q 212 107 185 128 q 283 86 239 86 q 345 95 315 86 q 394 118 375 104 q 406 57 406 78 q 361 7 406 28 q 250 -14 317 -14 m 239 774 q 153 838 221 774 q 68 928 86 901 q 92 976 76 953 q 119 999 107 999 q 158 972 131 999 q 211 917 186 946 q 243 879 236 888 q 289 937 265 911 q 328 977 313 963 q 349 996 344 992 q 393 944 393 969 q 359 890 393 932 q 288 811 325 849 q 239 774 250 774 z "},"ç":{"ha":435,"x_min":43,"x_max":408,"o":"m 283 86 q 345 95 315 86 q 394 118 375 104 q 406 57 406 78 q 363 8 406 28 q 256 -14 321 -12 l 242 -82 q 265 -81 243 -81 q 313 -103 293 -81 q 333 -169 333 -125 q 302 -254 333 -222 q 222 -286 271 -286 q 170 -278 196 -286 q 144 -268 144 -269 q 151 -239 146 -261 q 163 -211 157 -217 q 188 -217 167 -207 q 225 -226 210 -226 q 268 -179 268 -226 q 226 -132 268 -132 q 189 -135 204 -132 q 169 -140 174 -139 l 193 -10 q 109 33 142 -1 q 60 138 76 67 q 43 332 43 210 q 113 632 43 556 q 292 708 182 708 q 375 690 342 708 q 408 646 408 672 q 396 583 408 614 q 297 610 349 610 q 197 553 236 610 q 158 331 158 497 q 172 181 158 235 q 212 107 185 128 q 283 86 239 86 z "},"d":{"ha":529,"x_min":43,"x_max":468,"o":"m 268 -14 q 149 10 197 -14 q 72 107 101 33 q 43 322 43 181 q 102 613 43 518 q 256 708 161 708 q 356 681 319 708 l 356 969 q 365 1006 356 996 q 394 1019 374 1017 q 468 1021 415 1021 l 468 28 q 268 -14 379 -14 m 272 86 q 356 107 325 86 l 356 593 q 292 611 332 611 q 167 335 167 611 q 179 179 167 233 q 214 106 192 125 q 272 86 236 86 z "},"ð":{"ha":567,"x_min":42,"x_max":528,"o":"m 417 878 q 528 401 528 700 q 478 97 528 207 q 290 -14 428 -14 q 101 72 161 -14 q 42 357 42 157 q 101 616 42 525 q 264 707 161 707 q 386 667 339 707 q 311 836 361 760 l 179 785 q 161 834 168 813 q 154 865 154 856 q 165 885 154 879 l 246 915 q 174 982 226 938 q 208 1019 186 1006 q 254 1033 231 1033 q 296 1017 282 1033 q 357 958 324 994 l 453 996 q 471 947 464 968 q 478 915 478 925 q 467 897 478 901 l 417 878 m 288 81 q 390 161 365 81 q 414 397 414 242 q 407 539 414 485 q 294 607 367 607 q 191 532 226 607 q 156 339 156 457 q 288 81 156 81 z "},"ď":{"ha":665,"x_min":43,"x_max":675,"o":"m 268 -14 q 149 10 197 -14 q 72 107 101 33 q 43 322 43 181 q 102 613 43 518 q 256 708 161 708 q 356 681 319 708 l 356 969 q 365 1006 356 996 q 394 1019 374 1017 q 468 1021 415 1021 l 468 28 q 268 -14 379 -14 m 272 86 q 356 107 325 86 l 356 593 q 292 611 332 611 q 167 335 167 611 q 179 179 167 233 q 214 106 192 125 q 272 86 236 86 m 571 664 q 526 696 536 664 q 552 761 546 732 q 561 831 558 790 q 529 897 529 850 q 549 949 529 929 q 599 969 568 969 q 675 888 675 969 q 655 788 675 840 q 609 700 635 736 q 571 664 583 664 z "},"đ":{"ha":547,"x_min":43,"x_max":543,"o":"m 533 907 q 543 860 543 883 q 532 818 543 835 q 501 801 521 801 l 468 801 l 468 28 q 268 -14 379 -14 q 149 10 197 -14 q 72 107 101 33 q 43 322 43 181 q 102 613 43 518 q 256 708 161 708 q 356 681 319 708 l 356 801 l 179 801 q 172 853 172 821 q 185 892 172 878 q 218 907 197 907 l 356 907 l 356 969 q 365 1006 356 996 q 394 1019 374 1017 q 468 1021 415 1021 l 468 907 l 533 907 m 356 593 q 292 611 332 611 q 167 335 167 611 q 179 179 167 233 q 214 106 192 125 q 272 86 236 86 q 356 107 325 86 l 356 593 z "},"e":{"ha":501,"x_min":42,"x_max":464,"o":"m 288 94 q 446 139 371 94 q 456 63 456 108 q 399 8 456 31 q 264 -14 343 -14 q 145 13 193 -14 q 69 110 97 39 q 42 311 42 181 q 76 561 42 474 q 163 678 110 649 q 288 708 215 708 q 464 486 464 708 q 449 306 464 375 q 306 288 388 293 q 157 283 225 283 q 174 168 160 208 q 216 111 189 128 q 288 94 243 94 m 275 610 q 194 558 225 610 q 158 372 164 506 q 349 389 296 372 q 356 472 356 421 q 338 580 354 550 q 275 610 321 610 z "},"é":{"ha":501,"x_min":42,"x_max":464,"o":"m 288 94 q 446 139 371 94 q 456 63 456 108 q 399 8 456 31 q 264 -14 343 -14 q 145 13 193 -14 q 69 110 97 39 q 42 311 42 181 q 76 561 42 474 q 163 678 110 649 q 288 708 215 708 q 464 486 464 708 q 449 306 464 375 q 306 288 388 293 q 157 283 225 283 q 174 168 160 208 q 216 111 189 128 q 288 94 243 94 m 275 610 q 194 558 225 610 q 158 372 164 506 q 349 389 296 372 q 356 472 356 421 q 338 580 354 550 q 275 610 321 610 m 196 778 q 175 792 185 778 q 160 821 165 806 q 153 840 154 836 q 263 947 197 890 q 339 1003 329 1003 q 371 976 357 1003 q 390 918 385 949 q 303 849 374 900 q 196 778 232 797 z "},"ě":{"ha":501,"x_min":42,"x_max":464,"o":"m 288 94 q 446 139 371 94 q 456 63 456 108 q 399 8 456 31 q 264 -14 343 -14 q 145 13 193 -14 q 69 110 97 39 q 42 311 42 181 q 76 561 42 474 q 163 678 110 649 q 288 708 215 708 q 464 486 464 708 q 449 306 464 375 q 306 288 388 293 q 157 283 225 283 q 174 168 160 208 q 216 111 189 128 q 288 94 243 94 m 275 610 q 194 558 225 610 q 158 372 164 506 q 349 389 296 372 q 356 472 356 421 q 338 580 354 550 q 275 610 321 610 m 271 774 q 185 838 253 774 q 100 928 118 901 q 124 976 108 953 q 151 999 139 999 q 190 972 163 999 q 243 917 218 946 q 275 879 268 888 q 321 937 297 911 q 360 977 344 963 q 381 996 376 992 q 425 944 425 969 q 391 890 425 932 q 319 811 357 849 q 271 774 282 774 z "},"ê":{"ha":501,"x_min":42,"x_max":464,"o":"m 288 94 q 446 139 371 94 q 456 63 456 108 q 399 8 456 31 q 264 -14 343 -14 q 145 13 193 -14 q 69 110 97 39 q 42 311 42 181 q 76 561 42 474 q 163 678 110 649 q 288 708 215 708 q 464 486 464 708 q 449 306 464 375 q 306 288 388 293 q 157 283 225 283 q 174 168 160 208 q 216 111 189 128 q 288 94 243 94 m 275 610 q 194 558 225 610 q 158 372 164 506 q 349 389 296 372 q 356 472 356 421 q 338 580 354 550 q 275 610 321 610 m 358 779 q 312 828 346 792 q 267 886 278 865 q 240 853 261 878 q 197 804 219 828 q 163 781 174 781 q 86 813 113 781 l 244 983 q 268 988 256 988 q 303 971 288 988 q 345 926 313 961 q 408 856 378 892 q 438 811 438 821 q 414 788 438 797 q 358 779 390 779 z "},"ế":{"ha":501,"x_min":42,"x_max":601,"o":"m 556 1081 q 585 1056 572 1081 q 601 1006 597 1032 q 525 944 588 989 q 429 881 463 899 q 411 893 419 881 q 398 919 403 906 q 392 936 393 932 q 489 1031 431 981 q 556 1081 547 1081 m 174 771 q 106 799 131 771 l 246 951 q 267 954 260 954 q 299 940 285 954 q 368 866 318 921 q 418 799 418 811 q 397 778 418 786 q 347 769 376 769 q 306 813 336 781 q 267 864 276 846 q 243 835 261 857 q 204 792 225 813 q 174 771 183 771 m 464 486 q 449 306 464 375 q 306 288 388 293 q 157 283 225 283 q 174 168 160 208 q 216 111 189 128 q 288 94 243 94 q 446 139 371 94 q 456 63 456 108 q 399 8 456 31 q 264 -14 343 -14 q 145 13 193 -14 q 69 110 97 39 q 42 311 42 181 q 76 561 42 474 q 163 678 110 649 q 288 708 215 708 q 464 486 464 708 m 349 389 q 356 472 356 421 q 338 580 354 550 q 275 610 321 610 q 194 558 225 610 q 158 372 164 506 q 349 389 296 372 z "},"ệ":{"ha":501,"x_min":42,"x_max":464,"o":"m 288 94 q 446 139 371 94 q 456 63 456 108 q 399 8 456 31 q 264 -14 343 -14 q 145 13 193 -14 q 69 110 97 39 q 42 311 42 181 q 76 561 42 474 q 163 678 110 649 q 288 708 215 708 q 464 486 464 708 q 449 306 464 375 q 306 288 388 293 q 157 283 225 283 q 174 168 160 208 q 216 111 189 128 q 288 94 243 94 m 275 610 q 194 558 225 610 q 158 372 164 506 q 349 389 296 372 q 356 472 356 421 q 338 580 354 550 q 275 610 321 610 m 247 -246 q 211 -230 224 -246 q 199 -175 199 -214 q 256 -96 199 -96 q 293 -112 282 -96 q 304 -167 304 -128 q 290 -225 304 -204 q 247 -246 275 -246 m 358 779 q 312 828 346 792 q 267 886 278 865 q 240 853 261 878 q 197 804 219 828 q 163 781 174 781 q 86 813 113 781 l 244 983 q 268 988 256 988 q 303 971 288 988 q 345 926 313 961 q 408 856 378 892 q 438 811 438 821 q 414 788 438 797 q 358 779 390 779 z "},"ề":{"ha":501,"x_min":42,"x_max":464,"o":"m 397 933 q 301 998 364 953 q 225 1060 239 1043 q 241 1110 229 1086 q 269 1135 253 1135 q 338 1084 278 1135 q 435 989 397 1033 q 429 972 433 985 q 417 946 425 958 q 397 933 408 933 m 174 771 q 106 799 131 771 l 246 951 q 267 954 260 954 q 299 940 285 954 q 368 866 318 921 q 418 799 418 811 q 397 778 418 786 q 347 769 376 769 q 306 813 336 781 q 267 864 276 846 q 243 835 261 857 q 204 792 225 813 q 174 771 183 771 m 288 94 q 446 139 371 94 q 456 63 456 108 q 399 8 456 31 q 264 -14 343 -14 q 145 13 193 -14 q 69 110 97 39 q 42 311 42 181 q 76 561 42 474 q 163 678 110 649 q 288 708 215 708 q 464 486 464 708 q 449 306 464 375 q 306 288 388 293 q 157 283 225 283 q 174 168 160 208 q 216 111 189 128 q 288 94 243 94 m 275 610 q 194 558 225 610 q 158 372 164 506 q 349 389 296 372 q 356 472 356 421 q 338 580 354 550 q 275 610 321 610 z "},"ể":{"ha":501,"x_min":42,"x_max":535,"o":"m 407 1125 q 505 1094 475 1125 q 535 1017 535 1064 q 522 968 535 985 q 495 941 510 951 q 475 926 481 931 q 468 912 469 922 q 467 899 467 901 q 431 896 464 896 l 407 897 q 406 902 407 899 q 406 911 406 906 q 410 932 406 922 q 432 956 415 942 q 452 978 446 968 q 458 1006 458 988 q 408 1057 458 1057 q 360 1042 379 1057 l 360 1107 q 374 1119 360 1113 q 407 1125 389 1125 m 174 771 q 106 799 131 771 l 246 951 q 267 954 260 954 q 299 940 285 954 q 368 866 318 921 q 418 799 418 811 q 397 778 418 786 q 347 769 376 769 q 306 813 336 781 q 267 864 276 846 q 243 835 261 857 q 204 792 225 813 q 174 771 183 771 m 464 486 q 449 306 464 375 q 306 288 388 293 q 157 283 225 283 q 174 168 160 208 q 216 111 189 128 q 288 94 243 94 q 446 139 371 94 q 456 63 456 108 q 399 8 456 31 q 264 -14 343 -14 q 145 13 193 -14 q 69 110 97 39 q 42 311 42 181 q 76 561 42 474 q 163 678 110 649 q 288 708 215 708 q 464 486 464 708 m 349 389 q 356 472 356 421 q 338 580 354 550 q 275 610 321 610 q 194 558 225 610 q 158 372 164 506 q 349 389 296 372 z "},"ễ":{"ha":501,"x_min":42,"x_max":476,"o":"m 163 990 q 140 1001 150 990 q 122 1024 129 1013 q 114 1039 115 1035 q 181 1110 144 1088 q 254 1132 218 1132 q 284 1124 272 1132 q 310 1101 296 1117 q 334 1079 324 1086 q 361 1072 344 1072 q 399 1081 386 1072 q 423 1106 411 1090 q 442 1121 435 1121 q 459 1108 451 1121 q 471 1083 467 1096 q 476 1065 475 1069 q 453 1035 472 1056 q 406 997 435 1014 q 343 979 376 979 q 306 988 319 979 q 278 1013 292 996 q 258 1031 267 1025 q 235 1038 249 1038 q 206 1029 217 1038 q 182 1006 194 1021 q 163 990 169 990 m 174 771 q 106 799 131 771 l 246 951 q 267 954 260 954 q 299 940 285 954 q 368 866 318 921 q 418 799 418 811 q 397 778 418 786 q 347 769 376 769 q 306 813 336 781 q 267 864 276 846 q 243 835 261 857 q 204 792 225 813 q 174 771 183 771 m 464 486 q 449 306 464 375 q 306 288 388 293 q 157 283 225 283 q 174 168 160 208 q 216 111 189 128 q 288 94 243 94 q 446 139 371 94 q 456 63 456 108 q 399 8 456 31 q 264 -14 343 -14 q 145 13 193 -14 q 69 110 97 39 q 42 311 42 181 q 76 561 42 474 q 163 678 110 649 q 288 708 215 708 q 464 486 464 708 m 349 389 q 356 472 356 421 q 338 580 354 550 q 275 610 321 610 q 194 558 225 610 q 158 372 164 506 q 349 389 296 372 z "},"ë":{"ha":501,"x_min":42,"x_max":464,"o":"m 288 94 q 446 139 371 94 q 456 63 456 108 q 399 8 456 31 q 264 -14 343 -14 q 145 13 193 -14 q 69 110 97 39 q 42 311 42 181 q 76 561 42 474 q 163 678 110 649 q 288 708 215 708 q 464 486 464 708 q 449 306 464 375 q 306 288 388 293 q 157 283 225 283 q 174 168 160 208 q 216 111 189 128 q 288 94 243 94 m 275 610 q 194 558 225 610 q 158 372 164 506 q 349 389 296 372 q 356 472 356 421 q 338 580 354 550 q 275 610 321 610 m 176 794 q 135 815 149 796 q 122 878 122 833 q 138 936 122 915 q 183 957 153 957 q 226 940 214 957 q 238 881 238 922 q 222 817 238 839 q 176 794 207 794 m 342 794 q 301 813 315 796 q 288 872 288 831 q 349 957 288 957 q 391 940 379 957 q 403 881 403 922 q 342 794 400 794 z "},"ė":{"ha":501,"x_min":42,"x_max":464,"o":"m 288 94 q 446 139 371 94 q 456 63 456 108 q 399 8 456 31 q 264 -14 343 -14 q 145 13 193 -14 q 69 110 97 39 q 42 311 42 181 q 76 561 42 474 q 163 678 110 649 q 288 708 215 708 q 464 486 464 708 q 449 306 464 375 q 306 288 388 293 q 157 283 225 283 q 174 168 160 208 q 216 111 189 128 q 288 94 243 94 m 275 610 q 194 558 225 610 q 158 372 164 506 q 349 389 296 372 q 356 472 356 421 q 338 580 354 550 q 275 610 321 610 m 258 792 q 203 872 203 792 q 267 961 203 961 q 310 943 297 961 q 322 881 322 925 q 306 815 322 839 q 258 792 289 792 z "},"ẹ":{"ha":501,"x_min":42,"x_max":464,"o":"m 288 94 q 446 139 371 94 q 456 63 456 108 q 399 8 456 31 q 264 -14 343 -14 q 145 13 193 -14 q 69 110 97 39 q 42 311 42 181 q 76 561 42 474 q 163 678 110 649 q 288 708 215 708 q 464 486 464 708 q 449 306 464 375 q 306 288 388 293 q 157 283 225 283 q 174 168 160 208 q 216 111 189 128 q 288 94 243 94 m 275 610 q 194 558 225 610 q 158 372 164 506 q 349 389 296 372 q 356 472 356 421 q 338 580 354 550 q 275 610 321 610 m 247 -246 q 211 -230 224 -246 q 199 -175 199 -214 q 256 -96 199 -96 q 293 -112 282 -96 q 304 -167 304 -128 q 290 -225 304 -204 q 247 -246 275 -246 z "},"è":{"ha":501,"x_min":42,"x_max":464,"o":"m 288 94 q 446 139 371 94 q 456 63 456 108 q 399 8 456 31 q 264 -14 343 -14 q 145 13 193 -14 q 69 110 97 39 q 42 311 42 181 q 76 561 42 474 q 163 678 110 649 q 288 708 215 708 q 464 486 464 708 q 449 306 464 375 q 306 288 388 293 q 157 283 225 283 q 174 168 160 208 q 216 111 189 128 q 288 94 243 94 m 275 610 q 194 558 225 610 q 158 372 164 506 q 349 389 296 372 q 356 472 356 421 q 338 580 354 550 q 275 610 321 610 m 347 768 q 239 840 310 789 q 153 910 168 890 q 172 967 158 940 q 204 994 186 994 q 281 938 214 994 q 390 831 347 881 q 383 811 389 826 q 368 782 378 796 q 347 768 358 768 z "},"ẻ":{"ha":501,"x_min":42,"x_max":464,"o":"m 288 94 q 446 139 371 94 q 456 63 456 108 q 399 8 456 31 q 264 -14 343 -14 q 145 13 193 -14 q 69 110 97 39 q 42 311 42 181 q 76 561 42 474 q 163 678 110 649 q 288 708 215 708 q 464 486 464 708 q 449 306 464 375 q 306 288 388 293 q 157 283 225 283 q 174 168 160 208 q 216 111 189 128 q 288 94 243 94 m 275 610 q 194 558 225 610 q 158 372 164 506 q 349 389 296 372 q 356 472 356 421 q 338 580 354 550 q 275 610 321 610 m 217 747 q 216 753 217 749 q 215 764 215 757 q 219 786 215 779 q 233 805 224 797 q 244 814 243 813 q 267 838 260 828 q 274 869 274 849 q 218 928 274 928 q 164 911 188 928 l 164 985 q 180 997 164 990 q 217 1004 196 1004 q 327 969 293 1004 q 361 881 361 935 q 347 828 361 847 q 317 798 333 810 q 293 781 300 786 q 285 764 288 775 q 283 749 283 753 q 243 746 281 746 l 217 747 z "},"ē":{"ha":501,"x_min":42,"x_max":464,"o":"m 288 94 q 446 139 371 94 q 456 63 456 108 q 399 8 456 31 q 264 -14 343 -14 q 145 13 193 -14 q 69 110 97 39 q 42 311 42 181 q 76 561 42 474 q 163 678 110 649 q 288 708 215 708 q 464 486 464 708 q 449 306 464 375 q 306 288 388 293 q 157 283 225 283 q 174 168 160 208 q 216 111 189 128 q 288 94 243 94 m 275 610 q 194 558 225 610 q 158 372 164 506 q 349 389 296 372 q 356 472 356 421 q 338 580 354 550 q 275 610 321 610 m 83 815 q 76 867 76 835 q 89 906 76 892 q 122 921 101 921 l 438 921 q 447 874 447 897 q 436 832 447 849 q 406 815 425 815 l 83 815 z "},"ę":{"ha":501,"x_min":42,"x_max":464,"o":"m 368 -271 q 253 -153 253 -271 q 297 -10 253 -83 q 260 -14 281 -14 q 142 14 189 -12 q 69 111 96 40 q 42 311 42 182 q 76 561 42 474 q 163 678 110 649 q 288 708 215 708 q 464 486 464 708 q 449 306 464 375 q 157 283 338 283 q 174 166 158 207 q 216 110 189 125 q 288 94 243 94 q 446 139 371 94 q 456 63 456 108 q 433 26 456 46 q 376 -49 400 -3 q 353 -139 353 -94 q 399 -189 353 -189 q 439 -179 421 -189 q 450 -221 450 -204 q 447 -242 450 -233 q 368 -271 433 -271 m 157 374 q 349 389 293 374 q 356 472 356 421 q 338 580 354 550 q 275 610 321 610 q 193 558 225 610 q 157 374 161 507 z "},"ẽ":{"ha":501,"x_min":42,"x_max":467,"o":"m 288 94 q 446 139 371 94 q 456 63 456 108 q 399 8 456 31 q 264 -14 343 -14 q 145 13 193 -14 q 69 110 97 39 q 42 311 42 181 q 76 561 42 474 q 163 678 110 649 q 288 708 215 708 q 464 486 464 708 q 449 306 464 375 q 306 288 388 293 q 157 283 225 283 q 174 168 160 208 q 216 111 189 128 q 288 94 243 94 m 275 610 q 194 558 225 610 q 158 372 164 506 q 349 389 296 372 q 356 472 356 421 q 338 580 354 550 q 275 610 321 610 m 317 782 q 274 792 289 782 q 243 819 258 801 q 219 842 229 835 q 194 849 210 849 q 162 839 175 849 q 134 812 149 829 q 113 794 119 794 q 87 807 99 794 q 67 833 75 819 q 58 850 60 846 q 133 929 92 904 q 215 954 174 954 q 249 946 236 954 q 278 921 261 938 q 306 896 293 904 q 336 888 318 888 q 378 898 364 888 q 406 925 393 908 q 426 942 419 942 q 446 928 438 942 q 460 899 454 914 q 467 879 465 883 q 440 844 461 867 q 387 801 419 821 q 317 782 354 782 z "},"f":{"ha":353,"x_min":18,"x_max":475,"o":"m 114 600 l 18 600 q 19 660 18 638 q 26 689 21 683 q 46 694 31 694 l 114 694 l 114 779 q 180 975 114 924 q 346 1026 246 1026 q 442 1011 408 1026 q 475 969 475 996 q 463 908 475 938 q 364 925 422 925 q 262 897 299 925 q 225 788 225 869 l 225 694 l 350 694 q 349 634 350 657 q 343 606 347 611 q 326 600 339 600 l 225 600 l 225 22 q 220 8 225 15 q 201 0 215 0 l 114 0 l 114 600 z "},"g":{"ha":547,"x_min":32,"x_max":532,"o":"m 336 114 q 474 65 428 100 q 521 -47 521 29 q 453 -209 521 -144 q 254 -274 385 -274 q 79 -231 126 -274 q 32 -122 32 -189 q 61 -31 32 -75 q 139 46 90 13 q 53 121 51 69 q 140 246 53 176 q 54 454 54 301 q 116 647 54 586 q 286 708 178 708 q 356 697 318 708 l 521 697 q 532 644 532 678 q 493 601 532 601 q 443 608 475 601 q 496 457 496 556 q 442 278 496 342 q 271 214 388 214 q 208 219 235 214 q 171 158 171 182 q 206 134 171 142 q 336 114 240 126 m 282 626 q 202 585 232 626 q 172 457 172 544 q 194 338 172 376 q 278 300 215 300 q 358 346 332 300 q 383 483 383 392 q 358 592 383 558 q 282 626 333 626 m 264 -171 q 370 -137 333 -171 q 407 -62 407 -104 q 393 -13 407 -31 q 346 13 379 4 q 250 26 313 22 l 222 29 q 169 -29 190 4 q 147 -96 147 -62 q 172 -152 147 -133 q 264 -171 197 -171 z "},"ğ":{"ha":547,"x_min":32,"x_max":532,"o":"m 336 114 q 474 65 428 100 q 521 -47 521 29 q 453 -209 521 -144 q 254 -274 385 -274 q 79 -231 126 -274 q 32 -122 32 -189 q 61 -31 32 -75 q 139 46 90 13 q 53 121 51 69 q 140 246 53 176 q 54 454 54 301 q 116 647 54 586 q 286 708 178 708 q 356 697 318 708 l 521 697 q 532 644 532 678 q 493 601 532 601 q 443 608 475 601 q 496 457 496 556 q 442 278 496 342 q 271 214 388 214 q 208 219 235 214 q 171 158 171 182 q 206 134 171 142 q 336 114 240 126 m 282 626 q 202 585 232 626 q 172 457 172 544 q 194 338 172 376 q 278 300 215 300 q 358 346 332 300 q 383 483 383 392 q 358 592 383 558 q 282 626 333 626 m 264 -171 q 370 -137 333 -171 q 407 -62 407 -104 q 393 -13 407 -31 q 346 13 379 4 q 250 26 313 22 l 222 29 q 169 -29 190 4 q 147 -96 147 -62 q 172 -152 147 -133 q 264 -171 197 -171 m 272 774 q 186 799 226 774 q 122 861 146 825 q 97 928 97 897 q 111 965 97 950 q 158 990 125 979 q 202 914 174 947 q 274 881 231 881 q 338 905 315 881 q 381 972 360 929 q 403 986 389 986 q 436 968 419 986 q 457 929 453 950 q 388 817 433 860 q 272 774 343 774 z "},"ģ":{"ha":547,"x_min":32,"x_max":532,"o":"m 276 767 q 204 847 204 767 q 224 938 204 892 q 270 1017 244 985 q 308 1049 296 1049 q 351 1018 344 1049 q 323 958 331 982 q 313 903 315 933 q 344 838 344 883 q 326 787 344 807 q 276 767 307 767 m 336 114 q 474 65 428 100 q 521 -47 521 29 q 453 -209 521 -144 q 254 -274 385 -274 q 79 -231 126 -274 q 32 -122 32 -189 q 61 -31 32 -75 q 139 46 90 13 q 53 121 51 69 q 140 246 53 176 q 54 454 54 301 q 116 647 54 586 q 286 708 178 708 q 356 697 318 708 l 521 697 q 532 644 532 678 q 493 601 532 601 q 443 608 475 601 q 496 457 496 556 q 442 278 496 342 q 271 214 388 214 q 208 219 235 214 q 171 158 171 182 q 206 134 171 142 q 336 114 240 126 m 282 626 q 202 585 232 626 q 172 457 172 544 q 194 338 172 376 q 278 300 215 300 q 358 346 332 300 q 383 483 383 392 q 358 592 383 558 q 282 626 333 626 m 264 -171 q 370 -137 333 -171 q 407 -62 407 -104 q 393 -13 407 -31 q 346 13 379 4 q 250 26 313 22 l 222 29 q 169 -29 190 4 q 147 -96 147 -62 q 172 -152 147 -133 q 264 -171 197 -171 z "},"h":{"ha":528,"x_min":63,"x_max":475,"o":"m 63 969 q 71 1006 63 996 q 100 1019 79 1017 q 174 1021 121 1021 l 174 654 q 247 694 204 681 q 331 708 289 708 q 445 665 415 708 q 475 525 475 621 l 475 22 q 469 6 475 10 q 435 1 463 1 q 361 0 407 0 l 361 494 q 344 576 361 547 q 279 604 328 604 q 225 595 253 604 q 174 567 197 586 l 174 22 q 169 6 174 10 q 137 1 164 1 q 63 0 110 0 l 63 969 z "},"i":{"ha":243,"x_min":61,"x_max":181,"o":"m 65 643 q 74 680 65 669 q 104 692 83 690 q 178 694 125 694 l 178 22 q 173 6 178 10 q 140 1 168 1 q 65 0 113 0 l 65 643 m 117 792 q 61 872 61 792 q 125 961 61 961 q 168 943 156 961 q 181 881 181 925 q 164 815 181 839 q 117 792 147 792 z "},"ı":{"ha":243,"x_min":65,"x_max":178,"o":"m 65 643 q 74 680 65 669 q 104 692 83 690 q 178 694 125 694 l 178 22 q 173 6 178 10 q 140 1 168 1 q 65 0 113 0 l 65 643 z "},"í":{"ha":243,"x_min":11,"x_max":249,"o":"m 65 643 q 74 680 65 669 q 104 692 83 690 q 178 694 125 694 l 178 22 q 173 6 178 10 q 140 1 168 1 q 65 0 113 0 l 65 643 m 54 778 q 33 792 43 778 q 18 821 24 806 q 11 840 13 836 q 122 947 56 890 q 197 1003 188 1003 q 229 976 215 1003 q 249 918 243 949 q 161 849 232 900 q 54 778 90 797 z "},"î":{"ha":243,"x_min":-56,"x_max":296,"o":"m 65 643 q 74 680 65 669 q 104 692 83 690 q 178 694 125 694 l 178 22 q 173 6 178 10 q 140 1 168 1 q 65 0 113 0 l 65 643 m 217 779 q 170 828 204 792 q 125 886 136 865 q 99 853 119 878 q 55 804 78 828 q 21 781 32 781 q -56 813 -29 781 l 103 983 q 126 988 114 988 q 161 971 146 988 q 203 926 171 961 q 266 856 236 892 q 296 811 296 821 q 272 788 296 797 q 217 779 249 779 z "},"ï":{"ha":243,"x_min":-19,"x_max":261,"o":"m 65 643 q 74 680 65 669 q 104 692 83 690 q 178 694 125 694 l 178 22 q 173 6 178 10 q 140 1 168 1 q 65 0 113 0 l 65 643 m 35 794 q -6 815 7 796 q -19 878 -19 833 q -4 936 -19 915 q 42 957 11 957 q 84 940 72 957 q 96 881 96 922 q 81 817 96 839 q 35 794 65 794 m 200 794 q 160 813 174 796 q 146 872 146 831 q 207 957 146 957 q 249 940 238 957 q 261 881 261 922 q 200 794 258 794 z "},"ị":{"ha":243,"x_min":61,"x_max":181,"o":"m 65 643 q 74 680 65 669 q 104 692 83 690 q 178 694 125 694 l 178 22 q 173 6 178 10 q 140 1 168 1 q 65 0 113 0 l 65 643 m 117 792 q 61 872 61 792 q 125 961 61 961 q 168 943 156 961 q 181 881 181 925 q 164 815 181 839 q 117 792 147 792 m 118 -246 q 82 -230 94 -246 q 69 -175 69 -214 q 126 -96 69 -96 q 164 -112 153 -96 q 175 -167 175 -128 q 160 -225 175 -204 q 118 -246 146 -246 z "},"ì":{"ha":243,"x_min":11,"x_max":249,"o":"m 65 643 q 74 680 65 669 q 104 692 83 690 q 178 694 125 694 l 178 22 q 173 6 178 10 q 140 1 168 1 q 65 0 113 0 l 65 643 m 206 768 q 97 840 168 789 q 11 910 26 890 q 31 967 17 940 q 63 994 44 994 q 139 938 72 994 q 249 831 206 881 q 242 811 247 826 q 226 782 236 796 q 206 768 217 768 z "},"ỉ":{"ha":243,"x_min":22,"x_max":219,"o":"m 65 643 q 74 680 65 669 q 104 692 83 690 q 178 694 125 694 l 178 22 q 173 6 178 10 q 140 1 168 1 q 65 0 113 0 l 65 643 m 75 747 q 74 753 75 749 q 74 764 74 757 q 78 786 74 779 q 92 805 82 797 q 103 814 101 813 q 125 838 118 828 q 132 869 132 849 q 76 928 132 928 q 22 911 46 928 l 22 985 q 38 997 22 990 q 75 1004 54 1004 q 185 969 151 1004 q 219 881 219 935 q 206 828 219 847 q 175 798 192 810 q 151 781 158 786 q 144 764 146 775 q 142 749 142 753 q 101 746 139 746 l 75 747 z "},"ĳ":{"ha":499,"x_min":61,"x_max":432,"o":"m 65 643 q 74 680 65 669 q 104 692 83 690 q 178 694 125 694 l 178 22 q 173 6 178 10 q 140 1 168 1 q 65 0 113 0 l 65 643 m 117 792 q 61 872 61 792 q 125 961 61 961 q 168 943 156 961 q 181 881 181 925 q 164 815 181 839 q 117 792 147 792 m 249 -272 q 137 -253 174 -272 q 100 -199 100 -233 q 117 -142 100 -162 q 235 -169 169 -169 q 302 -140 286 -169 q 318 -33 318 -110 l 318 643 q 327 680 318 669 q 356 692 336 690 q 429 694 376 694 l 429 -50 q 390 -213 429 -154 q 249 -272 351 -272 m 368 792 q 313 872 313 792 q 376 961 313 961 q 419 943 407 961 q 432 881 432 925 q 415 815 432 839 q 368 792 399 792 z "},"ī":{"ha":243,"x_min":-10,"x_max":251,"o":"m 65 643 q 74 680 65 669 q 104 692 83 690 q 178 694 125 694 l 178 22 q 173 6 178 10 q 140 1 168 1 q 65 0 113 0 l 65 643 m -3 815 q -10 867 -10 840 q 3 906 -10 892 q 36 921 15 921 l 240 921 q 251 874 251 899 q 240 832 251 849 q 208 815 228 815 l -3 815 z "},"į":{"ha":243,"x_min":-10,"x_max":188,"o":"m 118 792 q 63 872 63 792 q 126 961 63 961 q 169 943 157 961 q 182 881 182 925 q 165 815 182 839 q 118 792 149 792 m 107 -271 q 22 -244 53 -271 q -10 -158 -10 -217 q 10 -72 -10 -110 q 64 6 29 -35 l 64 643 q 69 681 64 671 q 96 692 75 690 q 179 694 117 694 l 179 22 q 163 -6 179 10 q 113 -68 135 -32 q 90 -142 90 -104 q 136 -189 90 -189 q 175 -179 157 -189 q 184 -203 181 -189 q 188 -225 188 -217 q 165 -259 188 -247 q 107 -271 143 -271 z "},"ĩ":{"ha":243,"x_min":-83,"x_max":325,"o":"m 65 643 q 74 680 65 669 q 104 692 83 690 q 178 694 125 694 l 178 22 q 173 6 178 10 q 140 1 168 1 q 65 0 113 0 l 65 643 m 175 782 q 132 792 147 782 q 101 819 117 801 q 78 842 88 835 q 53 849 68 849 q 20 839 33 849 q -8 812 7 829 q -29 794 -22 794 q -55 807 -43 794 q -74 833 -67 819 q -83 850 -82 846 q -9 929 -50 904 q 74 954 32 954 q 107 946 94 954 q 136 921 119 938 q 164 896 151 904 q 194 888 176 888 q 237 898 222 888 q 265 925 251 908 q 285 942 278 942 q 304 928 296 942 q 318 899 313 914 q 325 879 324 883 q 299 844 319 867 q 245 801 278 821 q 175 782 213 782 z "},"j":{"ha":256,"x_min":-143,"x_max":189,"o":"m 6 -272 q -106 -253 -69 -272 q -143 -199 -143 -233 q -126 -142 -143 -162 q -8 -169 -74 -169 q 59 -140 43 -169 q 75 -33 75 -110 l 75 643 q 84 680 75 669 q 113 692 93 690 q 186 694 133 694 l 186 -50 q 147 -213 186 -154 q 6 -272 108 -272 m 125 792 q 69 872 69 792 q 133 961 69 961 q 176 943 164 961 q 189 881 189 925 q 172 815 189 839 q 125 792 156 792 z "},"ȷ":{"ha":256,"x_min":-143,"x_max":186,"o":"m 6 -272 q -106 -253 -69 -272 q -143 -199 -143 -233 q -126 -142 -143 -162 q -8 -169 -74 -169 q 59 -140 43 -169 q 75 -33 75 -110 l 75 643 q 84 680 75 669 q 113 692 93 690 q 186 694 133 694 l 186 -50 q 147 -213 186 -154 q 6 -272 108 -272 z "},"k":{"ha":522,"x_min":64,"x_max":493,"o":"m 64 969 q 73 1006 64 996 q 103 1019 82 1017 q 176 1021 124 1021 l 176 644 q 260 691 213 674 q 351 708 307 708 q 469 589 469 708 q 433 459 469 513 q 353 374 396 406 q 445 290 407 350 q 492 139 483 231 q 493 93 493 125 q 489 22 493 60 q 481 6 488 10 q 445 1 475 1 q 363 0 415 0 q 368 86 368 40 q 361 171 368 129 q 320 279 349 243 q 254 315 292 315 q 239 314 244 315 q 203 301 224 311 q 176 288 182 292 l 176 22 q 172 6 176 10 q 140 1 168 1 q 64 0 113 0 l 64 969 m 176 368 q 346 551 346 436 q 294 607 346 607 q 176 540 231 607 l 176 368 z "},"ķ":{"ha":522,"x_min":64,"x_max":493,"o":"m 64 969 q 73 1006 64 996 q 103 1019 82 1017 q 176 1021 124 1021 l 176 644 q 260 691 213 674 q 351 708 307 708 q 469 589 469 708 q 433 459 469 513 q 353 374 396 406 q 445 290 407 350 q 492 139 483 231 q 493 93 493 125 q 489 22 493 60 q 481 6 488 10 q 445 1 475 1 q 363 0 415 0 q 368 86 368 40 q 361 171 368 129 q 320 279 349 243 q 254 315 292 315 q 239 314 244 315 q 203 301 224 311 q 176 288 182 292 l 176 22 q 172 6 176 10 q 140 1 168 1 q 64 0 113 0 l 64 969 m 176 368 q 346 551 346 436 q 294 607 346 607 q 176 540 231 607 l 176 368 m 231 -365 q 186 -333 193 -365 q 216 -272 208 -296 q 226 -215 224 -247 q 193 -147 193 -193 q 213 -95 193 -115 q 264 -75 233 -75 q 339 -157 339 -75 q 318 -252 339 -204 q 271 -333 297 -300 q 231 -365 244 -365 z "},"l":{"ha":240,"x_min":64,"x_max":176,"o":"m 64 969 q 73 1006 64 996 q 103 1019 82 1017 q 176 1021 124 1021 l 176 22 q 171 6 176 10 q 138 1 165 1 q 64 0 111 0 l 64 969 z "},"ĺ":{"ha":240,"x_min":11,"x_max":249,"o":"m 64 969 q 73 1006 64 996 q 103 1019 82 1017 q 176 1021 124 1021 l 176 22 q 171 6 176 10 q 138 1 165 1 q 64 0 111 0 l 64 969 m 54 1104 q 33 1118 43 1104 q 18 1147 24 1132 q 11 1167 13 1163 q 122 1273 56 1217 q 197 1329 188 1329 q 229 1302 215 1329 q 249 1244 243 1275 q 161 1175 232 1226 q 54 1104 90 1124 z "},"ľ":{"ha":240,"x_min":64,"x_max":176,"o":"m 64 969 q 73 1006 64 996 q 103 1019 82 1017 q 176 1021 124 1021 l 176 22 q 171 6 176 10 q 138 1 165 1 q 64 0 111 0 l 64 969 z "},"ļ":{"ha":240,"x_min":44,"x_max":197,"o":"m 64 969 q 73 1006 64 996 q 103 1019 82 1017 q 176 1021 124 1021 l 176 22 q 171 6 176 10 q 138 1 165 1 q 64 0 111 0 l 64 969 m 89 -365 q 44 -333 51 -365 q 74 -272 67 -296 q 85 -215 82 -247 q 51 -147 51 -193 q 72 -95 51 -115 q 122 -75 92 -75 q 197 -157 197 -75 q 176 -252 197 -204 q 129 -333 156 -300 q 89 -365 103 -365 z "},"ŀ":{"ha":333,"x_min":64,"x_max":364,"o":"m 64 969 q 73 1006 64 996 q 103 1019 82 1017 q 176 1021 124 1021 l 176 22 q 171 6 176 10 q 138 1 165 1 q 64 0 111 0 l 64 969 m 286 294 q 226 315 244 294 q 208 374 208 335 q 230 430 208 407 q 286 453 251 453 q 364 374 364 453 q 343 317 364 339 q 286 294 322 294 z "},"ł":{"ha":258,"x_min":1,"x_max":260,"o":"m 244 697 q 260 618 260 639 q 246 596 260 600 l 185 579 l 185 22 q 180 6 185 10 q 148 1 175 1 q 74 0 121 0 l 74 547 l 17 532 q 8 570 14 544 q 1 608 1 596 q 17 633 1 629 l 74 650 l 74 969 q 83 1006 74 996 q 112 1019 92 1017 q 185 1021 132 1021 l 185 681 l 244 697 z "},"m":{"ha":783,"x_min":64,"x_max":726,"o":"m 569 708 q 670 686 636 708 q 715 623 704 664 q 726 513 726 582 l 726 22 q 721 6 726 10 q 688 1 715 1 q 614 0 660 0 l 614 514 q 601 589 614 568 q 546 610 588 610 q 451 583 494 610 l 451 22 q 447 6 451 10 q 415 1 442 1 q 342 0 389 0 l 340 0 l 340 517 q 336 574 340 556 q 317 602 332 593 q 271 611 303 611 q 176 586 221 611 l 176 22 q 171 6 176 10 q 138 1 165 1 q 64 0 110 0 l 64 663 q 274 708 165 708 q 400 665 360 708 q 481 697 435 685 q 569 708 528 708 z "},"n":{"ha":532,"x_min":63,"x_max":478,"o":"m 63 661 q 168 694 106 681 q 283 708 231 708 q 435 666 392 708 q 478 522 478 624 l 478 22 q 472 6 478 10 q 438 1 467 1 q 363 0 410 0 l 363 489 q 346 585 363 558 q 279 611 329 611 q 225 605 254 611 q 175 586 196 599 l 175 22 q 169 6 175 10 q 136 1 164 1 q 63 0 108 0 l 63 661 z "},"ń":{"ha":532,"x_min":63,"x_max":478,"o":"m 63 661 q 168 694 106 681 q 283 708 231 708 q 435 666 392 708 q 478 522 478 624 l 478 22 q 472 6 478 10 q 438 1 467 1 q 363 0 410 0 l 363 489 q 346 585 363 558 q 279 611 329 611 q 225 605 254 611 q 175 586 196 599 l 175 22 q 169 6 175 10 q 136 1 164 1 q 63 0 108 0 l 63 661 m 200 778 q 179 792 189 778 q 164 821 169 806 q 157 840 158 836 q 267 947 201 890 q 343 1003 333 1003 q 375 976 361 1003 q 394 918 389 949 q 307 849 378 900 q 200 778 236 797 z "},"ŉ":{"ha":532,"x_min":63,"x_max":478,"o":"m 63 661 q 168 694 106 681 q 283 708 231 708 q 435 666 392 708 q 478 522 478 624 l 478 22 q 472 6 478 10 q 438 1 467 1 q 363 0 410 0 l 363 489 q 346 585 363 558 q 279 611 329 611 q 225 605 254 611 q 175 586 196 599 l 175 22 q 169 6 175 10 q 136 1 164 1 q 63 0 108 0 l 63 661 m 114 794 q 69 826 79 794 q 95 892 89 863 q 104 961 101 921 q 72 1028 72 981 q 92 1080 72 1060 q 142 1100 111 1100 q 218 1018 218 1100 q 198 919 218 971 q 152 831 178 867 q 114 794 126 794 z "},"ň":{"ha":532,"x_min":63,"x_max":478,"o":"m 63 661 q 168 694 106 681 q 283 708 231 708 q 435 666 392 708 q 478 522 478 624 l 478 22 q 472 6 478 10 q 438 1 467 1 q 363 0 410 0 l 363 489 q 346 585 363 558 q 279 611 329 611 q 225 605 254 611 q 175 586 196 599 l 175 22 q 169 6 175 10 q 136 1 164 1 q 63 0 108 0 l 63 661 m 275 774 q 190 838 257 774 q 104 928 122 901 q 128 976 113 953 q 156 999 143 999 q 194 972 167 999 q 247 917 222 946 q 279 879 272 888 q 325 937 301 911 q 365 977 349 963 q 385 996 381 992 q 429 944 429 969 q 395 890 429 932 q 324 811 361 849 q 275 774 286 774 z "},"ņ":{"ha":532,"x_min":63,"x_max":478,"o":"m 63 661 q 168 694 106 681 q 283 708 231 708 q 435 666 392 708 q 478 522 478 624 l 478 22 q 472 6 478 10 q 438 1 467 1 q 363 0 410 0 l 363 489 q 346 585 363 558 q 279 611 329 611 q 225 605 254 611 q 175 586 196 599 l 175 22 q 169 6 175 10 q 136 1 164 1 q 63 0 108 0 l 63 661 m 235 -365 q 190 -333 197 -365 q 220 -272 213 -296 q 231 -215 228 -247 q 197 -147 197 -193 q 217 -95 197 -115 q 268 -75 238 -75 q 343 -157 343 -75 q 322 -252 343 -204 q 275 -333 301 -300 q 235 -365 249 -365 z "},"ñ":{"ha":532,"x_min":63,"x_max":478,"o":"m 63 661 q 168 694 106 681 q 283 708 231 708 q 435 666 392 708 q 478 522 478 624 l 478 22 q 472 6 478 10 q 438 1 467 1 q 363 0 410 0 l 363 489 q 346 585 363 558 q 279 611 329 611 q 225 605 254 611 q 175 586 196 599 l 175 22 q 169 6 175 10 q 136 1 164 1 q 63 0 108 0 l 63 661 m 321 782 q 278 792 293 782 q 247 819 263 801 q 224 842 233 835 q 199 849 214 849 q 166 839 179 849 q 138 812 153 829 q 117 794 124 794 q 91 807 103 794 q 72 833 79 819 q 63 850 64 846 q 137 929 96 904 q 219 954 178 954 q 253 946 240 954 q 282 921 265 938 q 310 896 297 904 q 340 888 322 888 q 383 898 368 888 q 410 925 397 908 q 431 942 424 942 q 450 928 442 942 q 464 899 458 914 q 471 879 469 883 q 444 844 465 867 q 391 801 424 821 q 321 782 358 782 z "},"o":{"ha":522,"x_min":38,"x_max":485,"o":"m 256 -14 q 132 13 178 -14 q 62 117 86 39 q 38 347 38 196 q 269 708 38 708 q 392 677 346 708 q 461 567 438 646 q 485 350 485 489 q 427 74 485 161 q 256 -14 369 -14 m 258 81 q 335 139 308 81 q 363 350 363 197 q 352 515 363 458 q 321 593 342 572 q 265 614 300 614 q 187 556 214 614 q 160 344 160 497 q 171 176 160 233 q 203 100 182 119 q 258 81 224 81 z "},"ó":{"ha":522,"x_min":38,"x_max":485,"o":"m 256 -14 q 132 13 178 -14 q 62 117 86 39 q 38 347 38 196 q 269 708 38 708 q 392 677 346 708 q 461 567 438 646 q 485 350 485 489 q 427 74 485 161 q 256 -14 369 -14 m 258 81 q 335 139 308 81 q 363 350 363 197 q 352 515 363 458 q 321 593 342 572 q 265 614 300 614 q 187 556 214 614 q 160 344 160 497 q 171 176 160 233 q 203 100 182 119 q 258 81 224 81 m 197 778 q 176 792 186 778 q 161 821 167 806 q 154 840 156 836 q 265 947 199 890 q 340 1003 331 1003 q 372 976 358 1003 q 392 918 386 949 q 304 849 375 900 q 197 778 233 797 z "},"ô":{"ha":522,"x_min":38,"x_max":485,"o":"m 256 -14 q 132 13 178 -14 q 62 117 86 39 q 38 347 38 196 q 269 708 38 708 q 392 677 346 708 q 461 567 438 646 q 485 350 485 489 q 427 74 485 161 q 256 -14 369 -14 m 258 81 q 335 139 308 81 q 363 350 363 197 q 352 515 363 458 q 321 593 342 572 q 265 614 300 614 q 187 556 214 614 q 160 344 160 497 q 171 176 160 233 q 203 100 182 119 q 258 81 224 81 m 360 779 q 313 828 347 792 q 268 886 279 865 q 242 853 263 878 q 198 804 221 828 q 164 781 175 781 q 88 813 114 781 l 246 983 q 269 988 257 988 q 304 971 289 988 q 347 926 314 961 q 409 856 379 892 q 439 811 439 821 q 415 788 439 797 q 360 779 392 779 z "},"ố":{"ha":522,"x_min":38,"x_max":603,"o":"m 431 881 q 413 893 421 881 q 399 919 404 906 q 393 936 394 932 q 490 1031 432 981 q 557 1081 549 1081 q 586 1056 574 1081 q 603 1006 599 1032 q 526 944 589 989 q 431 881 464 899 m 349 769 q 308 813 338 781 q 268 864 278 846 q 244 835 263 857 q 206 792 226 813 q 175 771 185 771 q 107 799 132 771 l 247 951 q 268 954 261 954 q 300 940 286 954 q 369 866 319 921 q 419 799 419 811 q 399 778 419 786 q 349 769 378 769 m 256 -14 q 132 13 178 -14 q 62 117 86 39 q 38 347 38 196 q 269 708 38 708 q 392 677 346 708 q 461 567 438 646 q 485 350 485 489 q 427 74 485 161 q 256 -14 369 -14 m 258 81 q 335 139 308 81 q 363 350 363 197 q 352 515 363 458 q 321 593 342 572 q 265 614 300 614 q 187 556 214 614 q 160 344 160 497 q 171 176 160 233 q 203 100 182 119 q 258 81 224 81 z "},"ộ":{"ha":522,"x_min":38,"x_max":485,"o":"m 256 -14 q 132 13 178 -14 q 62 117 86 39 q 38 347 38 196 q 269 708 38 708 q 392 677 346 708 q 461 567 438 646 q 485 350 485 489 q 427 74 485 161 q 256 -14 369 -14 m 258 81 q 335 139 308 81 q 363 350 363 197 q 352 515 363 458 q 321 593 342 572 q 265 614 300 614 q 187 556 214 614 q 160 344 160 497 q 171 176 160 233 q 203 100 182 119 q 258 81 224 81 m 258 -246 q 222 -230 235 -246 q 210 -175 210 -214 q 267 -96 210 -96 q 304 -112 293 -96 q 315 -167 315 -128 q 301 -225 315 -204 q 258 -246 286 -246 m 360 779 q 313 828 347 792 q 268 886 279 865 q 242 853 263 878 q 198 804 221 828 q 164 781 175 781 q 88 813 114 781 l 246 983 q 269 988 257 988 q 304 971 289 988 q 347 926 314 961 q 409 856 379 892 q 439 811 439 821 q 415 788 439 797 q 360 779 392 779 z "},"ồ":{"ha":522,"x_min":38,"x_max":485,"o":"m 399 933 q 303 998 365 953 q 226 1060 240 1043 q 242 1110 231 1086 q 271 1135 254 1135 q 339 1084 279 1135 q 436 989 399 1033 q 431 972 435 985 q 418 946 426 958 q 399 933 410 933 m 349 769 q 308 813 338 781 q 268 864 278 846 q 244 835 263 857 q 206 792 226 813 q 175 771 185 771 q 107 799 132 771 l 247 951 q 268 954 261 954 q 300 940 286 954 q 369 866 319 921 q 419 799 419 811 q 399 778 419 786 q 349 769 378 769 m 256 -14 q 132 13 178 -14 q 62 117 86 39 q 38 347 38 196 q 269 708 38 708 q 392 677 346 708 q 461 567 438 646 q 485 350 485 489 q 427 74 485 161 q 256 -14 369 -14 m 258 81 q 335 139 308 81 q 363 350 363 197 q 352 515 363 458 q 321 593 342 572 q 265 614 300 614 q 187 556 214 614 q 160 344 160 497 q 171 176 160 233 q 203 100 182 119 q 258 81 224 81 z "},"ổ":{"ha":522,"x_min":38,"x_max":536,"o":"m 408 897 q 408 902 408 899 q 407 911 407 906 q 411 932 407 922 q 433 956 417 942 q 453 978 447 968 q 460 1006 460 988 q 410 1057 460 1057 q 361 1042 381 1057 l 361 1107 q 376 1119 361 1113 q 408 1125 390 1125 q 506 1094 476 1125 q 536 1017 536 1064 q 524 968 536 985 q 497 941 511 951 q 476 926 482 931 q 469 912 471 922 q 468 899 468 901 q 432 896 465 896 l 408 897 m 349 769 q 308 813 338 781 q 268 864 278 846 q 244 835 263 857 q 206 792 226 813 q 175 771 185 771 q 107 799 132 771 l 247 951 q 268 954 261 954 q 300 940 286 954 q 369 866 319 921 q 419 799 419 811 q 399 778 419 786 q 349 769 378 769 m 256 -14 q 132 13 178 -14 q 62 117 86 39 q 38 347 38 196 q 269 708 38 708 q 392 677 346 708 q 461 567 438 646 q 485 350 485 489 q 427 74 485 161 q 256 -14 369 -14 m 258 81 q 335 139 308 81 q 363 350 363 197 q 352 515 363 458 q 321 593 342 572 q 265 614 300 614 q 187 556 214 614 q 160 344 160 497 q 171 176 160 233 q 203 100 182 119 q 258 81 224 81 z "},"ỗ":{"ha":522,"x_min":38,"x_max":485,"o":"m 344 979 q 307 988 321 979 q 279 1013 293 996 q 259 1031 268 1025 q 236 1038 250 1038 q 207 1029 218 1038 q 183 1006 196 1021 q 164 990 171 990 q 141 1001 151 990 q 124 1024 131 1013 q 115 1039 117 1035 q 183 1110 146 1088 q 256 1132 219 1132 q 285 1124 274 1132 q 311 1101 297 1117 q 335 1079 325 1086 q 363 1072 346 1072 q 400 1081 388 1072 q 424 1106 413 1090 q 443 1121 436 1121 q 460 1108 453 1121 q 472 1083 468 1096 q 478 1065 476 1069 q 455 1035 474 1056 q 407 997 436 1014 q 344 979 378 979 m 349 769 q 308 813 338 781 q 268 864 278 846 q 244 835 263 857 q 206 792 226 813 q 175 771 185 771 q 107 799 132 771 l 247 951 q 268 954 261 954 q 300 940 286 954 q 369 866 319 921 q 419 799 419 811 q 399 778 419 786 q 349 769 378 769 m 256 -14 q 132 13 178 -14 q 62 117 86 39 q 38 347 38 196 q 269 708 38 708 q 392 677 346 708 q 461 567 438 646 q 485 350 485 489 q 427 74 485 161 q 256 -14 369 -14 m 258 81 q 335 139 308 81 q 363 350 363 197 q 352 515 363 458 q 321 593 342 572 q 265 614 300 614 q 187 556 214 614 q 160 344 160 497 q 171 176 160 233 q 203 100 182 119 q 258 81 224 81 z "},"ö":{"ha":522,"x_min":38,"x_max":485,"o":"m 256 -14 q 132 13 178 -14 q 62 117 86 39 q 38 347 38 196 q 269 708 38 708 q 392 677 346 708 q 461 567 438 646 q 485 350 485 489 q 427 74 485 161 q 256 -14 369 -14 m 258 81 q 335 139 308 81 q 363 350 363 197 q 352 515 363 458 q 321 593 342 572 q 265 614 300 614 q 187 556 214 614 q 160 344 160 497 q 171 176 160 233 q 203 100 182 119 q 258 81 224 81 m 178 794 q 137 815 150 796 q 124 878 124 833 q 139 936 124 915 q 185 957 154 957 q 227 940 215 957 q 239 881 239 922 q 224 817 239 839 q 178 794 208 794 m 343 794 q 303 813 317 796 q 289 872 289 831 q 350 957 289 957 q 392 940 381 957 q 404 881 404 922 q 343 794 401 794 z "},"ọ":{"ha":522,"x_min":38,"x_max":485,"o":"m 256 -14 q 132 13 178 -14 q 62 117 86 39 q 38 347 38 196 q 269 708 38 708 q 392 677 346 708 q 461 567 438 646 q 485 350 485 489 q 427 74 485 161 q 256 -14 369 -14 m 258 81 q 335 139 308 81 q 363 350 363 197 q 352 515 363 458 q 321 593 342 572 q 265 614 300 614 q 187 556 214 614 q 160 344 160 497 q 171 176 160 233 q 203 100 182 119 q 258 81 224 81 m 258 -246 q 222 -230 235 -246 q 210 -175 210 -214 q 267 -96 210 -96 q 304 -112 293 -96 q 315 -167 315 -128 q 301 -225 315 -204 q 258 -246 286 -246 z "},"ò":{"ha":522,"x_min":38,"x_max":485,"o":"m 256 -14 q 132 13 178 -14 q 62 117 86 39 q 38 347 38 196 q 269 708 38 708 q 392 677 346 708 q 461 567 438 646 q 485 350 485 489 q 427 74 485 161 q 256 -14 369 -14 m 258 81 q 335 139 308 81 q 363 350 363 197 q 352 515 363 458 q 321 593 342 572 q 265 614 300 614 q 187 556 214 614 q 160 344 160 497 q 171 176 160 233 q 203 100 182 119 q 258 81 224 81 m 349 768 q 240 840 311 789 q 154 910 169 890 q 174 967 160 940 q 206 994 188 994 q 282 938 215 994 q 392 831 349 881 q 385 811 390 826 q 369 782 379 796 q 349 768 360 768 z "},"ỏ":{"ha":522,"x_min":38,"x_max":485,"o":"m 256 -14 q 132 13 178 -14 q 62 117 86 39 q 38 347 38 196 q 269 708 38 708 q 392 677 346 708 q 461 567 438 646 q 485 350 485 489 q 427 74 485 161 q 256 -14 369 -14 m 258 81 q 335 139 308 81 q 363 350 363 197 q 352 515 363 458 q 321 593 342 572 q 265 614 300 614 q 187 556 214 614 q 160 344 160 497 q 171 176 160 233 q 203 100 182 119 q 258 81 224 81 m 218 747 q 217 753 218 749 q 217 764 217 757 q 221 786 217 779 q 235 805 225 797 q 246 814 244 813 q 268 838 261 828 q 275 869 275 849 q 219 928 275 928 q 165 911 189 928 l 165 985 q 181 997 165 990 q 218 1004 197 1004 q 328 969 294 1004 q 363 881 363 935 q 349 828 363 847 q 318 798 335 810 q 294 781 301 786 q 287 764 289 775 q 285 749 285 753 q 244 746 282 746 l 218 747 z "},"ơ":{"ha":522,"x_min":38,"x_max":508,"o":"m 507 776 q 490 701 508 739 q 428 640 471 663 q 485 350 485 560 q 427 74 485 161 q 256 -14 369 -14 q 132 13 178 -14 q 62 117 86 39 q 38 347 38 196 q 269 708 38 708 q 357 694 321 708 q 403 723 390 701 q 415 782 415 744 q 426 791 415 788 q 451 794 436 794 q 490 790 472 794 q 507 776 507 785 m 258 81 q 335 139 308 81 q 363 350 363 197 q 352 515 363 458 q 321 593 342 572 q 265 614 300 614 q 187 556 214 614 q 160 344 160 497 q 171 176 160 233 q 203 100 182 119 q 258 81 224 81 z "},"ớ":{"ha":522,"x_min":38,"x_max":507,"o":"m 507 776 q 490 701 508 739 q 428 640 471 663 q 485 350 485 560 q 427 74 485 161 q 256 -14 369 -14 q 132 13 178 -14 q 62 117 86 39 q 38 347 38 196 q 269 708 38 708 q 357 694 321 708 q 403 723 390 701 q 415 782 415 744 q 426 791 415 788 q 451 794 436 794 q 490 790 472 794 q 507 776 507 785 m 258 81 q 335 139 308 81 q 363 350 363 197 q 352 515 363 458 q 321 593 342 572 q 265 614 300 614 q 187 556 214 614 q 160 344 160 497 q 171 176 160 233 q 203 100 182 119 q 258 81 224 81 m 197 778 q 176 792 186 778 q 161 821 167 806 q 154 840 156 836 q 265 947 199 890 q 340 1003 331 1003 q 372 976 358 1003 q 392 918 386 949 q 304 849 375 900 q 197 778 233 797 z "},"ợ":{"ha":522,"x_min":38,"x_max":507,"o":"m 507 776 q 490 701 508 739 q 428 640 471 663 q 485 350 485 560 q 427 74 485 161 q 256 -14 369 -14 q 132 13 178 -14 q 62 117 86 39 q 38 347 38 196 q 269 708 38 708 q 357 694 321 708 q 403 723 390 701 q 415 782 415 744 q 426 791 415 788 q 451 794 436 794 q 490 790 472 794 q 507 776 507 785 m 258 81 q 335 139 308 81 q 363 350 363 197 q 352 515 363 458 q 321 593 342 572 q 265 614 300 614 q 187 556 214 614 q 160 344 160 497 q 171 176 160 233 q 203 100 182 119 q 258 81 224 81 m 258 -246 q 222 -230 235 -246 q 210 -175 210 -214 q 267 -96 210 -96 q 304 -112 293 -96 q 315 -167 315 -128 q 301 -225 315 -204 q 258 -246 286 -246 z "},"ờ":{"ha":522,"x_min":38,"x_max":507,"o":"m 507 776 q 490 701 508 739 q 428 640 471 663 q 485 350 485 560 q 427 74 485 161 q 256 -14 369 -14 q 132 13 178 -14 q 62 117 86 39 q 38 347 38 196 q 269 708 38 708 q 357 694 321 708 q 403 723 390 701 q 415 782 415 744 q 426 791 415 788 q 451 794 436 794 q 490 790 472 794 q 507 776 507 785 m 258 81 q 335 139 308 81 q 363 350 363 197 q 352 515 363 458 q 321 593 342 572 q 265 614 300 614 q 187 556 214 614 q 160 344 160 497 q 171 176 160 233 q 203 100 182 119 q 258 81 224 81 m 319 768 q 211 840 282 789 q 125 910 140 890 q 144 967 131 940 q 176 994 158 994 q 253 938 186 994 q 363 831 319 881 q 356 811 361 826 q 340 782 350 796 q 319 768 331 768 z "},"ở":{"ha":522,"x_min":38,"x_max":507,"o":"m 507 776 q 490 701 508 739 q 428 640 471 663 q 485 350 485 560 q 427 74 485 161 q 256 -14 369 -14 q 132 13 178 -14 q 62 117 86 39 q 38 347 38 196 q 269 708 38 708 q 357 694 321 708 q 403 723 390 701 q 415 782 415 744 q 426 791 415 788 q 451 794 436 794 q 490 790 472 794 q 507 776 507 785 m 258 81 q 335 139 308 81 q 363 350 363 197 q 352 515 363 458 q 321 593 342 572 q 265 614 300 614 q 187 556 214 614 q 160 344 160 497 q 171 176 160 233 q 203 100 182 119 q 258 81 224 81 m 218 747 q 217 753 218 749 q 217 764 217 757 q 221 786 217 779 q 235 805 225 797 q 246 814 244 813 q 268 838 261 828 q 275 869 275 849 q 219 928 275 928 q 165 911 189 928 l 165 985 q 181 997 165 990 q 218 1004 197 1004 q 328 969 294 1004 q 363 881 363 935 q 349 828 363 847 q 318 798 335 810 q 294 781 301 786 q 287 764 289 775 q 285 749 285 753 q 244 746 282 746 l 218 747 z "},"ỡ":{"ha":522,"x_min":38,"x_max":507,"o":"m 507 776 q 490 701 508 739 q 428 640 471 663 q 485 350 485 560 q 427 74 485 161 q 256 -14 369 -14 q 132 13 178 -14 q 62 117 86 39 q 38 347 38 196 q 269 708 38 708 q 357 694 321 708 q 403 723 390 701 q 415 782 415 744 q 426 791 415 788 q 451 794 436 794 q 490 790 472 794 q 507 776 507 785 m 258 81 q 335 139 308 81 q 363 350 363 197 q 352 515 363 458 q 321 593 342 572 q 265 614 300 614 q 187 556 214 614 q 160 344 160 497 q 171 176 160 233 q 203 100 182 119 q 258 81 224 81 m 318 782 q 275 792 290 782 q 244 819 260 801 q 221 842 231 835 q 196 849 211 849 q 163 839 176 849 q 135 812 150 829 q 114 794 121 794 q 88 807 100 794 q 69 833 76 819 q 60 850 61 846 q 134 929 93 904 q 217 954 175 954 q 250 946 238 954 q 279 921 263 938 q 307 896 294 904 q 338 888 319 888 q 380 898 365 888 q 408 925 394 908 q 428 942 421 942 q 447 928 439 942 q 461 899 456 914 q 468 879 467 883 q 442 844 463 867 q 388 801 421 821 q 318 782 356 782 z "},"ő":{"ha":522,"x_min":38,"x_max":485,"o":"m 256 -14 q 132 13 178 -14 q 62 117 86 39 q 38 347 38 196 q 269 708 38 708 q 392 677 346 708 q 461 567 438 646 q 485 350 485 489 q 427 74 485 161 q 256 -14 369 -14 m 258 81 q 335 139 308 81 q 363 350 363 197 q 352 515 363 458 q 321 593 342 572 q 265 614 300 614 q 187 556 214 614 q 160 344 160 497 q 171 176 160 233 q 203 100 182 119 q 258 81 224 81 m 163 768 q 138 776 151 765 q 115 799 125 786 q 103 815 106 811 q 175 932 129 868 q 231 1000 221 996 q 268 982 247 1004 q 301 933 289 960 q 242 853 292 913 q 163 768 192 794 m 338 768 q 313 776 326 765 q 291 799 300 786 q 279 815 282 811 q 350 931 304 867 q 404 1000 396 996 q 443 983 422 1004 q 476 933 464 961 q 416 853 467 913 q 338 768 365 794 z "},"ō":{"ha":522,"x_min":38,"x_max":485,"o":"m 256 -14 q 132 13 178 -14 q 62 117 86 39 q 38 347 38 196 q 269 708 38 708 q 392 677 346 708 q 461 567 438 646 q 485 350 485 489 q 427 74 485 161 q 256 -14 369 -14 m 258 81 q 335 139 308 81 q 363 350 363 197 q 352 515 363 458 q 321 593 342 572 q 265 614 300 614 q 187 556 214 614 q 160 344 160 497 q 171 176 160 233 q 203 100 182 119 q 258 81 224 81 m 85 815 q 78 867 78 835 q 90 906 78 892 q 124 921 103 921 l 439 921 q 449 874 449 897 q 438 832 449 849 q 407 815 426 815 l 85 815 z "},"ø":{"ha":572,"x_min":24,"x_max":560,"o":"m 560 679 q 538 631 560 672 q 494 549 517 589 q 513 350 513 476 q 456 74 513 161 q 288 -14 400 -14 q 194 -2 232 -14 q 129 40 156 10 l 86 -36 q 44 -19 64 -32 q 24 11 24 -6 q 88 128 24 19 q 67 347 67 207 q 296 708 67 708 q 385 695 347 708 q 449 650 422 682 q 496 725 488 715 q 516 718 500 724 q 546 702 532 713 q 560 679 560 692 m 293 611 q 215 553 242 611 q 188 344 188 496 q 190 244 188 300 l 369 561 q 339 601 357 590 q 293 611 321 611 m 288 81 q 365 140 338 81 q 392 350 392 199 q 388 460 392 414 q 269 249 382 449 l 208 140 q 239 93 219 106 q 288 81 258 81 z "},"õ":{"ha":522,"x_min":38,"x_max":485,"o":"m 256 -14 q 132 13 178 -14 q 62 117 86 39 q 38 347 38 196 q 269 708 38 708 q 392 677 346 708 q 461 567 438 646 q 485 350 485 489 q 427 74 485 161 q 256 -14 369 -14 m 258 81 q 335 139 308 81 q 363 350 363 197 q 352 515 363 458 q 321 593 342 572 q 265 614 300 614 q 187 556 214 614 q 160 344 160 497 q 171 176 160 233 q 203 100 182 119 q 258 81 224 81 m 318 782 q 275 792 290 782 q 244 819 260 801 q 221 842 231 835 q 196 849 211 849 q 163 839 176 849 q 135 812 150 829 q 114 794 121 794 q 88 807 100 794 q 69 833 76 819 q 60 850 61 846 q 134 929 93 904 q 217 954 175 954 q 250 946 238 954 q 279 921 263 938 q 307 896 294 904 q 338 888 319 888 q 380 898 365 888 q 408 925 394 908 q 428 942 421 942 q 447 928 439 942 q 461 899 456 914 q 468 879 467 883 q 442 844 463 867 q 388 801 421 821 q 318 782 356 782 z "},"œ":{"ha":831,"x_min":38,"x_max":794,"o":"m 606 94 q 775 139 701 94 q 783 94 781 124 q 786 39 786 64 q 759 17 786 29 q 687 -5 732 4 q 593 -14 642 -14 q 489 2 532 -14 q 419 61 446 18 q 260 -14 363 -14 q 133 13 179 -14 q 62 117 86 39 q 38 347 38 196 q 268 707 38 707 q 369 689 328 707 q 435 628 410 671 q 512 692 467 675 q 618 708 557 708 q 794 488 794 708 q 778 306 794 381 q 636 288 718 293 q 486 283 554 283 q 501 160 488 201 q 540 107 515 119 q 606 94 564 94 m 258 81 q 335 139 308 81 q 363 350 363 197 q 352 515 363 458 q 322 590 342 571 q 265 610 301 610 q 187 553 214 610 q 160 344 160 496 q 171 176 160 233 q 203 100 182 119 q 258 81 224 81 m 604 610 q 524 558 556 610 q 488 372 493 507 q 678 389 625 372 q 685 475 685 421 q 667 581 683 551 q 604 610 650 610 z "},"p":{"ha":531,"x_min":64,"x_max":493,"o":"m 118 -274 q 76 -263 88 -274 q 64 -225 64 -253 l 64 653 q 267 708 151 708 q 435 644 378 708 q 493 419 493 581 q 434 77 493 168 q 286 -14 375 -14 q 222 -3 250 -14 q 176 25 193 8 l 176 -265 q 118 -274 150 -274 m 251 86 q 369 407 369 86 q 358 533 369 489 q 323 594 346 578 q 261 611 300 611 q 176 585 214 611 l 176 132 q 251 86 204 86 z "},"þ":{"ha":533,"x_min":64,"x_max":493,"o":"m 267 707 q 436 643 379 707 q 493 417 493 579 q 429 78 493 171 q 282 -14 365 -14 q 176 22 213 -14 l 176 -269 q 110 -278 150 -278 q 72 -269 81 -278 q 64 -231 64 -260 l 64 969 q 73 1006 64 996 q 103 1019 82 1017 q 176 1021 124 1021 l 176 697 q 267 707 217 707 m 247 82 q 332 151 294 83 q 369 407 369 219 q 357 535 369 492 q 322 594 344 579 q 261 610 300 610 q 176 581 214 610 l 176 122 q 247 82 199 82 z "},"q":{"ha":538,"x_min":42,"x_max":475,"o":"m 408 -275 q 363 -271 383 -275 l 363 47 q 229 -14 321 -14 q 95 53 149 -14 q 42 303 42 119 q 119 613 42 518 q 326 708 197 708 q 408 698 374 708 q 475 665 443 688 l 475 -226 q 463 -266 475 -258 q 408 -275 451 -274 m 271 85 q 324 102 299 83 q 363 156 350 121 l 363 592 q 299 611 338 611 q 201 540 235 611 q 168 306 168 469 q 197 131 168 176 q 271 85 225 85 z "},"r":{"ha":365,"x_min":63,"x_max":349,"o":"m 63 646 q 251 708 151 708 q 326 694 303 708 q 349 650 349 679 q 336 585 349 615 q 269 601 307 601 q 178 569 215 601 l 176 22 q 171 6 176 10 q 138 1 165 1 q 63 0 110 0 l 63 646 z "},"ŕ":{"ha":365,"x_min":63,"x_max":349,"o":"m 63 646 q 251 708 151 708 q 326 694 303 708 q 349 650 349 679 q 336 585 349 615 q 269 601 307 601 q 178 569 215 601 l 176 22 q 171 6 176 10 q 138 1 165 1 q 63 0 110 0 l 63 646 m 129 778 q 108 792 118 778 q 93 821 99 806 q 86 840 88 836 q 197 947 131 890 q 272 1003 263 1003 q 304 976 290 1003 q 324 918 318 949 q 236 849 307 900 q 129 778 165 797 z "},"ř":{"ha":365,"x_min":33,"x_max":358,"o":"m 63 646 q 251 708 151 708 q 326 694 303 708 q 349 650 349 679 q 336 585 349 615 q 269 601 307 601 q 178 569 215 601 l 176 22 q 171 6 176 10 q 138 1 165 1 q 63 0 110 0 l 63 646 m 204 774 q 119 838 186 774 q 33 928 51 901 q 57 976 42 953 q 85 999 72 999 q 124 972 96 999 q 176 917 151 946 q 208 879 201 888 q 254 937 231 911 q 294 977 278 963 q 314 996 310 992 q 358 944 358 969 q 324 890 358 932 q 253 811 290 849 q 204 774 215 774 z "},"ŗ":{"ha":365,"x_min":49,"x_max":349,"o":"m 63 646 q 251 708 151 708 q 326 694 303 708 q 349 650 349 679 q 336 585 349 615 q 269 601 307 601 q 178 569 215 601 l 176 22 q 171 6 176 10 q 138 1 165 1 q 63 0 110 0 l 63 646 m 93 -365 q 49 -333 56 -365 q 78 -272 71 -296 q 89 -215 86 -247 q 56 -147 56 -193 q 76 -95 56 -115 q 126 -75 96 -75 q 201 -157 201 -75 q 181 -252 201 -204 q 133 -333 160 -300 q 93 -365 107 -365 z "},"s":{"ha":481,"x_min":42,"x_max":444,"o":"m 211 -14 q 88 4 135 -14 q 42 56 42 22 q 63 121 42 89 q 200 88 119 88 q 284 109 254 88 q 314 172 314 131 q 301 229 314 203 q 258 282 289 256 l 124 397 q 43 544 43 463 q 101 665 43 621 q 271 708 158 708 q 405 683 365 708 q 444 631 444 658 q 438 602 444 618 q 421 574 431 586 q 283 611 360 611 q 203 593 233 611 q 174 543 174 575 q 185 503 174 522 q 229 457 196 485 l 358 353 q 423 269 404 308 q 442 179 442 231 q 380 37 442 88 q 211 -14 318 -14 z "},"ś":{"ha":481,"x_min":42,"x_max":444,"o":"m 211 -14 q 88 4 135 -14 q 42 56 42 22 q 63 121 42 89 q 200 88 119 88 q 284 109 254 88 q 314 172 314 131 q 301 229 314 203 q 258 282 289 256 l 124 397 q 43 544 43 463 q 101 665 43 621 q 271 708 158 708 q 405 683 365 708 q 444 631 444 658 q 438 602 444 618 q 421 574 431 586 q 283 611 360 611 q 203 593 233 611 q 174 543 174 575 q 185 503 174 522 q 229 457 196 485 l 358 353 q 423 269 404 308 q 442 179 442 231 q 380 37 442 88 q 211 -14 318 -14 m 174 778 q 153 792 163 778 q 138 821 143 806 q 131 840 132 836 q 241 947 175 890 q 317 1003 307 1003 q 349 976 335 1003 q 368 918 363 949 q 281 849 351 900 q 174 778 210 797 z "},"š":{"ha":481,"x_min":42,"x_max":444,"o":"m 211 -14 q 88 4 135 -14 q 42 56 42 22 q 63 121 42 89 q 200 88 119 88 q 284 109 254 88 q 314 172 314 131 q 301 229 314 203 q 258 282 289 256 l 124 397 q 43 544 43 463 q 101 665 43 621 q 271 708 158 708 q 405 683 365 708 q 444 631 444 658 q 438 602 444 618 q 421 574 431 586 q 283 611 360 611 q 203 593 233 611 q 174 543 174 575 q 185 503 174 522 q 229 457 196 485 l 358 353 q 423 269 404 308 q 442 179 442 231 q 380 37 442 88 q 211 -14 318 -14 m 249 774 q 163 838 231 774 q 78 928 96 901 q 101 976 86 953 q 129 999 117 999 q 168 972 140 999 q 221 917 196 946 q 253 879 246 888 q 299 937 275 911 q 338 977 322 963 q 358 996 354 992 q 403 944 403 969 q 369 890 403 932 q 297 811 335 849 q 249 774 260 774 z "},"ş":{"ha":481,"x_min":42,"x_max":444,"o":"m 358 353 q 423 269 404 308 q 442 179 442 231 q 394 49 442 99 q 261 -11 346 0 l 247 -82 q 271 -81 249 -81 q 319 -103 299 -81 q 339 -169 339 -125 q 308 -254 339 -222 q 228 -286 276 -286 q 176 -278 201 -286 q 150 -268 150 -269 q 157 -239 151 -261 q 168 -211 163 -217 q 194 -217 172 -207 q 231 -226 215 -226 q 274 -179 274 -226 q 232 -132 274 -132 q 194 -135 210 -132 q 175 -140 179 -139 l 199 -14 q 84 6 126 -11 q 42 56 42 24 q 63 121 42 89 q 200 88 119 88 q 284 109 254 88 q 314 172 314 131 q 301 229 314 203 q 258 282 289 256 l 124 397 q 43 544 43 463 q 101 665 43 621 q 271 708 158 708 q 405 683 365 708 q 444 631 444 658 q 438 602 444 618 q 421 574 431 586 q 283 611 360 611 q 203 593 233 611 q 174 543 174 575 q 185 503 174 522 q 229 457 196 485 l 358 353 z "},"ș":{"ha":481,"x_min":42,"x_max":444,"o":"m 211 -14 q 88 4 135 -14 q 42 56 42 22 q 63 121 42 89 q 200 88 119 88 q 284 109 254 88 q 314 172 314 131 q 301 229 314 203 q 258 282 289 256 l 124 397 q 43 544 43 463 q 101 665 43 621 q 271 708 158 708 q 405 683 365 708 q 444 631 444 658 q 438 602 444 618 q 421 574 431 586 q 283 611 360 611 q 203 593 233 611 q 174 543 174 575 q 185 503 174 522 q 229 457 196 485 l 358 353 q 423 269 404 308 q 442 179 442 231 q 380 37 442 88 q 211 -14 318 -14 m 208 -365 q 164 -333 171 -365 q 194 -272 186 -296 q 204 -215 201 -247 q 171 -147 171 -193 q 191 -95 171 -115 q 242 -75 211 -75 q 317 -157 317 -75 q 296 -252 317 -204 q 249 -333 275 -300 q 208 -365 222 -365 z "},"ß":{"ha":646,"x_min":54,"x_max":633,"o":"m 117 -12 q 72 -6 90 -12 q 54 3 54 1 q 59 18 56 6 q 66 53 63 31 q 69 103 69 75 l 67 764 q 125 926 67 874 q 289 979 183 979 q 447 951 385 979 q 539 876 510 922 q 568 779 568 831 q 547 708 568 735 q 483 649 525 681 q 433 606 449 624 q 417 560 417 588 q 435 511 417 535 q 493 451 454 488 q 565 375 538 408 q 613 295 593 342 q 633 192 633 249 q 578 42 633 97 q 425 -12 522 -12 q 336 -3 374 -12 q 279 22 299 7 q 260 50 260 36 q 289 125 260 96 q 331 100 301 113 q 400 88 361 88 q 479 114 450 88 q 508 190 508 140 q 481 279 508 239 q 400 375 454 319 q 321 468 347 429 q 294 554 294 507 q 317 628 294 600 q 383 690 339 657 q 433 734 417 715 q 449 778 449 753 q 409 847 449 818 q 297 875 369 875 q 205 835 231 875 q 179 700 179 794 l 182 61 q 169 3 182 19 q 117 -12 157 -12 z "},"ſ":{"ha":242,"x_min":54,"x_max":467,"o":"m 111 -11 q 69 -5 85 -11 q 54 4 54 1 q 60 40 56 13 q 64 100 64 68 l 64 817 q 124 976 64 928 q 304 1025 183 1025 q 420 1003 374 1025 q 467 953 467 982 q 458 917 467 938 q 439 882 450 896 q 374 917 406 907 q 301 928 343 928 q 206 891 235 928 q 176 774 176 854 l 176 42 q 163 -1 176 10 q 111 -11 149 -11 z "},"t":{"ha":406,"x_min":26,"x_max":376,"o":"m 253 -14 q 167 10 196 -14 q 130 78 139 35 q 121 193 121 122 l 121 599 l 26 599 q 28 659 26 636 q 34 688 29 682 q 50 694 39 694 l 121 694 l 121 906 q 130 933 121 925 q 159 942 139 940 q 232 944 179 944 l 232 694 l 376 694 q 375 633 376 657 q 369 604 374 610 q 353 599 364 599 l 232 599 l 232 193 q 241 109 232 136 q 283 82 250 82 q 322 87 306 82 q 364 103 339 92 q 372 47 372 75 q 338 0 372 14 q 253 -14 303 -14 z "},"ť":{"ha":450,"x_min":26,"x_max":460,"o":"m 253 -14 q 167 10 196 -14 q 130 78 139 35 q 121 193 121 122 l 121 599 l 26 599 q 28 659 26 636 q 34 688 29 682 q 50 694 39 694 l 121 694 l 121 906 q 130 933 121 925 q 159 942 139 940 q 232 944 179 944 l 232 694 l 376 694 q 375 633 376 657 q 369 604 374 610 q 353 599 364 599 l 232 599 l 232 193 q 241 109 232 136 q 283 82 250 82 q 322 87 306 82 q 364 103 339 92 q 372 47 372 75 q 338 0 372 14 q 253 -14 303 -14 m 356 735 q 311 767 321 735 q 337 832 331 803 q 346 901 343 861 q 314 968 314 921 q 333 1020 314 1000 q 383 1040 353 1040 q 460 958 460 1040 q 440 859 460 911 q 394 771 419 807 q 356 735 368 735 z "},"ţ":{"ha":406,"x_min":26,"x_max":376,"o":"m 283 82 q 322 87 306 82 q 364 103 339 92 q 372 47 372 75 q 338 0 372 14 q 253 -14 303 -14 l 244 -14 l 231 -82 q 254 -81 232 -81 q 302 -103 282 -81 q 322 -169 322 -125 q 291 -254 322 -222 q 211 -286 260 -286 q 159 -278 185 -286 q 133 -268 133 -269 q 140 -239 135 -261 q 151 -211 146 -217 q 177 -217 156 -207 q 214 -226 199 -226 q 257 -179 257 -226 q 215 -132 257 -132 q 178 -135 193 -132 q 158 -140 163 -139 l 185 0 q 133 66 146 19 q 121 193 121 113 l 121 599 l 26 599 q 28 659 26 636 q 34 688 29 682 q 50 694 39 694 l 121 694 l 121 906 q 130 933 121 925 q 159 942 139 940 q 232 944 179 944 l 232 694 l 376 694 q 375 633 376 657 q 369 604 374 610 q 353 599 364 599 l 232 599 l 232 193 q 241 109 232 136 q 283 82 250 82 z "},"ț":{"ha":406,"x_min":26,"x_max":376,"o":"m 253 -14 q 167 10 196 -14 q 130 78 139 35 q 121 193 121 122 l 121 599 l 26 599 q 28 659 26 636 q 34 688 29 682 q 50 694 39 694 l 121 694 l 121 906 q 130 933 121 925 q 159 942 139 940 q 232 944 179 944 l 232 694 l 376 694 q 375 633 376 657 q 369 604 374 610 q 353 599 364 599 l 232 599 l 232 193 q 241 109 232 136 q 283 82 250 82 q 322 87 306 82 q 364 103 339 92 q 372 47 372 75 q 338 0 372 14 q 253 -14 303 -14 m 192 -365 q 147 -333 154 -365 q 177 -272 169 -296 q 188 -215 185 -247 q 154 -147 154 -193 q 174 -95 154 -115 q 225 -75 194 -75 q 300 -157 300 -75 q 279 -252 300 -204 q 232 -333 258 -300 q 192 -365 206 -365 z "},"u":{"ha":540,"x_min":63,"x_max":478,"o":"m 269 -14 q 143 11 188 -14 q 81 85 99 36 q 63 217 63 135 l 63 672 q 67 689 63 685 q 101 694 72 693 q 178 694 129 694 l 178 207 q 197 110 178 136 q 272 83 215 83 q 365 110 328 83 l 365 672 q 371 689 365 685 q 403 694 376 693 q 478 694 431 694 l 478 36 q 381 0 436 14 q 269 -14 325 -14 z "},"ú":{"ha":540,"x_min":63,"x_max":478,"o":"m 269 -14 q 143 11 188 -14 q 81 85 99 36 q 63 217 63 135 l 63 672 q 67 689 63 685 q 101 694 72 693 q 178 694 129 694 l 178 207 q 197 110 178 136 q 272 83 215 83 q 365 110 328 83 l 365 672 q 371 689 365 685 q 403 694 376 693 q 478 694 431 694 l 478 36 q 381 0 436 14 q 269 -14 325 -14 m 204 778 q 183 792 193 778 q 168 821 174 806 q 161 840 163 836 q 272 947 206 890 q 347 1003 338 1003 q 379 976 365 1003 q 399 918 393 949 q 311 849 382 900 q 204 778 240 797 z "},"û":{"ha":540,"x_min":63,"x_max":478,"o":"m 269 -14 q 143 11 188 -14 q 81 85 99 36 q 63 217 63 135 l 63 672 q 67 689 63 685 q 101 694 72 693 q 178 694 129 694 l 178 207 q 197 110 178 136 q 272 83 215 83 q 365 110 328 83 l 365 672 q 371 689 365 685 q 403 694 376 693 q 478 694 431 694 l 478 36 q 381 0 436 14 q 269 -14 325 -14 m 367 779 q 320 828 354 792 q 275 886 286 865 q 249 853 269 878 q 205 804 228 828 q 171 781 182 781 q 94 813 121 781 l 253 983 q 276 988 264 988 q 311 971 296 988 q 353 926 321 961 q 416 856 386 892 q 446 811 446 821 q 422 788 446 797 q 367 779 399 779 z "},"ü":{"ha":540,"x_min":63,"x_max":478,"o":"m 269 -14 q 143 11 188 -14 q 81 85 99 36 q 63 217 63 135 l 63 672 q 67 689 63 685 q 101 694 72 693 q 178 694 129 694 l 178 207 q 197 110 178 136 q 272 83 215 83 q 365 110 328 83 l 365 672 q 371 689 365 685 q 403 694 376 693 q 478 694 431 694 l 478 36 q 381 0 436 14 q 269 -14 325 -14 m 185 794 q 144 815 157 796 q 131 878 131 833 q 146 936 131 915 q 192 957 161 957 q 234 940 222 957 q 246 881 246 922 q 231 817 246 839 q 185 794 215 794 m 350 794 q 310 813 324 796 q 296 872 296 831 q 357 957 296 957 q 399 940 388 957 q 411 881 411 922 q 350 794 408 794 z "},"ụ":{"ha":540,"x_min":63,"x_max":478,"o":"m 269 -14 q 143 11 188 -14 q 81 85 99 36 q 63 217 63 135 l 63 672 q 67 689 63 685 q 101 694 72 693 q 178 694 129 694 l 178 207 q 197 110 178 136 q 272 83 215 83 q 365 110 328 83 l 365 672 q 371 689 365 685 q 403 694 376 693 q 478 694 431 694 l 478 36 q 381 0 436 14 q 269 -14 325 -14 m 268 -246 q 232 -230 244 -246 q 219 -175 219 -214 q 276 -96 219 -96 q 314 -112 303 -96 q 325 -167 325 -128 q 310 -225 325 -204 q 268 -246 296 -246 z "},"ù":{"ha":540,"x_min":63,"x_max":478,"o":"m 269 -14 q 143 11 188 -14 q 81 85 99 36 q 63 217 63 135 l 63 672 q 67 689 63 685 q 101 694 72 693 q 178 694 129 694 l 178 207 q 197 110 178 136 q 272 83 215 83 q 365 110 328 83 l 365 672 q 371 689 365 685 q 403 694 376 693 q 478 694 431 694 l 478 36 q 381 0 436 14 q 269 -14 325 -14 m 356 768 q 247 840 318 789 q 161 910 176 890 q 181 967 167 940 q 213 994 194 994 q 289 938 222 994 q 399 831 356 881 q 392 811 397 826 q 376 782 386 796 q 356 768 367 768 z "},"ủ":{"ha":540,"x_min":63,"x_max":478,"o":"m 269 -14 q 143 11 188 -14 q 81 85 99 36 q 63 217 63 135 l 63 672 q 67 689 63 685 q 101 694 72 693 q 178 694 129 694 l 178 207 q 197 110 178 136 q 272 83 215 83 q 365 110 328 83 l 365 672 q 371 689 365 685 q 403 694 376 693 q 478 694 431 694 l 478 36 q 381 0 436 14 q 269 -14 325 -14 m 225 747 q 224 753 225 749 q 224 764 224 757 q 228 786 224 779 q 242 805 232 797 q 253 814 251 813 q 275 838 268 828 q 282 869 282 849 q 226 928 282 928 q 172 911 196 928 l 172 985 q 188 997 172 990 q 225 1004 204 1004 q 335 969 301 1004 q 369 881 369 935 q 356 828 369 847 q 325 798 342 810 q 301 781 308 786 q 294 764 296 775 q 292 749 292 753 q 251 746 289 746 l 225 747 z "},"ư":{"ha":540,"x_min":63,"x_max":593,"o":"m 590 776 q 566 689 593 732 q 478 628 539 646 l 478 36 q 381 0 436 14 q 269 -14 325 -14 q 143 11 188 -14 q 81 85 99 36 q 63 217 63 135 l 63 672 q 67 689 63 685 q 101 694 72 693 q 178 694 129 694 l 178 207 q 197 110 178 136 q 272 83 215 83 q 365 110 328 83 l 365 672 q 369 688 365 683 q 390 693 372 692 q 438 694 407 694 q 485 723 472 701 q 499 782 499 744 q 509 791 499 788 q 535 794 519 794 q 573 790 556 794 q 590 776 590 785 z "},"ứ":{"ha":540,"x_min":63,"x_max":590,"o":"m 590 776 q 566 689 593 732 q 478 628 539 646 l 478 36 q 381 0 436 14 q 269 -14 325 -14 q 143 11 188 -14 q 81 85 99 36 q 63 217 63 135 l 63 672 q 67 689 63 685 q 101 694 72 693 q 178 694 129 694 l 178 207 q 197 110 178 136 q 272 83 215 83 q 365 110 328 83 l 365 672 q 369 688 365 683 q 390 693 372 692 q 438 694 407 694 q 485 723 472 701 q 499 782 499 744 q 509 791 499 788 q 535 794 519 794 q 573 790 556 794 q 590 776 590 785 m 204 778 q 183 792 193 778 q 168 821 174 806 q 161 840 163 836 q 272 947 206 890 q 347 1003 338 1003 q 379 976 365 1003 q 399 918 393 949 q 311 849 382 900 q 204 778 240 797 z "},"ự":{"ha":540,"x_min":63,"x_max":590,"o":"m 590 776 q 566 689 593 732 q 478 628 539 646 l 478 36 q 381 0 436 14 q 269 -14 325 -14 q 143 11 188 -14 q 81 85 99 36 q 63 217 63 135 l 63 672 q 67 689 63 685 q 101 694 72 693 q 178 694 129 694 l 178 207 q 197 110 178 136 q 272 83 215 83 q 365 110 328 83 l 365 672 q 369 688 365 683 q 390 693 372 692 q 438 694 407 694 q 485 723 472 701 q 499 782 499 744 q 509 791 499 788 q 535 794 519 794 q 573 790 556 794 q 590 776 590 785 m 268 -246 q 232 -230 244 -246 q 219 -175 219 -214 q 276 -96 219 -96 q 314 -112 303 -96 q 325 -167 325 -128 q 310 -225 325 -204 q 268 -246 296 -246 z "},"ừ":{"ha":540,"x_min":63,"x_max":590,"o":"m 590 776 q 566 689 593 732 q 478 628 539 646 l 478 36 q 381 0 436 14 q 269 -14 325 -14 q 143 11 188 -14 q 81 85 99 36 q 63 217 63 135 l 63 672 q 67 689 63 685 q 101 694 72 693 q 178 694 129 694 l 178 207 q 197 110 178 136 q 272 83 215 83 q 365 110 328 83 l 365 672 q 369 688 365 683 q 390 693 372 692 q 438 694 407 694 q 485 723 472 701 q 499 782 499 744 q 509 791 499 788 q 535 794 519 794 q 573 790 556 794 q 590 776 590 785 m 326 768 q 218 840 289 789 q 132 910 147 890 q 151 967 138 940 q 183 994 165 994 q 260 938 193 994 q 369 831 326 881 q 363 811 368 826 q 347 782 357 796 q 326 768 338 768 z "},"ử":{"ha":540,"x_min":63,"x_max":590,"o":"m 590 776 q 566 689 593 732 q 478 628 539 646 l 478 36 q 381 0 436 14 q 269 -14 325 -14 q 143 11 188 -14 q 81 85 99 36 q 63 217 63 135 l 63 672 q 67 689 63 685 q 101 694 72 693 q 178 694 129 694 l 178 207 q 197 110 178 136 q 272 83 215 83 q 365 110 328 83 l 365 672 q 369 688 365 683 q 390 693 372 692 q 438 694 407 694 q 485 723 472 701 q 499 782 499 744 q 509 791 499 788 q 535 794 519 794 q 573 790 556 794 q 590 776 590 785 m 225 747 q 224 753 225 749 q 224 764 224 757 q 228 786 224 779 q 242 805 232 797 q 253 814 251 813 q 275 838 268 828 q 282 869 282 849 q 226 928 282 928 q 172 911 196 928 l 172 985 q 188 997 172 990 q 225 1004 204 1004 q 335 969 301 1004 q 369 881 369 935 q 356 828 369 847 q 325 798 342 810 q 301 781 308 786 q 294 764 296 775 q 292 749 292 753 q 251 746 289 746 l 225 747 z "},"ữ":{"ha":540,"x_min":63,"x_max":590,"o":"m 590 776 q 566 689 593 732 q 478 628 539 646 l 478 36 q 381 0 436 14 q 269 -14 325 -14 q 143 11 188 -14 q 81 85 99 36 q 63 217 63 135 l 63 672 q 67 689 63 685 q 101 694 72 693 q 178 694 129 694 l 178 207 q 197 110 178 136 q 272 83 215 83 q 365 110 328 83 l 365 672 q 369 688 365 683 q 390 693 372 692 q 438 694 407 694 q 485 723 472 701 q 499 782 499 744 q 509 791 499 788 q 535 794 519 794 q 573 790 556 794 q 590 776 590 785 m 325 782 q 282 792 297 782 q 251 819 267 801 q 228 842 238 835 q 203 849 218 849 q 170 839 183 849 q 142 812 157 829 q 121 794 128 794 q 95 807 107 794 q 76 833 83 819 q 67 850 68 846 q 141 929 100 904 q 224 954 182 954 q 257 946 244 954 q 286 921 269 938 q 314 896 301 904 q 344 888 326 888 q 387 898 372 888 q 415 925 401 908 q 435 942 428 942 q 454 928 446 942 q 468 899 463 914 q 475 879 474 883 q 449 844 469 867 q 395 801 428 821 q 325 782 363 782 z "},"ű":{"ha":540,"x_min":63,"x_max":483,"o":"m 269 -14 q 143 11 188 -14 q 81 85 99 36 q 63 217 63 135 l 63 672 q 67 689 63 685 q 101 694 72 693 q 178 694 129 694 l 178 207 q 197 110 178 136 q 272 83 215 83 q 365 110 328 83 l 365 672 q 371 689 365 685 q 403 694 376 693 q 478 694 431 694 l 478 36 q 381 0 436 14 q 269 -14 325 -14 m 169 768 q 145 776 158 765 q 122 799 132 786 q 110 815 113 811 q 182 932 136 868 q 238 1000 228 996 q 275 982 254 1004 q 308 933 296 960 q 249 853 299 913 q 169 768 199 794 m 344 768 q 320 776 333 765 q 298 799 307 786 q 286 815 289 811 q 357 931 311 867 q 411 1000 403 996 q 450 983 429 1004 q 483 933 471 961 q 423 853 474 913 q 344 768 372 794 z "},"ū":{"ha":540,"x_min":63,"x_max":478,"o":"m 269 -14 q 143 11 188 -14 q 81 85 99 36 q 63 217 63 135 l 63 672 q 67 689 63 685 q 101 694 72 693 q 178 694 129 694 l 178 207 q 197 110 178 136 q 272 83 215 83 q 365 110 328 83 l 365 672 q 371 689 365 685 q 403 694 376 693 q 478 694 431 694 l 478 36 q 381 0 436 14 q 269 -14 325 -14 m 92 815 q 85 867 85 835 q 97 906 85 892 q 131 921 110 921 l 446 921 q 456 874 456 897 q 444 832 456 849 q 414 815 433 815 l 92 815 z "},"ų":{"ha":540,"x_min":63,"x_max":478,"o":"m 389 -271 q 275 -154 275 -271 q 333 -7 275 -81 q 269 -14 307 -14 q 143 11 188 -14 q 81 85 99 36 q 63 217 63 135 l 63 672 q 67 689 63 685 q 101 694 72 693 q 178 694 129 694 l 178 207 q 196 110 178 138 q 268 83 214 83 q 365 110 328 83 l 365 672 q 371 689 365 685 q 403 694 376 693 q 478 694 431 694 l 478 36 q 406 -42 438 7 q 375 -139 375 -92 q 421 -189 375 -189 q 460 -179 443 -189 q 472 -221 468 -196 q 468 -242 472 -236 q 389 -271 457 -271 z "},"ů":{"ha":540,"x_min":63,"x_max":478,"o":"m 269 -14 q 143 11 188 -14 q 81 85 99 36 q 63 217 63 135 l 63 672 q 67 689 63 685 q 101 694 72 693 q 178 694 129 694 l 178 207 q 197 110 178 136 q 272 83 215 83 q 365 110 328 83 l 365 672 q 371 689 365 685 q 403 694 376 693 q 478 694 431 694 l 478 36 q 381 0 436 14 q 269 -14 325 -14 m 267 754 q 169 784 201 754 q 138 888 138 814 q 174 990 138 956 q 276 1024 210 1024 q 374 994 343 1024 q 404 889 404 964 q 369 788 404 822 q 267 754 333 754 m 269 829 q 326 889 326 829 q 314 933 326 919 q 276 946 301 946 q 217 886 217 946 q 230 844 217 858 q 269 829 243 829 z "},"ũ":{"ha":540,"x_min":63,"x_max":478,"o":"m 269 -14 q 143 11 188 -14 q 81 85 99 36 q 63 217 63 135 l 63 672 q 67 689 63 685 q 101 694 72 693 q 178 694 129 694 l 178 207 q 197 110 178 136 q 272 83 215 83 q 365 110 328 83 l 365 672 q 371 689 365 685 q 403 694 376 693 q 478 694 431 694 l 478 36 q 381 0 436 14 q 269 -14 325 -14 m 325 782 q 282 792 297 782 q 251 819 267 801 q 228 842 238 835 q 203 849 218 849 q 170 839 183 849 q 142 812 157 829 q 121 794 128 794 q 95 807 107 794 q 76 833 83 819 q 67 850 68 846 q 141 929 100 904 q 224 954 182 954 q 257 946 244 954 q 286 921 269 938 q 314 896 301 904 q 344 888 326 888 q 387 898 372 888 q 415 925 401 908 q 435 942 428 942 q 454 928 446 942 q 468 899 463 914 q 475 879 474 883 q 449 844 469 867 q 395 801 428 821 q 325 782 363 782 z "},"v":{"ha":478,"x_min":24,"x_max":456,"o":"m 217 -8 q 188 9 199 -8 q 168 60 176 26 l 26 660 q 24 676 24 674 q 33 690 24 686 q 72 694 42 693 q 144 694 101 694 l 189 471 q 224 267 208 381 q 244 119 240 154 l 247 119 q 267 267 251 154 q 300 472 282 381 l 338 669 q 346 688 340 683 q 380 693 351 692 q 456 694 408 694 l 296 -4 q 217 -8 275 -8 z "},"w":{"ha":751,"x_min":19,"x_max":731,"o":"m 619 669 q 628 688 622 683 q 661 693 635 692 q 731 694 688 694 q 647 290 708 585 q 581 -4 585 -4 q 557 -7 576 -6 q 508 -8 538 -8 q 474 10 492 -8 q 450 64 457 29 l 432 158 q 381 504 400 306 q 329 157 356 285 l 297 -4 q 260 -7 288 -6 q 204 -8 233 -8 q 157 60 171 -8 q 85 383 132 167 q 22 671 38 600 q 26 688 19 683 q 64 693 33 692 q 143 694 94 694 l 186 468 q 217 265 203 371 q 235 129 231 160 l 243 129 q 282 386 269 318 l 326 651 q 335 671 329 667 q 363 675 342 675 l 436 675 l 490 383 q 518 235 506 317 q 533 129 531 154 l 540 129 q 558 292 546 194 q 585 468 571 389 l 619 669 z "},"ẃ":{"ha":751,"x_min":21,"x_max":731,"o":"m 619 669 q 628 688 622 683 q 661 693 635 692 q 731 694 688 694 q 647 290 708 585 q 581 -4 585 -4 q 557 -7 576 -6 q 508 -8 538 -8 q 474 10 492 -8 q 450 64 457 29 l 432 158 q 381 504 400 306 q 329 157 356 285 l 297 -4 q 260 -7 288 -6 q 204 -8 233 -8 q 157 60 171 -8 q 85 383 132 167 q 22 671 38 600 q 26 688 19 683 q 64 693 33 692 q 143 694 94 694 l 186 468 q 217 265 203 371 q 235 129 231 160 l 243 129 q 282 386 269 318 l 326 651 q 335 671 329 667 q 363 675 342 675 l 436 675 l 490 383 q 518 235 506 317 q 533 129 531 154 l 540 129 q 558 292 546 194 q 585 468 571 389 l 619 669 m 310 778 q 289 792 299 778 q 274 821 279 806 q 267 840 268 836 q 377 947 311 890 q 453 1003 443 1003 q 485 976 471 1003 q 504 918 499 949 q 417 849 488 900 q 310 778 346 797 z "},"ŵ":{"ha":751,"x_min":21,"x_max":731,"o":"m 619 669 q 628 688 622 683 q 661 693 635 692 q 731 694 688 694 q 647 290 708 585 q 581 -4 585 -4 q 557 -7 576 -6 q 508 -8 538 -8 q 474 10 492 -8 q 450 64 457 29 l 432 158 q 381 504 400 306 q 329 157 356 285 l 297 -4 q 260 -7 288 -6 q 204 -8 233 -8 q 157 60 171 -8 q 85 383 132 167 q 22 671 38 600 q 26 688 19 683 q 64 693 33 692 q 143 694 94 694 l 186 468 q 217 265 203 371 q 235 129 231 160 l 243 129 q 282 386 269 318 l 326 651 q 335 671 329 667 q 363 675 342 675 l 436 675 l 490 383 q 518 235 506 317 q 533 129 531 154 l 540 129 q 558 292 546 194 q 585 468 571 389 l 619 669 m 472 779 q 426 828 460 792 q 381 886 392 865 q 354 853 375 878 q 310 804 333 828 q 276 781 288 781 q 200 813 226 781 l 358 983 q 382 988 369 988 q 417 971 401 988 q 459 926 426 961 q 522 856 492 892 q 551 811 551 821 q 528 788 551 797 q 472 779 504 779 z "},"ẅ":{"ha":751,"x_min":21,"x_max":731,"o":"m 619 669 q 628 688 622 683 q 661 693 635 692 q 731 694 688 694 q 647 290 708 585 q 581 -4 585 -4 q 557 -7 576 -6 q 508 -8 538 -8 q 474 10 492 -8 q 450 64 457 29 l 432 158 q 381 504 400 306 q 329 157 356 285 l 297 -4 q 260 -7 288 -6 q 204 -8 233 -8 q 157 60 171 -8 q 85 383 132 167 q 22 671 38 600 q 26 688 19 683 q 64 693 33 692 q 143 694 94 694 l 186 468 q 217 265 203 371 q 235 129 231 160 l 243 129 q 282 386 269 318 l 326 651 q 335 671 329 667 q 363 675 342 675 l 436 675 l 490 383 q 518 235 506 317 q 533 129 531 154 l 540 129 q 558 292 546 194 q 585 468 571 389 l 619 669 m 290 794 q 249 815 263 796 q 236 878 236 833 q 251 936 236 915 q 297 957 267 957 q 340 940 328 957 q 351 881 351 922 q 336 817 351 839 q 290 794 321 794 m 456 794 q 415 813 429 796 q 401 872 401 831 q 463 957 401 957 q 505 940 493 957 q 517 881 517 922 q 456 794 514 794 z "},"ẁ":{"ha":751,"x_min":21,"x_max":731,"o":"m 619 669 q 628 688 622 683 q 661 693 635 692 q 731 694 688 694 q 647 290 708 585 q 581 -4 585 -4 q 557 -7 576 -6 q 508 -8 538 -8 q 474 10 492 -8 q 450 64 457 29 l 432 158 q 381 504 400 306 q 329 157 356 285 l 297 -4 q 260 -7 288 -6 q 204 -8 233 -8 q 157 60 171 -8 q 85 383 132 167 q 22 671 38 600 q 26 688 19 683 q 64 693 33 692 q 143 694 94 694 l 186 468 q 217 265 203 371 q 235 129 231 160 l 243 129 q 282 386 269 318 l 326 651 q 335 671 329 667 q 363 675 342 675 l 436 675 l 490 383 q 518 235 506 317 q 533 129 531 154 l 540 129 q 558 292 546 194 q 585 468 571 389 l 619 669 m 461 768 q 353 840 424 789 q 267 910 282 890 q 286 967 272 940 q 318 994 300 994 q 394 938 328 994 q 504 831 461 881 q 497 811 503 826 q 482 782 492 796 q 461 768 472 768 z "},"x":{"ha":571,"x_min":21,"x_max":549,"o":"m 543 26 q 549 11 549 13 q 533 2 549 4 q 468 0 518 0 l 419 0 l 368 92 q 276 279 338 149 q 189 90 228 168 l 149 22 q 133 6 143 11 q 94 1 124 1 q 21 0 65 0 l 218 361 l 49 676 q 49 690 44 686 q 83 694 53 693 q 167 694 114 694 l 218 599 q 293 440 257 526 q 369 600 339 542 l 413 675 q 424 690 417 686 q 459 694 431 693 q 536 694 488 694 l 358 371 l 543 26 z "},"y":{"ha":496,"x_min":-6,"x_max":472,"o":"m 107 -268 q -6 -214 -6 -268 q -1 -180 -6 -197 q 11 -151 3 -162 q 49 -167 25 -161 q 99 -172 74 -172 q 160 -138 135 -172 q 200 -22 185 -104 l 33 664 q 31 679 31 675 q 49 692 31 690 q 142 694 68 694 l 218 361 q 242 216 232 293 q 256 115 253 139 q 267 215 258 138 q 289 363 276 292 l 351 663 q 360 686 354 681 q 388 693 367 692 q 472 694 408 694 l 301 -37 q 255 -176 281 -126 q 194 -247 229 -226 q 107 -268 158 -268 z "},"ý":{"ha":496,"x_min":-6,"x_max":472,"o":"m 107 -268 q -6 -214 -6 -268 q -1 -180 -6 -197 q 11 -151 3 -162 q 49 -167 25 -161 q 99 -172 74 -172 q 160 -138 135 -172 q 200 -22 185 -104 l 33 664 q 31 679 31 675 q 49 692 31 690 q 142 694 68 694 l 218 361 q 242 216 232 293 q 256 115 253 139 q 267 215 258 138 q 289 363 276 292 l 351 663 q 360 686 354 681 q 388 693 367 692 q 472 694 408 694 l 301 -37 q 255 -176 281 -126 q 194 -247 229 -226 q 107 -268 158 -268 m 181 778 q 160 792 169 778 q 144 821 150 806 q 138 840 139 836 q 248 947 182 890 q 324 1003 314 1003 q 356 976 342 1003 q 375 918 369 949 q 288 849 358 900 q 181 778 217 797 z "},"ŷ":{"ha":496,"x_min":-6,"x_max":472,"o":"m 107 -268 q -6 -214 -6 -268 q -1 -180 -6 -197 q 11 -151 3 -162 q 49 -167 25 -161 q 99 -172 74 -172 q 160 -138 135 -172 q 200 -22 185 -104 l 33 664 q 31 679 31 675 q 49 692 31 690 q 142 694 68 694 l 218 361 q 242 216 232 293 q 256 115 253 139 q 267 215 258 138 q 289 363 276 292 l 351 663 q 360 686 354 681 q 388 693 367 692 q 472 694 408 694 l 301 -37 q 255 -176 281 -126 q 194 -247 229 -226 q 107 -268 158 -268 m 343 779 q 297 828 331 792 q 251 886 263 865 q 225 853 246 878 q 181 804 204 828 q 147 781 158 781 q 71 813 97 781 l 229 983 q 253 988 240 988 q 288 971 272 988 q 330 926 297 961 q 392 856 363 892 q 422 811 422 821 q 399 788 422 797 q 343 779 375 779 z "}}}
